G04*
G04 #@! TF.GenerationSoftware,Altium Limited,Altium Designer,22.10.1 (41)*
G04*
G04 Layer_Physical_Order=3*
G04 Layer_Color=16440176*
%FSLAX25Y25*%
%MOIN*%
G70*
G04*
G04 #@! TF.SameCoordinates,49C2D000-8325-4097-923D-366AA4D3C581*
G04*
G04*
G04 #@! TF.FilePolarity,Positive*
G04*
G01*
G75*
%ADD14C,0.01000*%
%ADD74C,0.05906*%
%ADD76C,0.06496*%
%ADD78R,0.05634X0.05634*%
%ADD80C,0.05000*%
G36*
X475424Y258544D02*
X474924Y258465D01*
X474502Y259764D01*
X473615Y261505D01*
X472467Y263085D01*
X471085Y264467D01*
X469505Y265615D01*
X467764Y266502D01*
X465906Y267105D01*
X463977Y267411D01*
X462023D01*
X460094Y267105D01*
X458236Y266502D01*
X456495Y265615D01*
X454915Y264467D01*
X453533Y263085D01*
X452385Y261505D01*
X451498Y259764D01*
X450895Y257906D01*
X450589Y255977D01*
Y254023D01*
X450895Y252094D01*
X451498Y250236D01*
X452385Y248495D01*
X453533Y246915D01*
X454915Y245533D01*
X456495Y244385D01*
X458236Y243498D01*
X460094Y242895D01*
X462023Y242589D01*
X463977D01*
X465906Y242895D01*
X467764Y243498D01*
X469505Y244385D01*
X471085Y245533D01*
X472467Y246915D01*
X473615Y248495D01*
X474502Y250236D01*
X474924Y251535D01*
X475424Y251456D01*
Y239576D01*
X104576D01*
Y495424D01*
X326869D01*
X326934Y494924D01*
X326803Y494889D01*
X326097Y494481D01*
X325519Y493903D01*
X325111Y493197D01*
X324900Y492408D01*
Y491592D01*
X325111Y490803D01*
X325519Y490097D01*
X326097Y489519D01*
X326803Y489111D01*
X327592Y488900D01*
X328408D01*
X329197Y489111D01*
X329903Y489519D01*
X330481Y490097D01*
X330889Y490803D01*
X331100Y491592D01*
Y492408D01*
X330889Y493197D01*
X330481Y493903D01*
X329903Y494481D01*
X329197Y494889D01*
X329066Y494924D01*
X329131Y495424D01*
X475424D01*
Y258544D01*
D02*
G37*
%LPC*%
G36*
X368408Y492100D02*
X367592D01*
X366803Y491889D01*
X366097Y491481D01*
X365519Y490903D01*
X365111Y490197D01*
X364900Y489408D01*
Y488592D01*
X365111Y487803D01*
X365519Y487097D01*
X366097Y486519D01*
X366803Y486111D01*
X367592Y485900D01*
X368408D01*
X369197Y486111D01*
X369903Y486519D01*
X370481Y487097D01*
X370889Y487803D01*
X371100Y488592D01*
Y489408D01*
X370889Y490197D01*
X370481Y490903D01*
X369903Y491481D01*
X369197Y491889D01*
X368408Y492100D01*
D02*
G37*
G36*
X428468Y488553D02*
X427532D01*
X426629Y488311D01*
X425819Y487843D01*
X425157Y487181D01*
X424689Y486371D01*
X424447Y485468D01*
Y484532D01*
X424689Y483629D01*
X425157Y482819D01*
X425819Y482157D01*
X426629Y481689D01*
X427532Y481447D01*
X428468D01*
X429371Y481689D01*
X430181Y482157D01*
X430843Y482819D01*
X431311Y483629D01*
X431553Y484532D01*
Y485468D01*
X431311Y486371D01*
X430843Y487181D01*
X430181Y487843D01*
X429371Y488311D01*
X428468Y488553D01*
D02*
G37*
G36*
X421553D02*
X414447D01*
Y481447D01*
X421553D01*
Y488553D01*
D02*
G37*
G36*
X268408Y487100D02*
X267592D01*
X266803Y486889D01*
X266097Y486481D01*
X265519Y485903D01*
X265111Y485197D01*
X264900Y484408D01*
Y483592D01*
X265111Y482803D01*
X265519Y482097D01*
X266097Y481519D01*
X266803Y481111D01*
X267592Y480900D01*
X268408D01*
X269197Y481111D01*
X269903Y481519D01*
X270481Y482097D01*
X270889Y482803D01*
X271100Y483592D01*
Y484408D01*
X270889Y485197D01*
X270481Y485903D01*
X269903Y486481D01*
X269197Y486889D01*
X268408Y487100D01*
D02*
G37*
G36*
X232507Y486848D02*
X231493D01*
X230515Y486586D01*
X229637Y486079D01*
X228921Y485363D01*
X228414Y484485D01*
X228152Y483507D01*
Y482493D01*
X228414Y481515D01*
X228921Y480637D01*
X229637Y479921D01*
X230515Y479414D01*
X231493Y479152D01*
X232507D01*
X233485Y479414D01*
X234363Y479921D01*
X235079Y480637D01*
X235586Y481515D01*
X235848Y482493D01*
Y483507D01*
X235586Y484485D01*
X235079Y485363D01*
X234363Y486079D01*
X233485Y486586D01*
X232507Y486848D01*
D02*
G37*
G36*
X312408Y483100D02*
X311592D01*
X310803Y482889D01*
X310097Y482481D01*
X309519Y481903D01*
X309111Y481197D01*
X308900Y480408D01*
Y479592D01*
X309111Y478803D01*
X309519Y478097D01*
X310097Y477519D01*
X310803Y477111D01*
X311592Y476900D01*
X312408D01*
X313197Y477111D01*
X313903Y477519D01*
X314481Y478097D01*
X314889Y478803D01*
X315100Y479592D01*
Y480408D01*
X314889Y481197D01*
X314481Y481903D01*
X313903Y482481D01*
X313197Y482889D01*
X312408Y483100D01*
D02*
G37*
G36*
X195468Y481553D02*
X194532D01*
X193629Y481311D01*
X192819Y480843D01*
X192157Y480181D01*
X191689Y479371D01*
X191447Y478468D01*
Y477532D01*
X191689Y476629D01*
X192157Y475819D01*
X192819Y475157D01*
X193629Y474689D01*
X194532Y474447D01*
X195468D01*
X196371Y474689D01*
X197181Y475157D01*
X197843Y475819D01*
X198311Y476629D01*
X198553Y477532D01*
Y478468D01*
X198311Y479371D01*
X197843Y480181D01*
X197181Y480843D01*
X196371Y481311D01*
X195468Y481553D01*
D02*
G37*
G36*
X181468D02*
X180532D01*
X179629Y481311D01*
X178819Y480843D01*
X178157Y480181D01*
X177689Y479371D01*
X177447Y478468D01*
Y477532D01*
X177689Y476629D01*
X178157Y475819D01*
X178819Y475157D01*
X179629Y474689D01*
X180532Y474447D01*
X181468D01*
X182371Y474689D01*
X183181Y475157D01*
X183843Y475819D01*
X184311Y476629D01*
X184553Y477532D01*
Y478468D01*
X184311Y479371D01*
X183843Y480181D01*
X183181Y480843D01*
X182371Y481311D01*
X181468Y481553D01*
D02*
G37*
G36*
X167468D02*
X166532D01*
X165629Y481311D01*
X164819Y480843D01*
X164157Y480181D01*
X163689Y479371D01*
X163447Y478468D01*
Y477532D01*
X163689Y476629D01*
X164157Y475819D01*
X164819Y475157D01*
X165629Y474689D01*
X166532Y474447D01*
X167468D01*
X168371Y474689D01*
X169181Y475157D01*
X169843Y475819D01*
X170311Y476629D01*
X170553Y477532D01*
Y478468D01*
X170311Y479371D01*
X169843Y480181D01*
X169181Y480843D01*
X168371Y481311D01*
X167468Y481553D01*
D02*
G37*
G36*
X152968D02*
X152032D01*
X151129Y481311D01*
X150319Y480843D01*
X149657Y480181D01*
X149189Y479371D01*
X148947Y478468D01*
Y477532D01*
X149189Y476629D01*
X149657Y475819D01*
X150319Y475157D01*
X151129Y474689D01*
X152032Y474447D01*
X152968D01*
X153871Y474689D01*
X154681Y475157D01*
X155343Y475819D01*
X155811Y476629D01*
X156053Y477532D01*
Y478468D01*
X155811Y479371D01*
X155343Y480181D01*
X154681Y480843D01*
X153871Y481311D01*
X152968Y481553D01*
D02*
G37*
G36*
X356468Y480553D02*
X355532D01*
X354629Y480311D01*
X353819Y479843D01*
X353157Y479181D01*
X352689Y478371D01*
X352447Y477468D01*
Y476532D01*
X352689Y475629D01*
X353157Y474819D01*
X353819Y474157D01*
X354629Y473689D01*
X355532Y473447D01*
X356468D01*
X357371Y473689D01*
X358181Y474157D01*
X358843Y474819D01*
X359311Y475629D01*
X359553Y476532D01*
Y477468D01*
X359311Y478371D01*
X358843Y479181D01*
X358181Y479843D01*
X357371Y480311D01*
X356468Y480553D01*
D02*
G37*
G36*
X242507Y476848D02*
X241493D01*
X240515Y476586D01*
X239637Y476079D01*
X238921Y475363D01*
X238414Y474485D01*
X238152Y473507D01*
Y472493D01*
X238414Y471515D01*
X238921Y470637D01*
X239637Y469921D01*
X240515Y469414D01*
X241493Y469152D01*
X242507D01*
X243485Y469414D01*
X244363Y469921D01*
X245079Y470637D01*
X245586Y471515D01*
X245848Y472493D01*
Y473507D01*
X245586Y474485D01*
X245079Y475363D01*
X244363Y476079D01*
X243485Y476586D01*
X242507Y476848D01*
D02*
G37*
G36*
X232507D02*
X231493D01*
X230515Y476586D01*
X229637Y476079D01*
X228921Y475363D01*
X228414Y474485D01*
X228152Y473507D01*
Y472493D01*
X228414Y471515D01*
X228921Y470637D01*
X229637Y469921D01*
X230515Y469414D01*
X231493Y469152D01*
X232507D01*
X233485Y469414D01*
X234363Y469921D01*
X235079Y470637D01*
X235586Y471515D01*
X235848Y472493D01*
Y473507D01*
X235586Y474485D01*
X235079Y475363D01*
X234363Y476079D01*
X233485Y476586D01*
X232507Y476848D01*
D02*
G37*
G36*
X401408Y475100D02*
X400592D01*
X399803Y474889D01*
X399097Y474481D01*
X398519Y473903D01*
X398111Y473197D01*
X397900Y472408D01*
Y471592D01*
X398111Y470803D01*
X398519Y470097D01*
X399097Y469519D01*
X399803Y469111D01*
X400592Y468900D01*
X401408D01*
X402197Y469111D01*
X402903Y469519D01*
X403481Y470097D01*
X403889Y470803D01*
X404100Y471592D01*
Y472408D01*
X403889Y473197D01*
X403481Y473903D01*
X402903Y474481D01*
X402197Y474889D01*
X401408Y475100D01*
D02*
G37*
G36*
X463477Y492411D02*
X461523D01*
X459594Y492105D01*
X457736Y491502D01*
X455995Y490615D01*
X454415Y489467D01*
X453033Y488085D01*
X451885Y486505D01*
X450998Y484764D01*
X450395Y482906D01*
X450089Y480977D01*
Y479023D01*
X450395Y477094D01*
X450998Y475236D01*
X451885Y473495D01*
X453033Y471915D01*
X454415Y470533D01*
X455995Y469385D01*
X457736Y468498D01*
X459594Y467895D01*
X461523Y467589D01*
X463477D01*
X465406Y467895D01*
X467264Y468498D01*
X469005Y469385D01*
X470585Y470533D01*
X471967Y471915D01*
X473115Y473495D01*
X474002Y475236D01*
X474605Y477094D01*
X474911Y479023D01*
Y480977D01*
X474605Y482906D01*
X474002Y484764D01*
X473115Y486505D01*
X471967Y488085D01*
X470585Y489467D01*
X469005Y490615D01*
X467264Y491502D01*
X465406Y492105D01*
X463477Y492411D01*
D02*
G37*
G36*
X118477D02*
X116523D01*
X114594Y492105D01*
X112736Y491502D01*
X110995Y490615D01*
X109415Y489467D01*
X108033Y488085D01*
X106885Y486505D01*
X105998Y484764D01*
X105395Y482906D01*
X105089Y480977D01*
Y479023D01*
X105395Y477094D01*
X105998Y475236D01*
X106885Y473495D01*
X108033Y471915D01*
X109415Y470533D01*
X110995Y469385D01*
X112736Y468498D01*
X114594Y467895D01*
X116523Y467589D01*
X118477D01*
X120406Y467895D01*
X122264Y468498D01*
X124005Y469385D01*
X125585Y470533D01*
X126967Y471915D01*
X128115Y473495D01*
X129002Y475236D01*
X129605Y477094D01*
X129911Y479023D01*
Y480977D01*
X129605Y482906D01*
X129002Y484764D01*
X128115Y486505D01*
X126967Y488085D01*
X125585Y489467D01*
X124005Y490615D01*
X122264Y491502D01*
X120406Y492105D01*
X118477Y492411D01*
D02*
G37*
G36*
X245848Y466848D02*
X238152D01*
Y459152D01*
X245848D01*
Y466848D01*
D02*
G37*
G36*
X232507D02*
X231493D01*
X230515Y466586D01*
X229637Y466079D01*
X228921Y465363D01*
X228414Y464485D01*
X228152Y463507D01*
Y462493D01*
X228414Y461515D01*
X228921Y460637D01*
X229637Y459921D01*
X230515Y459414D01*
X231493Y459152D01*
X232507D01*
X233485Y459414D01*
X234363Y459921D01*
X235079Y460637D01*
X235586Y461515D01*
X235848Y462493D01*
Y463507D01*
X235586Y464485D01*
X235079Y465363D01*
X234363Y466079D01*
X233485Y466586D01*
X232507Y466848D01*
D02*
G37*
G36*
X117468Y462553D02*
X116532D01*
X115629Y462311D01*
X114819Y461843D01*
X114157Y461181D01*
X113689Y460371D01*
X113447Y459468D01*
Y458532D01*
X113689Y457629D01*
X114157Y456819D01*
X114819Y456157D01*
X115629Y455689D01*
X116532Y455447D01*
X117468D01*
X118371Y455689D01*
X119181Y456157D01*
X119843Y456819D01*
X120311Y457629D01*
X120553Y458532D01*
Y459468D01*
X120311Y460371D01*
X119843Y461181D01*
X119181Y461843D01*
X118371Y462311D01*
X117468Y462553D01*
D02*
G37*
G36*
X422408Y459100D02*
X421592D01*
X420803Y458889D01*
X420097Y458481D01*
X419519Y457903D01*
X419111Y457197D01*
X418900Y456408D01*
Y455592D01*
X419111Y454803D01*
X419519Y454097D01*
X420097Y453519D01*
X420803Y453111D01*
X421592Y452900D01*
X422408D01*
X423197Y453111D01*
X423903Y453519D01*
X424481Y454097D01*
X424889Y454803D01*
X425100Y455592D01*
Y456408D01*
X424889Y457197D01*
X424481Y457903D01*
X423903Y458481D01*
X423197Y458889D01*
X422408Y459100D01*
D02*
G37*
G36*
X156468Y446553D02*
X155532D01*
X154629Y446311D01*
X153819Y445843D01*
X153157Y445181D01*
X152689Y444371D01*
X152447Y443468D01*
Y442532D01*
X152689Y441629D01*
X153157Y440819D01*
X153819Y440157D01*
X154629Y439689D01*
X155532Y439447D01*
X156468D01*
X157371Y439689D01*
X158181Y440157D01*
X158843Y440819D01*
X159311Y441629D01*
X159553Y442532D01*
Y443468D01*
X159311Y444371D01*
X158843Y445181D01*
X158181Y445843D01*
X157371Y446311D01*
X156468Y446553D01*
D02*
G37*
G36*
X143468D02*
X142532D01*
X141629Y446311D01*
X140819Y445843D01*
X140157Y445181D01*
X139689Y444371D01*
X139447Y443468D01*
Y442532D01*
X139689Y441629D01*
X140157Y440819D01*
X140819Y440157D01*
X141629Y439689D01*
X142532Y439447D01*
X143468D01*
X144371Y439689D01*
X145181Y440157D01*
X145843Y440819D01*
X146311Y441629D01*
X146553Y442532D01*
Y443468D01*
X146311Y444371D01*
X145843Y445181D01*
X145181Y445843D01*
X144371Y446311D01*
X143468Y446553D01*
D02*
G37*
G36*
X130468D02*
X129532D01*
X128629Y446311D01*
X127819Y445843D01*
X127157Y445181D01*
X126689Y444371D01*
X126447Y443468D01*
Y442532D01*
X126689Y441629D01*
X127157Y440819D01*
X127819Y440157D01*
X128629Y439689D01*
X129532Y439447D01*
X130468D01*
X131371Y439689D01*
X132181Y440157D01*
X132843Y440819D01*
X133311Y441629D01*
X133553Y442532D01*
Y443468D01*
X133311Y444371D01*
X132843Y445181D01*
X132181Y445843D01*
X131371Y446311D01*
X130468Y446553D01*
D02*
G37*
G36*
X117468D02*
X116532D01*
X115629Y446311D01*
X114819Y445843D01*
X114157Y445181D01*
X113689Y444371D01*
X113447Y443468D01*
Y442532D01*
X113689Y441629D01*
X114157Y440819D01*
X114819Y440157D01*
X115629Y439689D01*
X116532Y439447D01*
X117468D01*
X118371Y439689D01*
X119181Y440157D01*
X119843Y440819D01*
X120311Y441629D01*
X120553Y442532D01*
Y443468D01*
X120311Y444371D01*
X119843Y445181D01*
X119181Y445843D01*
X118371Y446311D01*
X117468Y446553D01*
D02*
G37*
G36*
X428147Y445015D02*
X427247D01*
X426378Y444782D01*
X425599Y444333D01*
X424963Y443696D01*
X424513Y442917D01*
X424280Y442048D01*
Y441149D01*
X424513Y440279D01*
X424963Y439500D01*
X425599Y438864D01*
X426378Y438414D01*
X427247Y438181D01*
X428147D01*
X429016Y438414D01*
X429795Y438864D01*
X430431Y439500D01*
X430881Y440279D01*
X431114Y441149D01*
Y442048D01*
X430881Y442917D01*
X430431Y443696D01*
X429795Y444333D01*
X429016Y444782D01*
X428147Y445015D01*
D02*
G37*
G36*
X420249D02*
X419349D01*
X418480Y444782D01*
X417701Y444333D01*
X417065Y443696D01*
X416615Y442917D01*
X416382Y442048D01*
Y441149D01*
X416615Y440279D01*
X417065Y439500D01*
X417701Y438864D01*
X418480Y438414D01*
X419349Y438181D01*
X420249D01*
X421118Y438414D01*
X421897Y438864D01*
X422533Y439500D01*
X422983Y440279D01*
X423216Y441149D01*
Y442048D01*
X422983Y442917D01*
X422533Y443696D01*
X421897Y444333D01*
X421118Y444782D01*
X420249Y445015D01*
D02*
G37*
G36*
X412348D02*
X411448D01*
X410579Y444782D01*
X409800Y444333D01*
X409163Y443696D01*
X408713Y442917D01*
X408481Y442048D01*
Y441149D01*
X408713Y440279D01*
X409163Y439500D01*
X409800Y438864D01*
X410579Y438414D01*
X411448Y438181D01*
X412348D01*
X413216Y438414D01*
X413996Y438864D01*
X414632Y439500D01*
X415082Y440279D01*
X415314Y441149D01*
Y442048D01*
X415082Y442917D01*
X414632Y443696D01*
X413996Y444333D01*
X413216Y444782D01*
X412348Y445015D01*
D02*
G37*
G36*
X404450D02*
X403550D01*
X402681Y444782D01*
X401902Y444333D01*
X401266Y443696D01*
X400816Y442917D01*
X400583Y442048D01*
Y441149D01*
X400816Y440279D01*
X401266Y439500D01*
X401902Y438864D01*
X402681Y438414D01*
X403550Y438181D01*
X404450D01*
X405319Y438414D01*
X406098Y438864D01*
X406734Y439500D01*
X407184Y440279D01*
X407417Y441149D01*
Y442048D01*
X407184Y442917D01*
X406734Y443696D01*
X406098Y444333D01*
X405319Y444782D01*
X404450Y445015D01*
D02*
G37*
G36*
X396548D02*
X395649D01*
X394779Y444782D01*
X394000Y444333D01*
X393364Y443696D01*
X392914Y442917D01*
X392682Y442048D01*
Y441149D01*
X392914Y440279D01*
X393364Y439500D01*
X394000Y438864D01*
X394779Y438414D01*
X395649Y438181D01*
X396548D01*
X397417Y438414D01*
X398196Y438864D01*
X398833Y439500D01*
X399283Y440279D01*
X399515Y441149D01*
Y442048D01*
X399283Y442917D01*
X398833Y443696D01*
X398196Y444333D01*
X397417Y444782D01*
X396548Y445015D01*
D02*
G37*
G36*
X388647D02*
X387747D01*
X386878Y444782D01*
X386099Y444333D01*
X385463Y443696D01*
X385013Y442917D01*
X384780Y442048D01*
Y441149D01*
X385013Y440279D01*
X385463Y439500D01*
X386099Y438864D01*
X386878Y438414D01*
X387747Y438181D01*
X388647D01*
X389516Y438414D01*
X390295Y438864D01*
X390931Y439500D01*
X391381Y440279D01*
X391614Y441149D01*
Y442048D01*
X391381Y442917D01*
X390931Y443696D01*
X390295Y444333D01*
X389516Y444782D01*
X388647Y445015D01*
D02*
G37*
G36*
X380749D02*
X379849D01*
X378980Y444782D01*
X378201Y444333D01*
X377565Y443696D01*
X377115Y442917D01*
X376882Y442048D01*
Y441149D01*
X377115Y440279D01*
X377565Y439500D01*
X378201Y438864D01*
X378980Y438414D01*
X379849Y438181D01*
X380749D01*
X381618Y438414D01*
X382397Y438864D01*
X383033Y439500D01*
X383483Y440279D01*
X383716Y441149D01*
Y442048D01*
X383483Y442917D01*
X383033Y443696D01*
X382397Y444333D01*
X381618Y444782D01*
X380749Y445015D01*
D02*
G37*
G36*
X372847D02*
X371948D01*
X371079Y444782D01*
X370300Y444333D01*
X369663Y443696D01*
X369214Y442917D01*
X368981Y442048D01*
Y441149D01*
X369214Y440279D01*
X369663Y439500D01*
X370300Y438864D01*
X371079Y438414D01*
X371948Y438181D01*
X372847D01*
X373716Y438414D01*
X374496Y438864D01*
X375132Y439500D01*
X375582Y440279D01*
X375815Y441149D01*
Y442048D01*
X375582Y442917D01*
X375132Y443696D01*
X374496Y444333D01*
X373716Y444782D01*
X372847Y445015D01*
D02*
G37*
G36*
X364950D02*
X364050D01*
X363181Y444782D01*
X362402Y444333D01*
X361766Y443696D01*
X361316Y442917D01*
X361083Y442048D01*
Y441149D01*
X361316Y440279D01*
X361766Y439500D01*
X362402Y438864D01*
X363181Y438414D01*
X364050Y438181D01*
X364950D01*
X365819Y438414D01*
X366598Y438864D01*
X367234Y439500D01*
X367684Y440279D01*
X367917Y441149D01*
Y442048D01*
X367684Y442917D01*
X367234Y443696D01*
X366598Y444333D01*
X365819Y444782D01*
X364950Y445015D01*
D02*
G37*
G36*
X237408Y446100D02*
X236592D01*
X235803Y445889D01*
X235097Y445481D01*
X234519Y444903D01*
X234111Y444197D01*
X233900Y443408D01*
Y442592D01*
X234111Y441803D01*
X234519Y441097D01*
X234848Y440768D01*
X234699Y440210D01*
X234666Y440201D01*
X233959Y439793D01*
X233382Y439216D01*
X232974Y438509D01*
X232763Y437721D01*
Y436904D01*
X232974Y436116D01*
X233382Y435409D01*
X233959Y434832D01*
X234666Y434424D01*
X235454Y434213D01*
X236271D01*
X237059Y434424D01*
X237766Y434832D01*
X238343Y435409D01*
X238751Y436116D01*
X238963Y436904D01*
Y437721D01*
X238751Y438509D01*
X238343Y439216D01*
X238014Y439545D01*
X238164Y440102D01*
X238197Y440111D01*
X238903Y440519D01*
X239481Y441097D01*
X239889Y441803D01*
X240100Y442592D01*
Y443408D01*
X239889Y444197D01*
X239481Y444903D01*
X238903Y445481D01*
X238197Y445889D01*
X237408Y446100D01*
D02*
G37*
G36*
X322408Y437700D02*
X321592D01*
X320803Y437489D01*
X320097Y437081D01*
X319519Y436503D01*
X319111Y435797D01*
X318900Y435008D01*
Y434192D01*
X319111Y433403D01*
X319519Y432697D01*
X320097Y432119D01*
X320803Y431711D01*
X321592Y431500D01*
X322408D01*
X323197Y431711D01*
X323903Y432119D01*
X324481Y432697D01*
X324889Y433403D01*
X325100Y434192D01*
Y435008D01*
X324889Y435797D01*
X324481Y436503D01*
X323903Y437081D01*
X323197Y437489D01*
X322408Y437700D01*
D02*
G37*
G36*
X365408Y433100D02*
X364592D01*
X363803Y432889D01*
X363097Y432481D01*
X362519Y431903D01*
X362111Y431197D01*
X361900Y430408D01*
Y429592D01*
X362111Y428803D01*
X362519Y428097D01*
X363097Y427519D01*
X363803Y427111D01*
X364592Y426900D01*
X365408D01*
X366197Y427111D01*
X366903Y427519D01*
X367481Y428097D01*
X367889Y428803D01*
X368100Y429592D01*
Y430408D01*
X367889Y431197D01*
X367481Y431903D01*
X366903Y432481D01*
X366197Y432889D01*
X365408Y433100D01*
D02*
G37*
G36*
X181408Y430100D02*
X180592D01*
X179803Y429889D01*
X179097Y429481D01*
X178519Y428903D01*
X178111Y428197D01*
X177900Y427408D01*
Y426592D01*
X178111Y425803D01*
X178519Y425097D01*
X179097Y424519D01*
X179803Y424111D01*
X180592Y423900D01*
X181408D01*
X182197Y424111D01*
X182903Y424519D01*
X183481Y425097D01*
X183889Y425803D01*
X184100Y426592D01*
Y427408D01*
X183889Y428197D01*
X183481Y428903D01*
X182903Y429481D01*
X182197Y429889D01*
X181408Y430100D01*
D02*
G37*
G36*
X237499Y432711D02*
X236683D01*
X235894Y432500D01*
X235187Y432092D01*
X234610Y431515D01*
X234202Y430808D01*
X233991Y430020D01*
Y429203D01*
X234202Y428415D01*
X234610Y427708D01*
X235187Y427131D01*
X235894Y426723D01*
X236580Y426539D01*
X236724Y426241D01*
X236760Y426011D01*
X236432Y425684D01*
X236024Y424977D01*
X235813Y424189D01*
Y423372D01*
X236024Y422584D01*
X236432Y421877D01*
X237009Y421300D01*
X237716Y420892D01*
X238505Y420681D01*
X239321D01*
X240109Y420892D01*
X240816Y421300D01*
X241393Y421877D01*
X241802Y422584D01*
X242013Y423372D01*
Y424189D01*
X241802Y424977D01*
X241393Y425684D01*
X240816Y426261D01*
X240109Y426669D01*
X239423Y426853D01*
X239279Y427151D01*
X239244Y427381D01*
X239571Y427708D01*
X239979Y428415D01*
X240191Y429203D01*
Y430020D01*
X239979Y430808D01*
X239571Y431515D01*
X238994Y432092D01*
X238287Y432500D01*
X237499Y432711D01*
D02*
G37*
G36*
X197408Y430100D02*
X196592D01*
X195803Y429889D01*
X195097Y429481D01*
X194519Y428903D01*
X194111Y428197D01*
X193900Y427408D01*
Y426592D01*
X194111Y425803D01*
X194519Y425097D01*
X195097Y424519D01*
X195496Y424289D01*
Y423711D01*
X195097Y423481D01*
X194519Y422903D01*
X194111Y422197D01*
X193900Y421408D01*
Y420592D01*
X194111Y419803D01*
X194519Y419097D01*
X195097Y418519D01*
X195803Y418111D01*
X196592Y417900D01*
X197408D01*
X198197Y418111D01*
X198903Y418519D01*
X199481Y419097D01*
X199889Y419803D01*
X200100Y420592D01*
Y421408D01*
X199889Y422197D01*
X199481Y422903D01*
X198903Y423481D01*
X198504Y423711D01*
Y424289D01*
X198903Y424519D01*
X199481Y425097D01*
X199889Y425803D01*
X200100Y426592D01*
Y427408D01*
X199889Y428197D01*
X199481Y428903D01*
X198903Y429481D01*
X198197Y429889D01*
X197408Y430100D01*
D02*
G37*
G36*
X228905Y423864D02*
X228089D01*
X227300Y423653D01*
X226593Y423245D01*
X226016Y422668D01*
X225608Y421961D01*
X225397Y421173D01*
Y420356D01*
X225608Y419568D01*
X226016Y418861D01*
X226593Y418284D01*
X227300Y417876D01*
X228089Y417664D01*
X228905D01*
X229694Y417876D01*
X230400Y418284D01*
X230978Y418861D01*
X231386Y419568D01*
X231597Y420356D01*
Y421173D01*
X231386Y421961D01*
X230978Y422668D01*
X230400Y423245D01*
X229694Y423653D01*
X228905Y423864D01*
D02*
G37*
G36*
X220408Y423100D02*
X219592D01*
X218803Y422889D01*
X218097Y422481D01*
X217519Y421903D01*
X217111Y421197D01*
X216900Y420408D01*
Y419592D01*
X217111Y418803D01*
X217519Y418097D01*
X218097Y417519D01*
X218803Y417111D01*
X219592Y416900D01*
X220408D01*
X221197Y417111D01*
X221903Y417519D01*
X222481Y418097D01*
X222889Y418803D01*
X223100Y419592D01*
Y420408D01*
X222889Y421197D01*
X222481Y421903D01*
X221903Y422481D01*
X221197Y422889D01*
X220408Y423100D01*
D02*
G37*
G36*
X126471Y418451D02*
X125655D01*
X124866Y418240D01*
X124160Y417832D01*
X123582Y417255D01*
X123174Y416548D01*
X122963Y415759D01*
Y414943D01*
X123174Y414155D01*
X123582Y413448D01*
X124160Y412871D01*
X124866Y412463D01*
X125655Y412251D01*
X126471D01*
X127260Y412463D01*
X127966Y412871D01*
X128543Y413448D01*
X128952Y414155D01*
X129163Y414943D01*
Y415759D01*
X128952Y416548D01*
X128543Y417255D01*
X127966Y417832D01*
X127260Y418240D01*
X126471Y418451D01*
D02*
G37*
G36*
X199408Y416100D02*
X198592D01*
X197803Y415889D01*
X197097Y415481D01*
X196519Y414903D01*
X196111Y414197D01*
X195900Y413408D01*
Y412592D01*
X196111Y411803D01*
X196519Y411097D01*
X197097Y410519D01*
X197803Y410111D01*
X198592Y409900D01*
X199408D01*
X200197Y410111D01*
X200903Y410519D01*
X201481Y411097D01*
X201889Y411803D01*
X202100Y412592D01*
Y413408D01*
X201889Y414197D01*
X201481Y414903D01*
X200903Y415481D01*
X200197Y415889D01*
X199408Y416100D01*
D02*
G37*
G36*
X229568Y415083D02*
X228752D01*
X227963Y414872D01*
X227256Y414464D01*
X226679Y413886D01*
X226271Y413179D01*
X226060Y412391D01*
Y411575D01*
X226271Y410786D01*
X226679Y410079D01*
X227256Y409502D01*
X227963Y409094D01*
X228752Y408883D01*
X229568D01*
X230356Y409094D01*
X231063Y409502D01*
X231640Y410079D01*
X232049Y410786D01*
X232260Y411575D01*
Y412391D01*
X232049Y413179D01*
X231640Y413886D01*
X231063Y414464D01*
X230356Y414872D01*
X229568Y415083D01*
D02*
G37*
G36*
X115408Y408100D02*
X114592D01*
X113803Y407889D01*
X113097Y407481D01*
X112519Y406903D01*
X112111Y406197D01*
X111900Y405408D01*
Y404592D01*
X112111Y403803D01*
X112519Y403097D01*
X113097Y402519D01*
X113803Y402111D01*
X114592Y401900D01*
X115408D01*
X116197Y402111D01*
X116903Y402519D01*
X117481Y403097D01*
X117889Y403803D01*
X118100Y404592D01*
Y405408D01*
X117889Y406197D01*
X117481Y406903D01*
X116903Y407481D01*
X116197Y407889D01*
X115408Y408100D01*
D02*
G37*
G36*
X169408Y407100D02*
X168592D01*
X167803Y406889D01*
X167097Y406481D01*
X166519Y405903D01*
X166111Y405197D01*
X165900Y404408D01*
Y403592D01*
X166111Y402803D01*
X166519Y402097D01*
X167097Y401519D01*
X167803Y401111D01*
X168592Y400900D01*
X169408D01*
X170197Y401111D01*
X170903Y401519D01*
X171481Y402097D01*
X171889Y402803D01*
X172100Y403592D01*
Y404408D01*
X171889Y405197D01*
X171481Y405903D01*
X170903Y406481D01*
X170197Y406889D01*
X169408Y407100D01*
D02*
G37*
G36*
X145408Y406100D02*
X144592D01*
X143803Y405889D01*
X143097Y405481D01*
X142519Y404903D01*
X142111Y404197D01*
X141900Y403408D01*
Y402592D01*
X142111Y401803D01*
X142519Y401097D01*
X143097Y400519D01*
X143803Y400111D01*
X144592Y399900D01*
X145408D01*
X146197Y400111D01*
X146903Y400519D01*
X147481Y401097D01*
X147889Y401803D01*
X148100Y402592D01*
Y403408D01*
X147889Y404197D01*
X147481Y404903D01*
X146903Y405481D01*
X146197Y405889D01*
X145408Y406100D01*
D02*
G37*
G36*
X137313Y402407D02*
X136497D01*
X135708Y402196D01*
X135001Y401787D01*
X134424Y401210D01*
X134016Y400503D01*
X133805Y399715D01*
Y398899D01*
X134016Y398110D01*
X134424Y397403D01*
X135001Y396826D01*
X135708Y396418D01*
X136497Y396207D01*
X137313D01*
X138101Y396418D01*
X138808Y396826D01*
X139385Y397403D01*
X139794Y398110D01*
X140005Y398899D01*
Y399715D01*
X139794Y400503D01*
X139385Y401210D01*
X138808Y401787D01*
X138101Y402196D01*
X137313Y402407D01*
D02*
G37*
G36*
X230408Y400100D02*
X229592D01*
X228803Y399889D01*
X228097Y399481D01*
X227519Y398903D01*
X227111Y398197D01*
X226900Y397408D01*
Y396592D01*
X227111Y395803D01*
X227519Y395097D01*
X228097Y394519D01*
X228803Y394111D01*
X229592Y393900D01*
X230408D01*
X231197Y394111D01*
X231903Y394519D01*
X232481Y395097D01*
X232889Y395803D01*
X233100Y396592D01*
Y397408D01*
X232889Y398197D01*
X232481Y398903D01*
X231903Y399481D01*
X231197Y399889D01*
X230408Y400100D01*
D02*
G37*
G36*
X118408D02*
X117592D01*
X116803Y399889D01*
X116097Y399481D01*
X115519Y398903D01*
X115111Y398197D01*
X114900Y397408D01*
Y396592D01*
X115111Y395803D01*
X115519Y395097D01*
X116097Y394519D01*
X116803Y394111D01*
X117592Y393900D01*
X118408D01*
X119197Y394111D01*
X119903Y394519D01*
X120481Y395097D01*
X120889Y395803D01*
X121100Y396592D01*
Y397408D01*
X120889Y398197D01*
X120481Y398903D01*
X119903Y399481D01*
X119197Y399889D01*
X118408Y400100D01*
D02*
G37*
G36*
X264359Y396603D02*
X263543D01*
X262755Y396392D01*
X262048Y395984D01*
X261471Y395407D01*
X261062Y394700D01*
X260851Y393912D01*
Y393807D01*
X260351Y393518D01*
X260048Y393693D01*
X259259Y393904D01*
X258443D01*
X257655Y393693D01*
X256948Y393285D01*
X256371Y392708D01*
X255962Y392001D01*
X255942Y391926D01*
X244177D01*
X244177Y391926D01*
X243747Y391841D01*
X243384Y391597D01*
X237583Y385797D01*
X237122Y385989D01*
Y388091D01*
X237197Y388111D01*
X237903Y388519D01*
X238481Y389097D01*
X238889Y389803D01*
X239100Y390592D01*
Y391408D01*
X238889Y392197D01*
X238481Y392903D01*
X237903Y393481D01*
X237197Y393889D01*
X236408Y394100D01*
X235592D01*
X234803Y393889D01*
X234097Y393481D01*
X233519Y392903D01*
X233111Y392197D01*
X232900Y391408D01*
Y390592D01*
X233111Y389803D01*
X233519Y389097D01*
X234097Y388519D01*
X234803Y388111D01*
X234878Y388091D01*
Y385596D01*
X226861Y377578D01*
X226361Y377785D01*
Y378132D01*
X226150Y378920D01*
X225742Y379627D01*
X225165Y380205D01*
X224458Y380613D01*
X223669Y380824D01*
X222853D01*
X222065Y380613D01*
X221358Y380205D01*
X220781Y379627D01*
X220373Y378920D01*
X220161Y378132D01*
Y377316D01*
X220373Y376527D01*
X220781Y375820D01*
X221358Y375243D01*
X222065Y374835D01*
X222853Y374624D01*
X223200D01*
X223407Y374124D01*
X218944Y369661D01*
X212369D01*
X212308Y369820D01*
X212284Y370162D01*
X212903Y370519D01*
X213481Y371097D01*
X213889Y371803D01*
X214100Y372592D01*
Y373408D01*
X213889Y374197D01*
X213481Y374903D01*
X212903Y375481D01*
X212197Y375889D01*
X211408Y376100D01*
X210592D01*
X209803Y375889D01*
X209097Y375481D01*
X208519Y374903D01*
X208111Y374197D01*
X207900Y373408D01*
Y372592D01*
X208111Y371803D01*
X208519Y371097D01*
X209097Y370519D01*
X209716Y370162D01*
X209692Y369820D01*
X209631Y369661D01*
X207362D01*
X206985Y370162D01*
X207100Y370592D01*
Y371408D01*
X206889Y372197D01*
X206481Y372903D01*
X205903Y373481D01*
X205197Y373889D01*
X204408Y374100D01*
X203592D01*
X202803Y373889D01*
X202097Y373481D01*
X201519Y372903D01*
X201111Y372197D01*
X200900Y371408D01*
Y370592D01*
X201111Y369803D01*
X201519Y369097D01*
X202097Y368519D01*
X202803Y368111D01*
X203420Y367946D01*
X203639Y367538D01*
X203657Y367400D01*
X203624Y367352D01*
X160443D01*
X160236Y367851D01*
X160481Y368097D01*
X160889Y368803D01*
X161100Y369592D01*
Y370408D01*
X160889Y371197D01*
X160481Y371903D01*
X159903Y372481D01*
X159197Y372889D01*
X158408Y373100D01*
X157592D01*
X156803Y372889D01*
X156097Y372481D01*
X155519Y371903D01*
X155111Y371197D01*
X154900Y370408D01*
Y369592D01*
X155111Y368803D01*
X155519Y368097D01*
X155764Y367851D01*
X155557Y367352D01*
X154899D01*
X154898Y367352D01*
X154469Y367266D01*
X154105Y367023D01*
X154105Y367023D01*
X145493Y358411D01*
X134164D01*
X134144Y358486D01*
X133736Y359193D01*
X133159Y359770D01*
X132452Y360178D01*
X131664Y360389D01*
X130847D01*
X130059Y360178D01*
X129352Y359770D01*
X128775Y359193D01*
X128367Y358486D01*
X128156Y357697D01*
Y356881D01*
X128367Y356093D01*
X128775Y355386D01*
X129352Y354809D01*
X130059Y354400D01*
X130847Y354189D01*
X131664D01*
X132452Y354400D01*
X133159Y354809D01*
X133736Y355386D01*
X134144Y356093D01*
X134164Y356168D01*
X145958D01*
X145958Y356168D01*
X146387Y356253D01*
X146751Y356496D01*
X155363Y365108D01*
X175313D01*
X175504Y364647D01*
X174972Y364114D01*
X174729Y363751D01*
X174644Y363321D01*
X174592Y363100D01*
X173803Y362889D01*
X173097Y362481D01*
X172519Y361903D01*
X172111Y361197D01*
X171900Y360408D01*
Y359592D01*
X172111Y358803D01*
X172519Y358097D01*
X173097Y357519D01*
X173803Y357111D01*
X174592Y356900D01*
X175408D01*
X176197Y357111D01*
X176903Y357519D01*
X177481Y358097D01*
X177889Y358803D01*
X178100Y359592D01*
Y360408D01*
X177889Y361197D01*
X177481Y361903D01*
X176903Y362481D01*
X176975Y362945D01*
X177368Y363338D01*
X205295D01*
X205295Y363338D01*
X205724Y363424D01*
X206088Y363667D01*
X206585Y364164D01*
X207033Y363905D01*
X206900Y363408D01*
Y362592D01*
X207111Y361803D01*
X207519Y361097D01*
X208097Y360519D01*
X208803Y360111D01*
X209592Y359900D01*
X210408D01*
X211197Y360111D01*
X211903Y360519D01*
X212481Y361097D01*
X212889Y361803D01*
X213100Y362592D01*
Y363408D01*
X212889Y364197D01*
X212481Y364903D01*
X212236Y365148D01*
X212443Y365649D01*
X215693D01*
X215901Y365148D01*
X215655Y364903D01*
X215247Y364197D01*
X215036Y363408D01*
Y362592D01*
X215247Y361803D01*
X215655Y361097D01*
X216233Y360519D01*
X216940Y360111D01*
X217728Y359900D01*
X218544D01*
X218891Y359993D01*
X219220Y359563D01*
X219017Y359212D01*
X218806Y358423D01*
Y357607D01*
X219017Y356819D01*
X219426Y356112D01*
X220003Y355535D01*
X220710Y355127D01*
X221498Y354915D01*
X221845D01*
X222052Y354415D01*
X220528Y352892D01*
X217439D01*
X217438Y352892D01*
X217009Y352806D01*
X216645Y352563D01*
X216645Y352563D01*
X198309Y334226D01*
X198066Y333863D01*
X197988Y333473D01*
X179207Y314691D01*
X178964Y314328D01*
X178878Y313898D01*
X178878Y313898D01*
Y311909D01*
X178803Y311889D01*
X178097Y311481D01*
X177519Y310903D01*
X177111Y310197D01*
X176900Y309408D01*
Y308592D01*
X177111Y307803D01*
X177519Y307097D01*
X178097Y306519D01*
X178803Y306111D01*
X179592Y305900D01*
X180408D01*
X181197Y306111D01*
X181903Y306519D01*
X182481Y307097D01*
X182889Y307803D01*
X183100Y308592D01*
Y309408D01*
X182889Y310197D01*
X182481Y310903D01*
X181903Y311481D01*
X181197Y311889D01*
X181122Y311909D01*
Y313434D01*
X199895Y332207D01*
X199895Y332207D01*
X200138Y332571D01*
X200216Y332961D01*
X215400Y348146D01*
X215900Y347938D01*
Y347592D01*
X216111Y346803D01*
X216519Y346097D01*
X217097Y345519D01*
X217803Y345111D01*
X218592Y344900D01*
X219408D01*
X220019Y345064D01*
X240642Y324440D01*
X240642Y324440D01*
X241006Y324197D01*
X241435Y324112D01*
X262302D01*
X281819Y304595D01*
X281689Y304371D01*
X281447Y303468D01*
Y302532D01*
X281689Y301629D01*
X282157Y300819D01*
X282819Y300157D01*
X283629Y299689D01*
X284532Y299447D01*
X285468D01*
X286371Y299689D01*
X287181Y300157D01*
X287843Y300819D01*
X288311Y301629D01*
X288553Y302532D01*
Y303154D01*
X289053Y303361D01*
X290207Y302207D01*
X290207Y302207D01*
X290571Y301964D01*
X291000Y301878D01*
X294622D01*
X294689Y301629D01*
X295157Y300819D01*
X295819Y300157D01*
X296629Y299689D01*
X297532Y299447D01*
X298468D01*
X299371Y299689D01*
X300181Y300157D01*
X300843Y300819D01*
X301311Y301629D01*
X301553Y302532D01*
Y303468D01*
X301311Y304371D01*
X300843Y305181D01*
X300181Y305843D01*
X299371Y306311D01*
X299118Y306379D01*
X299184Y306878D01*
X305535D01*
X307819Y304595D01*
X307689Y304371D01*
X307447Y303468D01*
Y302532D01*
X307689Y301629D01*
X308157Y300819D01*
X308819Y300157D01*
X309629Y299689D01*
X310532Y299447D01*
X311468D01*
X312371Y299689D01*
X313181Y300157D01*
X313843Y300819D01*
X314311Y301629D01*
X314553Y302532D01*
Y303468D01*
X314311Y304371D01*
X313843Y305181D01*
X313181Y305843D01*
X312371Y306311D01*
X311468Y306553D01*
X310532D01*
X309629Y306311D01*
X309405Y306181D01*
X306793Y308793D01*
X306429Y309036D01*
X306000Y309122D01*
X306000Y309121D01*
X292465D01*
X270023Y331563D01*
X269659Y331806D01*
X269230Y331892D01*
X269230Y331892D01*
X251695D01*
X245850Y337736D01*
X245889Y337803D01*
X246100Y338592D01*
Y339408D01*
X245889Y340197D01*
X245481Y340903D01*
X244903Y341481D01*
X244197Y341889D01*
X243408Y342100D01*
X242592D01*
X241803Y341889D01*
X241097Y341481D01*
X240519Y340903D01*
X240111Y340197D01*
X239900Y339408D01*
Y338592D01*
X240111Y337803D01*
X240519Y337097D01*
X241097Y336519D01*
X241803Y336111D01*
X242592Y335900D01*
X243408D01*
X244197Y336111D01*
X244264Y336150D01*
X249830Y330584D01*
X249639Y330121D01*
X243465D01*
X234850Y338736D01*
X234889Y338803D01*
X235100Y339592D01*
Y340408D01*
X234889Y341197D01*
X234481Y341903D01*
X233903Y342481D01*
X233197Y342889D01*
X232408Y343100D01*
X231592D01*
X230803Y342889D01*
X230097Y342481D01*
X229519Y341903D01*
X229111Y341197D01*
X228900Y340408D01*
Y340062D01*
X228400Y339855D01*
X221728Y346526D01*
X221889Y346803D01*
X222100Y347592D01*
Y348408D01*
X221889Y349197D01*
X221481Y349903D01*
X221203Y350181D01*
X221368Y350723D01*
X221422Y350734D01*
X221785Y350977D01*
X225561Y354752D01*
X226023Y354561D01*
Y354518D01*
X226234Y353729D01*
X226642Y353022D01*
X227219Y352445D01*
X227926Y352037D01*
X228715Y351826D01*
X229531D01*
X230319Y352037D01*
X231026Y352445D01*
X231603Y353022D01*
X232011Y353729D01*
X232223Y354518D01*
Y355334D01*
X232011Y356122D01*
X231603Y356829D01*
X231026Y357406D01*
X230319Y357815D01*
X230199Y357847D01*
X230110Y358388D01*
X230119Y358395D01*
X253381Y381656D01*
X253381Y381656D01*
X253624Y382020D01*
X253709Y382450D01*
X253761Y382540D01*
X254550Y382751D01*
X255256Y383159D01*
X255834Y383736D01*
X256242Y384443D01*
X256453Y385231D01*
Y386048D01*
X256242Y386836D01*
X255834Y387543D01*
X255256Y388120D01*
X254550Y388528D01*
X253761Y388739D01*
X252945D01*
X252156Y388528D01*
X251449Y388120D01*
X250872Y387543D01*
X250464Y386836D01*
X250253Y386048D01*
Y385231D01*
X250464Y384443D01*
X250872Y383736D01*
X251274Y383334D01*
X251280Y382754D01*
X251262Y382710D01*
X231407Y362855D01*
X230907Y363062D01*
Y363408D01*
X230695Y364197D01*
X230287Y364903D01*
X229710Y365481D01*
X229003Y365889D01*
X228215Y366100D01*
X227398D01*
X226610Y365889D01*
X225903Y365481D01*
X225326Y364903D01*
X224918Y364197D01*
X224707Y363408D01*
Y362592D01*
X224918Y361803D01*
X225326Y361097D01*
X225903Y360519D01*
X226577Y360131D01*
X226659Y360043D01*
X226773Y359619D01*
X225456Y358303D01*
X224977Y358531D01*
X224795Y359212D01*
X224387Y359919D01*
X223810Y360496D01*
X223103Y360904D01*
X222314Y361115D01*
X221498D01*
X221151Y361022D01*
X220822Y361452D01*
X221025Y361803D01*
X221236Y362592D01*
Y363408D01*
X221025Y364197D01*
X220617Y364903D01*
X220342Y365178D01*
X220506Y365721D01*
X220571Y365734D01*
X220935Y365977D01*
X244641Y389683D01*
X255942D01*
X255962Y389608D01*
X256371Y388901D01*
X256948Y388324D01*
X257655Y387916D01*
X258443Y387704D01*
X259259D01*
X260048Y387916D01*
X260755Y388324D01*
X261332Y388901D01*
X261740Y389608D01*
X261951Y390396D01*
Y390501D01*
X262451Y390790D01*
X262755Y390615D01*
X263543Y390403D01*
X264359D01*
X265148Y390615D01*
X265855Y391023D01*
X266432Y391600D01*
X266840Y392307D01*
X267051Y393095D01*
Y393912D01*
X266840Y394700D01*
X266432Y395407D01*
X265855Y395984D01*
X265148Y396392D01*
X264359Y396603D01*
D02*
G37*
G36*
X297408Y399100D02*
X296592D01*
X295803Y398889D01*
X295097Y398481D01*
X294519Y397903D01*
X294111Y397197D01*
X293900Y396408D01*
Y395592D01*
X294111Y394803D01*
X294519Y394097D01*
X295097Y393519D01*
X295803Y393111D01*
X296592Y392900D01*
X297408D01*
X298197Y393111D01*
X298903Y393519D01*
X299481Y394097D01*
X299889Y394803D01*
X300100Y395592D01*
Y396408D01*
X299889Y397197D01*
X299481Y397903D01*
X298903Y398481D01*
X298197Y398889D01*
X297408Y399100D01*
D02*
G37*
G36*
X222408D02*
X221592D01*
X220803Y398889D01*
X220097Y398481D01*
X219519Y397903D01*
X219111Y397197D01*
X218900Y396408D01*
Y395592D01*
X219111Y394803D01*
X219519Y394097D01*
X220097Y393519D01*
X220803Y393111D01*
X221592Y392900D01*
X222408D01*
X223197Y393111D01*
X223903Y393519D01*
X224481Y394097D01*
X224889Y394803D01*
X225100Y395592D01*
Y396408D01*
X224889Y397197D01*
X224481Y397903D01*
X223903Y398481D01*
X223197Y398889D01*
X222408Y399100D01*
D02*
G37*
G36*
X189408Y395100D02*
X188592D01*
X187803Y394889D01*
X187097Y394481D01*
X186519Y393903D01*
X186111Y393197D01*
X185900Y392408D01*
Y391592D01*
X186111Y390803D01*
X186519Y390097D01*
X187097Y389519D01*
X187803Y389111D01*
X188592Y388900D01*
X189408D01*
X190197Y389111D01*
X190903Y389519D01*
X191481Y390097D01*
X191889Y390803D01*
X192100Y391592D01*
Y392408D01*
X191889Y393197D01*
X191481Y393903D01*
X190903Y394481D01*
X190197Y394889D01*
X189408Y395100D01*
D02*
G37*
G36*
X221197Y392100D02*
X220380D01*
X219592Y391889D01*
X218885Y391481D01*
X218308Y390903D01*
X217900Y390197D01*
X217688Y389408D01*
Y388592D01*
X217900Y387803D01*
X218308Y387097D01*
X218885Y386519D01*
X219592Y386111D01*
X220380Y385900D01*
X221197D01*
X221985Y386111D01*
X222692Y386519D01*
X223269Y387097D01*
X223677Y387803D01*
X223888Y388592D01*
Y389408D01*
X223677Y390197D01*
X223269Y390903D01*
X222692Y391481D01*
X221985Y391889D01*
X221197Y392100D01*
D02*
G37*
G36*
X196413Y391484D02*
X195597D01*
X194808Y391273D01*
X194101Y390865D01*
X193524Y390287D01*
X193116Y389580D01*
X192905Y388792D01*
Y387976D01*
X193116Y387187D01*
X193524Y386480D01*
X194101Y385903D01*
X194808Y385495D01*
X195597Y385284D01*
X196413D01*
X197201Y385495D01*
X197908Y385903D01*
X198485Y386480D01*
X198893Y387187D01*
X199105Y387976D01*
Y388792D01*
X198893Y389580D01*
X198485Y390287D01*
X197908Y390865D01*
X197201Y391273D01*
X196413Y391484D01*
D02*
G37*
G36*
X134408Y389100D02*
X133592D01*
X132803Y388889D01*
X132097Y388481D01*
X131519Y387903D01*
X131111Y387197D01*
X130900Y386408D01*
Y385592D01*
X131111Y384803D01*
X131519Y384097D01*
X132097Y383519D01*
X132803Y383111D01*
X133592Y382900D01*
X134408D01*
X135197Y383111D01*
X135903Y383519D01*
X136481Y384097D01*
X136889Y384803D01*
X137100Y385592D01*
Y386408D01*
X136889Y387197D01*
X136481Y387903D01*
X135903Y388481D01*
X135197Y388889D01*
X134408Y389100D01*
D02*
G37*
G36*
X268408Y388100D02*
X267592D01*
X266803Y387889D01*
X266097Y387481D01*
X265519Y386903D01*
X265111Y386197D01*
X264900Y385408D01*
Y384592D01*
X265111Y383803D01*
X265519Y383097D01*
X266097Y382519D01*
X266803Y382111D01*
X267592Y381900D01*
X268408D01*
X269197Y382111D01*
X269903Y382519D01*
X270481Y383097D01*
X270889Y383803D01*
X271100Y384592D01*
Y385408D01*
X270889Y386197D01*
X270481Y386903D01*
X269903Y387481D01*
X269197Y387889D01*
X268408Y388100D01*
D02*
G37*
G36*
X277408Y387100D02*
X276592D01*
X275803Y386889D01*
X275097Y386481D01*
X274519Y385903D01*
X274111Y385197D01*
X273900Y384408D01*
Y383592D01*
X274111Y382803D01*
X274519Y382097D01*
X275097Y381519D01*
X275803Y381111D01*
X276592Y380900D01*
X277408D01*
X278197Y381111D01*
X278903Y381519D01*
X279481Y382097D01*
X279889Y382803D01*
X280100Y383592D01*
Y384408D01*
X279889Y385197D01*
X279481Y385903D01*
X278903Y386481D01*
X278197Y386889D01*
X277408Y387100D01*
D02*
G37*
G36*
X187408Y384100D02*
X186592D01*
X185803Y383889D01*
X185097Y383481D01*
X184519Y382903D01*
X184111Y382197D01*
X183900Y381408D01*
Y380592D01*
X184111Y379803D01*
X184519Y379097D01*
X185097Y378519D01*
X185803Y378111D01*
X186592Y377900D01*
X187408D01*
X188197Y378111D01*
X188903Y378519D01*
X189481Y379097D01*
X189889Y379803D01*
X190100Y380592D01*
Y381408D01*
X189889Y382197D01*
X189481Y382903D01*
X188903Y383481D01*
X188197Y383889D01*
X187408Y384100D01*
D02*
G37*
G36*
X327468Y384553D02*
X326532D01*
X325629Y384311D01*
X324819Y383843D01*
X324157Y383181D01*
X323689Y382371D01*
X323447Y381468D01*
Y380532D01*
X323689Y379629D01*
X324157Y378819D01*
X324819Y378157D01*
X325629Y377689D01*
X326532Y377447D01*
X327468D01*
X328371Y377689D01*
X329181Y378157D01*
X329843Y378819D01*
X330311Y379629D01*
X330553Y380532D01*
Y381468D01*
X330311Y382371D01*
X329843Y383181D01*
X329181Y383843D01*
X328371Y384311D01*
X327468Y384553D01*
D02*
G37*
G36*
X159408Y382100D02*
X158592D01*
X157803Y381889D01*
X157097Y381481D01*
X156519Y380903D01*
X156111Y380197D01*
X155900Y379408D01*
Y378592D01*
X156111Y377803D01*
X156519Y377097D01*
X157097Y376519D01*
X157803Y376111D01*
X158592Y375900D01*
X159408D01*
X160197Y376111D01*
X160903Y376519D01*
X161481Y377097D01*
X161889Y377803D01*
X162100Y378592D01*
Y379408D01*
X161889Y380197D01*
X161481Y380903D01*
X160903Y381481D01*
X160197Y381889D01*
X159408Y382100D01*
D02*
G37*
G36*
X140531Y377100D02*
X139715D01*
X138926Y376889D01*
X138219Y376481D01*
X137642Y375903D01*
X137234Y375197D01*
X137023Y374408D01*
Y373592D01*
X137234Y372803D01*
X137642Y372097D01*
X138219Y371519D01*
X138926Y371111D01*
X139715Y370900D01*
X140531D01*
X141319Y371111D01*
X142026Y371519D01*
X142603Y372097D01*
X143011Y372803D01*
X143223Y373592D01*
Y374408D01*
X143011Y375197D01*
X142603Y375903D01*
X142026Y376481D01*
X141319Y376889D01*
X140531Y377100D01*
D02*
G37*
G36*
X262603Y375852D02*
X261787D01*
X260998Y375641D01*
X260291Y375233D01*
X259714Y374656D01*
X259306Y373949D01*
X259095Y373160D01*
Y372344D01*
X259306Y371556D01*
X259714Y370849D01*
X260291Y370272D01*
X260998Y369864D01*
X261787Y369652D01*
X262603D01*
X263391Y369864D01*
X264098Y370272D01*
X264675Y370849D01*
X265084Y371556D01*
X265295Y372344D01*
Y373160D01*
X265084Y373949D01*
X264675Y374656D01*
X264098Y375233D01*
X263391Y375641D01*
X262603Y375852D01*
D02*
G37*
G36*
X327468Y372553D02*
X326532D01*
X325629Y372311D01*
X324819Y371843D01*
X324157Y371181D01*
X323689Y370371D01*
X323447Y369468D01*
Y368532D01*
X323689Y367629D01*
X324157Y366819D01*
X324819Y366157D01*
X325629Y365689D01*
X326532Y365447D01*
X327468D01*
X328371Y365689D01*
X329181Y366157D01*
X329843Y366819D01*
X330311Y367629D01*
X330553Y368532D01*
Y369468D01*
X330311Y370371D01*
X329843Y371181D01*
X329181Y371843D01*
X328371Y372311D01*
X327468Y372553D01*
D02*
G37*
G36*
X240175Y359665D02*
X239359D01*
X238570Y359453D01*
X237863Y359045D01*
X237286Y358468D01*
X236878Y357761D01*
X236667Y356973D01*
Y356156D01*
X236878Y355368D01*
X237286Y354661D01*
X237863Y354084D01*
X238570Y353676D01*
X239359Y353465D01*
X240175D01*
X240964Y353676D01*
X241670Y354084D01*
X242248Y354661D01*
X242656Y355368D01*
X242867Y356156D01*
Y356973D01*
X242656Y357761D01*
X242248Y358468D01*
X241670Y359045D01*
X240964Y359453D01*
X240175Y359665D01*
D02*
G37*
G36*
X327468Y360553D02*
X326532D01*
X325629Y360311D01*
X324819Y359843D01*
X324157Y359181D01*
X323689Y358371D01*
X323447Y357468D01*
Y356532D01*
X323689Y355629D01*
X324157Y354819D01*
X324819Y354157D01*
X325629Y353689D01*
X326532Y353447D01*
X327468D01*
X328371Y353689D01*
X329181Y354157D01*
X329843Y354819D01*
X330311Y355629D01*
X330553Y356532D01*
Y357468D01*
X330311Y358371D01*
X329843Y359181D01*
X329181Y359843D01*
X328371Y360311D01*
X327468Y360553D01*
D02*
G37*
G36*
X185408Y359100D02*
X184592D01*
X183803Y358889D01*
X183097Y358481D01*
X182519Y357903D01*
X182111Y357197D01*
X181900Y356408D01*
Y355592D01*
X182111Y354803D01*
X182519Y354097D01*
X183097Y353519D01*
X183803Y353111D01*
X184592Y352900D01*
X185408D01*
X186197Y353111D01*
X186903Y353519D01*
X187481Y354097D01*
X187889Y354803D01*
X188100Y355592D01*
Y356408D01*
X187889Y357197D01*
X187481Y357903D01*
X186903Y358481D01*
X186197Y358889D01*
X185408Y359100D01*
D02*
G37*
G36*
X436048Y358417D02*
X435148D01*
X434279Y358184D01*
X433500Y357734D01*
X432864Y357098D01*
X432414Y356319D01*
X432182Y355450D01*
Y354550D01*
X432414Y353681D01*
X432864Y352902D01*
X433500Y352266D01*
X434279Y351816D01*
X435148Y351583D01*
X436048D01*
X436917Y351816D01*
X437696Y352266D01*
X438333Y352902D01*
X438783Y353681D01*
X439015Y354550D01*
Y355450D01*
X438783Y356319D01*
X438333Y357098D01*
X437696Y357734D01*
X436917Y358184D01*
X436048Y358417D01*
D02*
G37*
G36*
X428147D02*
X427247D01*
X426378Y358184D01*
X425599Y357734D01*
X424963Y357098D01*
X424513Y356319D01*
X424280Y355450D01*
Y354550D01*
X424513Y353681D01*
X424963Y352902D01*
X425599Y352266D01*
X426378Y351816D01*
X427247Y351583D01*
X428147D01*
X429016Y351816D01*
X429795Y352266D01*
X430431Y352902D01*
X430881Y353681D01*
X431114Y354550D01*
Y355450D01*
X430881Y356319D01*
X430431Y357098D01*
X429795Y357734D01*
X429016Y358184D01*
X428147Y358417D01*
D02*
G37*
G36*
X420249D02*
X419349D01*
X418480Y358184D01*
X417701Y357734D01*
X417065Y357098D01*
X416615Y356319D01*
X416382Y355450D01*
Y354550D01*
X416615Y353681D01*
X417065Y352902D01*
X417701Y352266D01*
X418480Y351816D01*
X419349Y351583D01*
X420249D01*
X421118Y351816D01*
X421897Y352266D01*
X422533Y352902D01*
X422983Y353681D01*
X423216Y354550D01*
Y355450D01*
X422983Y356319D01*
X422533Y357098D01*
X421897Y357734D01*
X421118Y358184D01*
X420249Y358417D01*
D02*
G37*
G36*
X412348D02*
X411448D01*
X410579Y358184D01*
X409800Y357734D01*
X409163Y357098D01*
X408713Y356319D01*
X408481Y355450D01*
Y354550D01*
X408713Y353681D01*
X409163Y352902D01*
X409800Y352266D01*
X410579Y351816D01*
X411448Y351583D01*
X412348D01*
X413216Y351816D01*
X413996Y352266D01*
X414632Y352902D01*
X415082Y353681D01*
X415314Y354550D01*
Y355450D01*
X415082Y356319D01*
X414632Y357098D01*
X413996Y357734D01*
X413216Y358184D01*
X412348Y358417D01*
D02*
G37*
G36*
X404450D02*
X403550D01*
X402681Y358184D01*
X401902Y357734D01*
X401266Y357098D01*
X400816Y356319D01*
X400583Y355450D01*
Y354550D01*
X400816Y353681D01*
X401266Y352902D01*
X401902Y352266D01*
X402681Y351816D01*
X403550Y351583D01*
X404450D01*
X405319Y351816D01*
X406098Y352266D01*
X406734Y352902D01*
X407184Y353681D01*
X407417Y354550D01*
Y355450D01*
X407184Y356319D01*
X406734Y357098D01*
X406098Y357734D01*
X405319Y358184D01*
X404450Y358417D01*
D02*
G37*
G36*
X396548D02*
X395649D01*
X394779Y358184D01*
X394000Y357734D01*
X393364Y357098D01*
X392914Y356319D01*
X392682Y355450D01*
Y354550D01*
X392914Y353681D01*
X393364Y352902D01*
X394000Y352266D01*
X394779Y351816D01*
X395649Y351583D01*
X396548D01*
X397417Y351816D01*
X398196Y352266D01*
X398833Y352902D01*
X399283Y353681D01*
X399515Y354550D01*
Y355450D01*
X399283Y356319D01*
X398833Y357098D01*
X398196Y357734D01*
X397417Y358184D01*
X396548Y358417D01*
D02*
G37*
G36*
X388647D02*
X387747D01*
X386878Y358184D01*
X386099Y357734D01*
X385463Y357098D01*
X385013Y356319D01*
X384780Y355450D01*
Y354550D01*
X385013Y353681D01*
X385463Y352902D01*
X386099Y352266D01*
X386878Y351816D01*
X387747Y351583D01*
X388647D01*
X389516Y351816D01*
X390295Y352266D01*
X390931Y352902D01*
X391381Y353681D01*
X391614Y354550D01*
Y355450D01*
X391381Y356319D01*
X390931Y357098D01*
X390295Y357734D01*
X389516Y358184D01*
X388647Y358417D01*
D02*
G37*
G36*
X380749D02*
X379849D01*
X378980Y358184D01*
X378201Y357734D01*
X377565Y357098D01*
X377115Y356319D01*
X376882Y355450D01*
Y354550D01*
X377115Y353681D01*
X377565Y352902D01*
X378201Y352266D01*
X378980Y351816D01*
X379849Y351583D01*
X380749D01*
X381618Y351816D01*
X382397Y352266D01*
X383033Y352902D01*
X383483Y353681D01*
X383716Y354550D01*
Y355450D01*
X383483Y356319D01*
X383033Y357098D01*
X382397Y357734D01*
X381618Y358184D01*
X380749Y358417D01*
D02*
G37*
G36*
X372847D02*
X371948D01*
X371079Y358184D01*
X370300Y357734D01*
X369663Y357098D01*
X369214Y356319D01*
X368981Y355450D01*
Y354550D01*
X369214Y353681D01*
X369663Y352902D01*
X370300Y352266D01*
X371079Y351816D01*
X371948Y351583D01*
X372847D01*
X373716Y351816D01*
X374496Y352266D01*
X375132Y352902D01*
X375582Y353681D01*
X375815Y354550D01*
Y355450D01*
X375582Y356319D01*
X375132Y357098D01*
X374496Y357734D01*
X373716Y358184D01*
X372847Y358417D01*
D02*
G37*
G36*
X364950D02*
X364050D01*
X363181Y358184D01*
X362402Y357734D01*
X361766Y357098D01*
X361316Y356319D01*
X361083Y355450D01*
Y354550D01*
X361316Y353681D01*
X361766Y352902D01*
X362402Y352266D01*
X363181Y351816D01*
X364050Y351583D01*
X364950D01*
X365819Y351816D01*
X366598Y352266D01*
X367234Y352902D01*
X367684Y353681D01*
X367917Y354550D01*
Y355450D01*
X367684Y356319D01*
X367234Y357098D01*
X366598Y357734D01*
X365819Y358184D01*
X364950Y358417D01*
D02*
G37*
G36*
X206408Y355100D02*
X205592D01*
X204803Y354889D01*
X204097Y354481D01*
X203519Y353903D01*
X203111Y353197D01*
X202900Y352408D01*
Y351592D01*
X203111Y350803D01*
X203519Y350097D01*
X204097Y349519D01*
X204803Y349111D01*
X205592Y348900D01*
X206408D01*
X207197Y349111D01*
X207903Y349519D01*
X208481Y350097D01*
X208889Y350803D01*
X209100Y351592D01*
Y352408D01*
X208889Y353197D01*
X208481Y353903D01*
X207903Y354481D01*
X207197Y354889D01*
X206408Y355100D01*
D02*
G37*
G36*
X139408Y351100D02*
X138592D01*
X137803Y350889D01*
X137097Y350481D01*
X136519Y349903D01*
X136111Y349197D01*
X135900Y348408D01*
Y347592D01*
X136111Y346803D01*
X136519Y346097D01*
X137097Y345519D01*
X137803Y345111D01*
X138592Y344900D01*
X139408D01*
X140197Y345111D01*
X140903Y345519D01*
X141481Y346097D01*
X141889Y346803D01*
X142100Y347592D01*
Y348408D01*
X141889Y349197D01*
X141481Y349903D01*
X140903Y350481D01*
X140197Y350889D01*
X139408Y351100D01*
D02*
G37*
G36*
X189408Y347100D02*
X188592D01*
X187803Y346889D01*
X187097Y346481D01*
X186519Y345903D01*
X186111Y345197D01*
X185900Y344408D01*
Y343592D01*
X186069Y342963D01*
X185688Y342623D01*
X185670Y342615D01*
X185197Y342889D01*
X184408Y343100D01*
X183592D01*
X182803Y342889D01*
X182097Y342481D01*
X181519Y341903D01*
X181111Y341197D01*
X180900Y340408D01*
Y339592D01*
X181111Y338803D01*
X181519Y338097D01*
X182097Y337519D01*
X182803Y337111D01*
X183592Y336900D01*
X184408D01*
X185197Y337111D01*
X185903Y337519D01*
X186481Y338097D01*
X186889Y338803D01*
X187100Y339592D01*
Y340408D01*
X186931Y341037D01*
X187312Y341377D01*
X187330Y341385D01*
X187803Y341111D01*
X188592Y340900D01*
X189408D01*
X190197Y341111D01*
X190903Y341519D01*
X191481Y342097D01*
X191889Y342803D01*
X192100Y343592D01*
Y344408D01*
X191889Y345197D01*
X191481Y345903D01*
X190903Y346481D01*
X190197Y346889D01*
X189408Y347100D01*
D02*
G37*
G36*
X327468Y348553D02*
X326532D01*
X325629Y348311D01*
X324819Y347843D01*
X324157Y347181D01*
X323689Y346371D01*
X323447Y345468D01*
Y344532D01*
X323689Y343629D01*
X324157Y342819D01*
X324819Y342157D01*
X325629Y341689D01*
X326532Y341447D01*
X327468D01*
X328371Y341689D01*
X329181Y342157D01*
X329843Y342819D01*
X330311Y343629D01*
X330553Y344532D01*
Y345468D01*
X330311Y346371D01*
X329843Y347181D01*
X329181Y347843D01*
X328371Y348311D01*
X327468Y348553D01*
D02*
G37*
G36*
X141408Y332100D02*
X140592D01*
X139803Y331889D01*
X139097Y331481D01*
X138519Y330903D01*
X138111Y330197D01*
X137900Y329408D01*
Y328592D01*
X138111Y327803D01*
X138519Y327097D01*
X139097Y326519D01*
X139803Y326111D01*
X140592Y325900D01*
X141408D01*
X142197Y326111D01*
X142903Y326519D01*
X143481Y327097D01*
X143889Y327803D01*
X144100Y328592D01*
Y329408D01*
X143889Y330197D01*
X143481Y330903D01*
X142903Y331481D01*
X142197Y331889D01*
X141408Y332100D01*
D02*
G37*
G36*
X205408Y328100D02*
X204592D01*
X203803Y327889D01*
X203097Y327481D01*
X202519Y326903D01*
X202111Y326197D01*
X201900Y325408D01*
Y324592D01*
X202111Y323803D01*
X202519Y323097D01*
X203097Y322519D01*
X203803Y322111D01*
X204592Y321900D01*
X205408D01*
X206197Y322111D01*
X206903Y322519D01*
X207481Y323097D01*
X207889Y323803D01*
X208100Y324592D01*
Y325408D01*
X207889Y326197D01*
X207481Y326903D01*
X206903Y327481D01*
X206197Y327889D01*
X205408Y328100D01*
D02*
G37*
G36*
X118468Y328553D02*
X117532D01*
X116629Y328311D01*
X115819Y327843D01*
X115157Y327181D01*
X114689Y326371D01*
X114447Y325468D01*
Y324532D01*
X114689Y323629D01*
X115157Y322819D01*
X115819Y322157D01*
X116629Y321689D01*
X117532Y321447D01*
X118468D01*
X119371Y321689D01*
X120181Y322157D01*
X120843Y322819D01*
X121311Y323629D01*
X121553Y324532D01*
Y325468D01*
X121311Y326371D01*
X120843Y327181D01*
X120181Y327843D01*
X119371Y328311D01*
X118468Y328553D01*
D02*
G37*
G36*
X253408Y323100D02*
X252592D01*
X251803Y322889D01*
X251097Y322481D01*
X250519Y321903D01*
X250111Y321197D01*
X249900Y320408D01*
Y319592D01*
X250111Y318803D01*
X250519Y318097D01*
X251097Y317519D01*
X251803Y317111D01*
X252592Y316900D01*
X253408D01*
X254197Y317111D01*
X254903Y317519D01*
X255481Y318097D01*
X255889Y318803D01*
X256100Y319592D01*
Y320408D01*
X255889Y321197D01*
X255481Y321903D01*
X254903Y322481D01*
X254197Y322889D01*
X253408Y323100D01*
D02*
G37*
G36*
X229408Y316100D02*
X228592D01*
X227803Y315889D01*
X227097Y315481D01*
X226519Y314903D01*
X226111Y314197D01*
X225900Y313408D01*
Y312592D01*
X226111Y311803D01*
X226519Y311097D01*
X227097Y310519D01*
X227803Y310111D01*
X228592Y309900D01*
X229408D01*
X230197Y310111D01*
X230903Y310519D01*
X231481Y311097D01*
X231889Y311803D01*
X232100Y312592D01*
Y313408D01*
X231889Y314197D01*
X231481Y314903D01*
X230903Y315481D01*
X230197Y315889D01*
X229408Y316100D01*
D02*
G37*
G36*
X118468Y315553D02*
X117532D01*
X116629Y315311D01*
X115819Y314843D01*
X115157Y314181D01*
X114689Y313371D01*
X114447Y312468D01*
Y311532D01*
X114689Y310629D01*
X115157Y309819D01*
X115819Y309157D01*
X116629Y308689D01*
X117532Y308447D01*
X118468D01*
X119371Y308689D01*
X120181Y309157D01*
X120843Y309819D01*
X121311Y310629D01*
X121553Y311532D01*
Y312468D01*
X121311Y313371D01*
X120843Y314181D01*
X120181Y314843D01*
X119371Y315311D01*
X118468Y315553D01*
D02*
G37*
G36*
X160408Y310100D02*
X159592D01*
X158803Y309889D01*
X158097Y309481D01*
X157519Y308903D01*
X157111Y308197D01*
X156900Y307408D01*
Y306592D01*
X157111Y305803D01*
X157519Y305097D01*
X158097Y304519D01*
X158803Y304111D01*
X159592Y303900D01*
X160408D01*
X161197Y304111D01*
X161903Y304519D01*
X162481Y305097D01*
X162889Y305803D01*
X163100Y306592D01*
Y307408D01*
X162889Y308197D01*
X162481Y308903D01*
X161903Y309481D01*
X161197Y309889D01*
X160408Y310100D01*
D02*
G37*
G36*
X181901Y305100D02*
X181085D01*
X180296Y304889D01*
X179589Y304481D01*
X179012Y303903D01*
X178604Y303197D01*
X178393Y302408D01*
Y301592D01*
X178604Y300803D01*
X179012Y300097D01*
X179589Y299519D01*
X180296Y299111D01*
X181085Y298900D01*
X181901D01*
X182689Y299111D01*
X183396Y299519D01*
X183974Y300097D01*
X184382Y300803D01*
X184593Y301592D01*
Y302408D01*
X184382Y303197D01*
X183974Y303903D01*
X183396Y304481D01*
X182689Y304889D01*
X181901Y305100D01*
D02*
G37*
G36*
X118468Y302553D02*
X117532D01*
X116629Y302311D01*
X115819Y301843D01*
X115157Y301181D01*
X114689Y300371D01*
X114447Y299468D01*
Y298532D01*
X114689Y297629D01*
X115157Y296819D01*
X115819Y296157D01*
X116629Y295689D01*
X117532Y295447D01*
X118468D01*
X119371Y295689D01*
X120181Y296157D01*
X120843Y296819D01*
X121311Y297629D01*
X121553Y298532D01*
Y299468D01*
X121311Y300371D01*
X120843Y301181D01*
X120181Y301843D01*
X119371Y302311D01*
X118468Y302553D01*
D02*
G37*
G36*
X189408Y301100D02*
X188592D01*
X187803Y300889D01*
X187097Y300481D01*
X186519Y299903D01*
X186111Y299197D01*
X185900Y298408D01*
Y297592D01*
X186111Y296803D01*
X186519Y296097D01*
X187097Y295519D01*
X187803Y295111D01*
X188592Y294900D01*
X189408D01*
X190197Y295111D01*
X190903Y295519D01*
X191481Y296097D01*
X191889Y296803D01*
X192100Y297592D01*
Y298408D01*
X191889Y299197D01*
X191481Y299903D01*
X190903Y300481D01*
X190197Y300889D01*
X189408Y301100D01*
D02*
G37*
G36*
X167468Y286553D02*
X166532D01*
X165629Y286311D01*
X164819Y285843D01*
X164157Y285181D01*
X163689Y284371D01*
X163447Y283468D01*
Y282532D01*
X163689Y281629D01*
X164157Y280819D01*
X164819Y280157D01*
X165629Y279689D01*
X166532Y279447D01*
X167468D01*
X168371Y279689D01*
X169181Y280157D01*
X169843Y280819D01*
X170311Y281629D01*
X170553Y282532D01*
Y283468D01*
X170311Y284371D01*
X169843Y285181D01*
X169181Y285843D01*
X168371Y286311D01*
X167468Y286553D01*
D02*
G37*
G36*
X154468D02*
X153532D01*
X152629Y286311D01*
X151819Y285843D01*
X151157Y285181D01*
X150689Y284371D01*
X150447Y283468D01*
Y282532D01*
X150689Y281629D01*
X151157Y280819D01*
X151819Y280157D01*
X152629Y279689D01*
X153532Y279447D01*
X154468D01*
X155371Y279689D01*
X156181Y280157D01*
X156843Y280819D01*
X157311Y281629D01*
X157553Y282532D01*
Y283468D01*
X157311Y284371D01*
X156843Y285181D01*
X156181Y285843D01*
X155371Y286311D01*
X154468Y286553D01*
D02*
G37*
G36*
X180468Y286553D02*
X179532D01*
X178629Y286311D01*
X177819Y285843D01*
X177157Y285181D01*
X176689Y284371D01*
X176447Y283468D01*
Y282532D01*
X176689Y281629D01*
X177157Y280819D01*
X177819Y280157D01*
X178629Y279689D01*
X179532Y279447D01*
X180468D01*
X181371Y279689D01*
X182181Y280157D01*
X182843Y280819D01*
X183311Y281629D01*
X183553Y282532D01*
Y283468D01*
X183311Y284371D01*
X182843Y285181D01*
X182181Y285843D01*
X181371Y286311D01*
X180468Y286553D01*
D02*
G37*
G36*
X251408Y277100D02*
X250592D01*
X249803Y276889D01*
X249097Y276481D01*
X248519Y275903D01*
X248111Y275197D01*
X247900Y274408D01*
Y273592D01*
X248111Y272803D01*
X248519Y272097D01*
X249097Y271519D01*
X249803Y271111D01*
X250592Y270900D01*
X251408D01*
X252197Y271111D01*
X252903Y271519D01*
X253481Y272097D01*
X253889Y272803D01*
X254100Y273592D01*
Y274408D01*
X253889Y275197D01*
X253481Y275903D01*
X252903Y276481D01*
X252197Y276889D01*
X251408Y277100D01*
D02*
G37*
G36*
X230408Y261100D02*
X229592D01*
X228803Y260889D01*
X228097Y260481D01*
X227519Y259903D01*
X227111Y259197D01*
X226900Y258408D01*
Y257592D01*
X227111Y256803D01*
X227519Y256097D01*
X228097Y255519D01*
X228803Y255111D01*
X229592Y254900D01*
X230408D01*
X231197Y255111D01*
X231903Y255519D01*
X232481Y256097D01*
X232889Y256803D01*
X233100Y257592D01*
Y258408D01*
X232889Y259197D01*
X232481Y259903D01*
X231903Y260481D01*
X231197Y260889D01*
X230408Y261100D01*
D02*
G37*
G36*
X210408Y260100D02*
X209592D01*
X208803Y259889D01*
X208097Y259481D01*
X207519Y258903D01*
X207111Y258197D01*
X206900Y257408D01*
Y256592D01*
X207111Y255803D01*
X207519Y255097D01*
X208097Y254519D01*
X208803Y254111D01*
X209592Y253900D01*
X210408D01*
X211197Y254111D01*
X211903Y254519D01*
X212481Y255097D01*
X212889Y255803D01*
X213100Y256592D01*
Y257408D01*
X212889Y258197D01*
X212481Y258903D01*
X211903Y259481D01*
X211197Y259889D01*
X210408Y260100D01*
D02*
G37*
G36*
X441468Y258553D02*
X440532D01*
X439629Y258311D01*
X438819Y257843D01*
X438157Y257181D01*
X437689Y256371D01*
X437447Y255468D01*
Y254532D01*
X437689Y253629D01*
X438157Y252819D01*
X438819Y252157D01*
X439629Y251689D01*
X440532Y251447D01*
X441468D01*
X442371Y251689D01*
X443181Y252157D01*
X443843Y252819D01*
X444311Y253629D01*
X444553Y254532D01*
Y255468D01*
X444311Y256371D01*
X443843Y257181D01*
X443181Y257843D01*
X442371Y258311D01*
X441468Y258553D01*
D02*
G37*
G36*
X138468D02*
X137532D01*
X136629Y258311D01*
X135819Y257843D01*
X135157Y257181D01*
X134689Y256371D01*
X134447Y255468D01*
Y254532D01*
X134689Y253629D01*
X135157Y252819D01*
X135819Y252157D01*
X136629Y251689D01*
X137532Y251447D01*
X138468D01*
X139371Y251689D01*
X140181Y252157D01*
X140843Y252819D01*
X141311Y253629D01*
X141553Y254532D01*
Y255468D01*
X141311Y256371D01*
X140843Y257181D01*
X140181Y257843D01*
X139371Y258311D01*
X138468Y258553D01*
D02*
G37*
G36*
X310468Y255553D02*
X309532D01*
X308629Y255311D01*
X307819Y254843D01*
X307157Y254181D01*
X306689Y253371D01*
X306447Y252468D01*
Y251532D01*
X306689Y250629D01*
X307157Y249819D01*
X307819Y249157D01*
X308629Y248689D01*
X309532Y248447D01*
X310468D01*
X311371Y248689D01*
X312181Y249157D01*
X312843Y249819D01*
X313311Y250629D01*
X313553Y251532D01*
Y252468D01*
X313311Y253371D01*
X312843Y254181D01*
X312181Y254843D01*
X311371Y255311D01*
X310468Y255553D01*
D02*
G37*
G36*
X297468D02*
X296532D01*
X295629Y255311D01*
X294819Y254843D01*
X294157Y254181D01*
X293689Y253371D01*
X293447Y252468D01*
Y251532D01*
X293689Y250629D01*
X294157Y249819D01*
X294819Y249157D01*
X295629Y248689D01*
X296532Y248447D01*
X297468D01*
X298371Y248689D01*
X299181Y249157D01*
X299843Y249819D01*
X300311Y250629D01*
X300553Y251532D01*
Y252468D01*
X300311Y253371D01*
X299843Y254181D01*
X299181Y254843D01*
X298371Y255311D01*
X297468Y255553D01*
D02*
G37*
G36*
X284468D02*
X283532D01*
X282629Y255311D01*
X281819Y254843D01*
X281157Y254181D01*
X280689Y253371D01*
X280447Y252468D01*
Y251532D01*
X280689Y250629D01*
X281157Y249819D01*
X281819Y249157D01*
X282629Y248689D01*
X283532Y248447D01*
X284468D01*
X285371Y248689D01*
X286181Y249157D01*
X286843Y249819D01*
X287311Y250629D01*
X287553Y251532D01*
Y252468D01*
X287311Y253371D01*
X286843Y254181D01*
X286181Y254843D01*
X285371Y255311D01*
X284468Y255553D01*
D02*
G37*
G36*
X239408Y251100D02*
X238592D01*
X237803Y250889D01*
X237097Y250481D01*
X236519Y249903D01*
X236111Y249197D01*
X235900Y248408D01*
Y247592D01*
X236111Y246803D01*
X236519Y246097D01*
X237097Y245519D01*
X237803Y245111D01*
X238592Y244900D01*
X239408D01*
X240197Y245111D01*
X240903Y245519D01*
X241481Y246097D01*
X241889Y246803D01*
X242100Y247592D01*
Y248408D01*
X241889Y249197D01*
X241481Y249903D01*
X240903Y250481D01*
X240197Y250889D01*
X239408Y251100D01*
D02*
G37*
G36*
X118477Y267411D02*
X116523D01*
X114594Y267105D01*
X112736Y266502D01*
X110995Y265615D01*
X109415Y264467D01*
X108033Y263085D01*
X106885Y261505D01*
X105998Y259764D01*
X105395Y257906D01*
X105089Y255977D01*
Y254023D01*
X105395Y252094D01*
X105998Y250236D01*
X106885Y248495D01*
X108033Y246915D01*
X109415Y245533D01*
X110995Y244385D01*
X112736Y243498D01*
X114594Y242895D01*
X116523Y242589D01*
X118477D01*
X120406Y242895D01*
X122264Y243498D01*
X124005Y244385D01*
X125585Y245533D01*
X126967Y246915D01*
X128115Y248495D01*
X129002Y250236D01*
X129605Y252094D01*
X129911Y254023D01*
Y255977D01*
X129605Y257906D01*
X129002Y259764D01*
X128115Y261505D01*
X126967Y263085D01*
X125585Y264467D01*
X124005Y265615D01*
X122264Y266502D01*
X120406Y267105D01*
X118477Y267411D01*
D02*
G37*
%LPD*%
G36*
X242207Y328207D02*
X242571Y327964D01*
X243000Y327878D01*
X243000Y327878D01*
X264535D01*
X285361Y307053D01*
X285154Y306553D01*
X284532D01*
X283629Y306311D01*
X283405Y306181D01*
X263560Y326026D01*
X263196Y326269D01*
X262767Y326355D01*
X262767Y326355D01*
X241900D01*
X231855Y336400D01*
X232062Y336900D01*
X232408D01*
X233197Y337111D01*
X233264Y337150D01*
X242207Y328207D01*
D02*
G37*
G36*
X291207Y307207D02*
X291207Y307207D01*
X291571Y306964D01*
X292000Y306878D01*
X296816D01*
X296882Y306379D01*
X296629Y306311D01*
X295819Y305843D01*
X295157Y305181D01*
X294689Y304371D01*
X294622Y304121D01*
X291465D01*
X266400Y329187D01*
X266591Y329648D01*
X268765D01*
X291207Y307207D01*
D02*
G37*
D14*
X306000Y308000D02*
X311000Y303000D01*
X292000Y308000D02*
X306000D01*
X269230Y330770D02*
X292000Y308000D01*
X251230Y330770D02*
X269230D01*
X243000Y339000D02*
X251230Y330770D01*
X243000Y329000D02*
X265000D01*
X291000Y303000D01*
X232000Y340000D02*
X243000Y329000D01*
X291000Y303000D02*
X298000D01*
X241435Y325233D02*
X262767D01*
X285000Y303000D01*
X219000Y347668D02*
Y348000D01*
Y347668D02*
X241435Y325233D01*
X180000Y313898D02*
X199102Y333000D01*
X217438Y351770D02*
X220992D01*
X199102Y333434D02*
X217438Y351770D01*
X199102Y333000D02*
Y333434D01*
X176904Y364460D02*
X205295D01*
X175765Y363321D02*
X176904Y364460D01*
X175765Y360765D02*
Y363321D01*
X175000Y360000D02*
X175765Y360765D01*
X252588Y382450D02*
Y384874D01*
X253353Y385640D01*
X227927Y359188D02*
X229326D01*
X252588Y382450D01*
X225676Y356454D02*
Y356937D01*
X227927Y359188D01*
X220992Y351770D02*
X225676Y356454D01*
X205295Y364460D02*
X207605Y366770D01*
X154898Y366230D02*
X204562D01*
X206872Y368540D01*
X207605Y366770D02*
X220142D01*
X206872Y368540D02*
X219409D01*
X220142Y366770D02*
X244177Y390804D01*
X219409Y368540D02*
X236000Y385131D01*
Y391000D01*
X244177Y390804D02*
X258851D01*
X180000Y309000D02*
Y313898D01*
X145958Y357289D02*
X154898Y366230D01*
X131255Y357289D02*
X145958D01*
D74*
X341000Y477000D02*
D03*
X298000Y303000D02*
D03*
X285000D02*
D03*
X311000D02*
D03*
D76*
X242000Y483000D02*
D03*
D78*
X435598Y441598D02*
D03*
D80*
X210000Y415000D02*
D03*
X403576Y490522D02*
D03*
X109000Y349000D02*
D03*
X120000Y352000D02*
D03*
X300000Y453000D02*
D03*
X142000Y381000D02*
D03*
X330000Y434600D02*
D03*
X127000Y386000D02*
D03*
X327012Y404616D02*
D03*
X243000Y339000D02*
D03*
X175000Y360000D02*
D03*
X219000Y348000D02*
D03*
X247000Y356000D02*
D03*
X253353Y385640D02*
D03*
X258851Y390804D02*
D03*
X180000Y309000D02*
D03*
X236000Y391000D02*
D03*
X153000Y359000D02*
D03*
X131255Y357289D02*
D03*
X194770Y334000D02*
D03*
X232000Y340000D02*
D03*
X289000Y396000D02*
D03*
X243770Y284000D02*
D03*
X253599Y259827D02*
D03*
X203000Y310000D02*
D03*
X262000Y408000D02*
D03*
X196000Y398000D02*
D03*
Y375000D02*
D03*
X408096Y458740D02*
D03*
X412000Y334000D02*
D03*
X273000Y412000D02*
D03*
M02*
