G04*
G04 #@! TF.GenerationSoftware,Altium Limited,Altium Designer,22.10.1 (41)*
G04*
G04 Layer_Physical_Order=4*
G04 Layer_Color=16711680*
%FSLAX25Y25*%
%MOIN*%
G70*
G04*
G04 #@! TF.SameCoordinates,49C2D000-8325-4097-923D-366AA4D3C581*
G04*
G04*
G04 #@! TF.FilePolarity,Positive*
G04*
G01*
G75*
%ADD14C,0.01000*%
%ADD73C,0.23622*%
%ADD74C,0.05906*%
%ADD75R,0.06496X0.06496*%
%ADD76C,0.06496*%
%ADD77R,0.05906X0.05906*%
%ADD78R,0.05634X0.05634*%
%ADD79C,0.05634*%
%ADD80C,0.05000*%
D14*
X360862Y353138D02*
X361325Y352426D01*
X361926Y351825D01*
X362638Y351362D01*
X362824Y351176D02*
X362824Y351176D01*
X139770Y401770D02*
Y402230D01*
X136905Y399307D02*
X137307D01*
X139000Y401000D02*
X139770Y401770D01*
X139000Y401000D02*
X140735Y399265D01*
X137307Y399307D02*
X139000Y401000D01*
X139770Y402230D02*
X140540Y403000D01*
X140735Y399265D02*
X169597D01*
X172102Y401770D01*
X211601Y423600D02*
X221491D01*
X209001Y421000D02*
X211601Y423600D01*
X221491D02*
X224897Y420194D01*
Y416246D02*
Y420194D01*
Y416246D02*
X229160Y411983D01*
X197000Y421000D02*
X209001D01*
X115000Y413000D02*
Y423260D01*
Y405000D02*
Y413000D01*
X121661Y419661D01*
Y440392D01*
X128321Y447053D01*
X160947D01*
X181000Y427000D01*
X156000Y407770D02*
Y443000D01*
X232350Y434000D02*
X236739Y429611D01*
X231611Y430000D02*
X237830Y423780D01*
X236739Y429611D02*
X237091D01*
X209268Y430000D02*
X231611D01*
X242913Y423500D02*
X243413Y423000D01*
X239134Y423500D02*
X242913D01*
X243413Y423000D02*
X343898D01*
X237830Y423780D02*
X238913D01*
X238883Y423751D02*
X239134Y423500D01*
X222261Y427000D02*
X228497Y420764D01*
X221000Y438000D02*
X235862D01*
X233000Y447000D02*
X237000Y443000D01*
X235862Y437313D02*
Y438000D01*
X161268Y478000D02*
X209268Y430000D01*
X211000Y434000D02*
X232350D01*
X167000Y478000D02*
X211000Y434000D01*
X236915Y429435D02*
X237936D01*
X197000Y427000D02*
X222261D01*
X343898Y423000D02*
X411898Y355000D01*
X152500Y478000D02*
X161268D01*
X251000Y274000D02*
X267972D01*
X289972Y252000D01*
X226000Y447000D02*
X233000D01*
X195000Y478000D02*
X226000Y447000D01*
X237000Y443000D02*
X355546D01*
X239500Y431000D02*
X343799D01*
X237936Y429435D02*
X239500Y431000D01*
X343799D02*
X419799Y355000D01*
X175000Y303402D02*
Y351332D01*
X182077Y302000D02*
X205000Y324923D01*
X175000Y303402D02*
X194000Y284402D01*
X181493Y302000D02*
X182077D01*
X194000Y261000D02*
Y284402D01*
X158000Y346000D02*
Y370000D01*
X141000Y329000D02*
X158000Y346000D01*
X115000Y423260D02*
X117000Y425260D01*
Y443000D01*
X140540Y403000D02*
X145000D01*
X134000Y416000D02*
X142230Y407770D01*
X126712Y416000D02*
X134000D01*
X142230Y407770D02*
X156000D01*
X204522D01*
X325230Y388770D02*
X360862Y353138D01*
Y353138D02*
Y353138D01*
X266438Y388770D02*
X325230D01*
X363117Y350883D02*
X423580D01*
X362638Y351362D02*
X362824Y351176D01*
X362824Y351176D02*
X363117Y350883D01*
X259538Y381870D02*
X266438Y388770D01*
X289972Y252000D02*
X297000D01*
X205000Y324923D02*
Y325000D01*
X194000Y261000D02*
X201770Y253230D01*
X253000Y313000D02*
X277124Y337124D01*
X229000Y313000D02*
X253000D01*
X231770Y359230D02*
X253000Y338000D01*
X226245Y359230D02*
X231770D01*
X253000Y320000D02*
Y338000D01*
X221906Y357155D02*
X224000Y355061D01*
X232000Y340000D02*
Y352000D01*
X221906Y357155D02*
Y358015D01*
X228357Y354160D02*
X229123Y354926D01*
X229000Y355000D02*
X232000Y352000D01*
X213770Y360770D02*
Y363965D01*
X206000Y352000D02*
Y353000D01*
X213770Y360770D01*
X201770Y253230D02*
X216293D01*
X175000Y351332D02*
X186668Y363000D01*
X221063Y258000D02*
X230000D01*
X216293Y253230D02*
X221063Y258000D01*
X186668Y363000D02*
X210000D01*
X185000Y356000D02*
X193000Y348000D01*
X189000Y344000D02*
X220332D01*
X228357Y352026D01*
X193000Y348000D02*
X219000D01*
X228357Y352026D02*
Y354160D01*
X219000Y348000D02*
X224000Y353000D01*
X216575Y366770D02*
X224037D01*
X213770Y363965D02*
X216575Y366770D01*
X173232Y371000D02*
X204000D01*
X184000Y340000D02*
Y344332D01*
X187438Y347770D01*
X192770D02*
X193000Y348000D01*
X187438Y347770D02*
X192770D01*
X208410Y378770D02*
X209180Y378000D01*
X161852Y377230D02*
X192898D01*
X194438Y378770D01*
X222985Y378000D02*
X223261Y377724D01*
X160082Y379000D02*
X161852Y377230D01*
X159000Y379000D02*
X160082D01*
X194438Y378770D02*
X208410D01*
X209180Y378000D02*
X222985D01*
X222475Y363000D02*
X226245Y359230D01*
X218136Y363000D02*
X222475D01*
X224037Y366770D02*
X227807Y363000D01*
X224000Y353000D02*
Y355061D01*
X126063Y415351D02*
X126712Y416000D01*
X216292Y396000D02*
X222000D01*
X204522Y407770D02*
X216292Y396000D01*
X208019Y401770D02*
X220789Y389000D01*
X172102Y401770D02*
X208019D01*
X236000Y397000D02*
X251131Y381870D01*
X259538D01*
X277124Y337124D02*
Y383876D01*
X277000Y384000D02*
X277124Y383876D01*
X262195Y373195D02*
X268000Y379000D01*
X262195Y372752D02*
Y373195D01*
X140123Y374000D02*
X170232D01*
X158117Y370000D02*
X160887Y367230D01*
X158000Y370000D02*
X158117D01*
X230000Y397000D02*
X236000D01*
X205562Y367230D02*
X211000Y372668D01*
Y373000D01*
X160887Y367230D02*
X205562D01*
X268000Y379000D02*
Y385000D01*
X170232Y374000D02*
X173232Y371000D01*
X423580Y350883D02*
X427697Y355000D01*
X355546Y443000D02*
X361064Y437481D01*
X407781D01*
X411898Y441598D01*
X354800Y441200D02*
X365000Y431000D01*
X237374Y438000D02*
X240574Y441200D01*
X354800D01*
X235862Y438000D02*
X237374D01*
X181000Y478000D02*
X221000Y438000D01*
X365000Y430000D02*
Y431000D01*
D73*
X462500Y480000D02*
D03*
X117500Y255000D02*
D03*
Y480000D02*
D03*
X463000Y255000D02*
D03*
D74*
X117000Y459000D02*
D03*
X138000Y255000D02*
D03*
X441000D02*
D03*
X152500Y478000D02*
D03*
X428000Y485000D02*
D03*
X297000Y252000D02*
D03*
X310000D02*
D03*
X130000Y443000D02*
D03*
X156000D02*
D03*
X284000Y252000D02*
D03*
X327000Y357000D02*
D03*
X143000Y443000D02*
D03*
X327000Y369000D02*
D03*
X180000Y283000D02*
D03*
X327000Y345000D02*
D03*
X195000Y478000D02*
D03*
X181000D02*
D03*
X167000D02*
D03*
X154000Y283000D02*
D03*
X341000Y477000D02*
D03*
X167000Y283000D02*
D03*
X118000Y312000D02*
D03*
X298000Y303000D02*
D03*
X285000D02*
D03*
X311000D02*
D03*
X356000Y477000D02*
D03*
X117000Y443000D02*
D03*
X327000Y381000D02*
D03*
X118000Y299000D02*
D03*
Y325000D02*
D03*
D75*
X242000Y463000D02*
D03*
D76*
X232000D02*
D03*
X242000Y473000D02*
D03*
Y483000D02*
D03*
X232000Y473000D02*
D03*
Y483000D02*
D03*
D77*
X418000Y485000D02*
D03*
D78*
X435598Y441598D02*
D03*
D79*
X427697D02*
D03*
X419799D02*
D03*
X411898D02*
D03*
X404000D02*
D03*
X396098D02*
D03*
X388197D02*
D03*
X380299D02*
D03*
X372398D02*
D03*
X364500D02*
D03*
Y355000D02*
D03*
X372398D02*
D03*
X380299D02*
D03*
X388197D02*
D03*
X396098D02*
D03*
X404000D02*
D03*
X411898D02*
D03*
X419799D02*
D03*
X427697D02*
D03*
X435598D02*
D03*
D80*
X136905Y399307D02*
D03*
X220000Y420000D02*
D03*
X181000Y427000D02*
D03*
X237091Y429611D02*
D03*
X238913Y423780D02*
D03*
X228497Y420764D02*
D03*
X237000Y443000D02*
D03*
X235862Y437313D02*
D03*
X229160Y411983D02*
D03*
X210000Y415000D02*
D03*
X197000Y421000D02*
D03*
Y427000D02*
D03*
X403576Y490522D02*
D03*
X368000Y489000D02*
D03*
X401000Y472000D02*
D03*
X109000Y349000D02*
D03*
X120000Y352000D02*
D03*
X300000Y453000D02*
D03*
X251000Y274000D02*
D03*
X142000Y381000D02*
D03*
X330000Y434600D02*
D03*
X322000D02*
D03*
X127000Y386000D02*
D03*
X189000Y392000D02*
D03*
X181493Y302000D02*
D03*
X141000Y329000D02*
D03*
X115000Y405000D02*
D03*
X145000Y403000D02*
D03*
X327012Y404616D02*
D03*
X243000Y339000D02*
D03*
X205000Y325000D02*
D03*
X229000Y313000D02*
D03*
X175000Y360000D02*
D03*
X239767Y356565D02*
D03*
X229123Y354926D02*
D03*
X221906Y358015D02*
D03*
X185000Y356000D02*
D03*
X219000Y348000D02*
D03*
X210000Y363000D02*
D03*
X204000Y371000D02*
D03*
X184000Y340000D02*
D03*
X206000Y352000D02*
D03*
X189000Y344000D02*
D03*
X230000Y258000D02*
D03*
X253000Y320000D02*
D03*
X218136Y363000D02*
D03*
X247000Y356000D02*
D03*
X126063Y415351D02*
D03*
X222000Y396000D02*
D03*
X223261Y377724D02*
D03*
X220789Y389000D02*
D03*
X196005Y388384D02*
D03*
X253353Y385640D02*
D03*
X263951Y393503D02*
D03*
X258851Y390804D02*
D03*
X180000Y309000D02*
D03*
X277000Y384000D02*
D03*
X262195Y372752D02*
D03*
X236000Y391000D02*
D03*
X158000Y370000D02*
D03*
X153000Y359000D02*
D03*
X159000Y379000D02*
D03*
X131255Y357289D02*
D03*
X211000Y373000D02*
D03*
X194770Y334000D02*
D03*
X227807Y363000D02*
D03*
X232000Y340000D02*
D03*
X268000Y385000D02*
D03*
X297000Y396000D02*
D03*
X289000D02*
D03*
X239000Y248000D02*
D03*
X139000Y348000D02*
D03*
X189000Y298000D02*
D03*
X140123Y374000D02*
D03*
X134000Y386000D02*
D03*
X243770Y284000D02*
D03*
X210000Y257000D02*
D03*
X253599Y259827D02*
D03*
X160000Y307000D02*
D03*
X203000Y310000D02*
D03*
X118000Y397000D02*
D03*
X230000D02*
D03*
X365000Y430000D02*
D03*
X262000Y408000D02*
D03*
X169000Y404000D02*
D03*
X187000Y381000D02*
D03*
X196000Y398000D02*
D03*
Y375000D02*
D03*
X199000Y413000D02*
D03*
X408096Y458740D02*
D03*
X412000Y334000D02*
D03*
X422000Y456000D02*
D03*
X273000Y412000D02*
D03*
X268000Y484000D02*
D03*
X312000Y480000D02*
D03*
X328000Y492000D02*
D03*
M02*
