G04*
G04 #@! TF.GenerationSoftware,Altium Limited,Altium Designer,22.10.1 (41)*
G04*
G04 Layer_Color=65535*
%FSLAX25Y25*%
%MOIN*%
G70*
G04*
G04 #@! TF.SameCoordinates,49C2D000-8325-4097-923D-366AA4D3C581*
G04*
G04*
G04 #@! TF.FilePolarity,Positive*
G04*
G01*
G75*
%ADD10C,0.00394*%
%ADD11C,0.00787*%
%ADD12C,0.00984*%
%ADD13C,0.00500*%
%ADD14C,0.01000*%
%ADD15C,0.01575*%
%ADD16C,0.00600*%
G36*
X398787Y317964D02*
X399105D01*
Y317946D01*
X399316D01*
Y317929D01*
X399510D01*
Y317911D01*
X399686D01*
Y317893D01*
X399827D01*
Y317876D01*
X399986D01*
Y317858D01*
X400127D01*
Y317840D01*
X400268D01*
Y317823D01*
X400391D01*
Y317805D01*
X400532D01*
Y317788D01*
X400655D01*
Y317770D01*
X400778D01*
Y317752D01*
X400902D01*
Y317735D01*
X401025D01*
Y317717D01*
X401148D01*
Y317699D01*
X401272D01*
Y317682D01*
X401395D01*
Y317664D01*
X401518D01*
Y317647D01*
X401624D01*
Y317629D01*
X401730D01*
Y317611D01*
X401836D01*
Y317594D01*
X401941D01*
Y317576D01*
X402047D01*
Y317559D01*
X402135D01*
Y317541D01*
X402223D01*
Y317523D01*
X402311D01*
Y317506D01*
X402382D01*
Y317488D01*
X402470D01*
Y317470D01*
X402540D01*
Y317453D01*
X402611D01*
Y317435D01*
X402681D01*
Y317418D01*
X402769D01*
Y317400D01*
X402840D01*
Y317382D01*
X402910D01*
Y317365D01*
X402963D01*
Y317347D01*
X403034D01*
Y317329D01*
X403104D01*
Y317312D01*
X403175D01*
Y317294D01*
X403245D01*
Y317277D01*
X403315D01*
Y317259D01*
X403368D01*
Y317241D01*
X403439D01*
Y317224D01*
X403509D01*
Y317206D01*
X403580D01*
Y317189D01*
X403650D01*
Y317171D01*
X403721D01*
Y317153D01*
X403791D01*
Y317136D01*
X403879D01*
Y317118D01*
X403950D01*
Y317100D01*
X404020D01*
Y317083D01*
X404091D01*
Y317065D01*
X404179D01*
Y317048D01*
X404249D01*
Y317030D01*
X404337D01*
Y317012D01*
X404425D01*
Y316995D01*
X404514D01*
Y316977D01*
X404602D01*
Y316959D01*
X404690D01*
Y316942D01*
X404778D01*
Y316924D01*
X404884D01*
Y316907D01*
X404972D01*
Y316889D01*
X405060D01*
Y316871D01*
X405095D01*
Y316854D01*
X405148D01*
Y316836D01*
X405183D01*
Y316818D01*
X405218D01*
Y316801D01*
X405254D01*
Y316783D01*
X405271D01*
Y316766D01*
X405306D01*
Y316748D01*
X405324D01*
Y316730D01*
X405342D01*
Y316713D01*
X405359D01*
Y316695D01*
X405377D01*
Y316677D01*
X405395D01*
Y316642D01*
X405412D01*
Y316589D01*
X405430D01*
Y315004D01*
X405412D01*
Y314933D01*
X405395D01*
Y314898D01*
X405377D01*
Y314880D01*
X405359D01*
Y314863D01*
X405342D01*
Y314845D01*
X405324D01*
Y314828D01*
X405306D01*
Y314810D01*
X405289D01*
Y314792D01*
X405271D01*
Y314775D01*
X405254D01*
Y314757D01*
X405218D01*
Y314739D01*
X405201D01*
Y314722D01*
X405165D01*
Y314704D01*
X405148D01*
Y314687D01*
X405130D01*
Y314669D01*
X405095D01*
Y314651D01*
X405077D01*
Y314634D01*
X405042D01*
Y314616D01*
X405025D01*
Y314598D01*
X405007D01*
Y314581D01*
X404972D01*
Y314563D01*
X404954D01*
Y314546D01*
X404937D01*
Y314528D01*
X404919D01*
Y314510D01*
X404884D01*
Y314493D01*
X404866D01*
Y314475D01*
X404848D01*
Y314458D01*
X404831D01*
Y314440D01*
X404813D01*
Y314422D01*
X404796D01*
Y314405D01*
X404778D01*
Y314387D01*
X404760D01*
Y314370D01*
X404743D01*
Y314334D01*
X404725D01*
Y314317D01*
X404707D01*
Y314299D01*
X404690D01*
Y314281D01*
X404672D01*
Y314246D01*
X404655D01*
Y314229D01*
X404637D01*
Y314193D01*
X404619D01*
Y314176D01*
X404602D01*
Y314140D01*
X404584D01*
Y314123D01*
X404566D01*
Y314088D01*
X404549D01*
Y314052D01*
X404531D01*
Y314017D01*
X404514D01*
Y313982D01*
X404496D01*
Y313947D01*
X404478D01*
Y313911D01*
X404461D01*
Y313876D01*
X404443D01*
Y313841D01*
X404425D01*
Y313806D01*
X404408D01*
Y313753D01*
X404390D01*
Y313718D01*
X404373D01*
Y313682D01*
X404355D01*
Y313630D01*
X404337D01*
Y313577D01*
X404320D01*
Y313541D01*
X404302D01*
Y313489D01*
X404285D01*
Y313436D01*
X404267D01*
Y313383D01*
X404249D01*
Y313348D01*
X404232D01*
Y313295D01*
X404214D01*
Y313242D01*
X404197D01*
Y313171D01*
X404179D01*
Y313119D01*
X404161D01*
Y313066D01*
X404144D01*
Y313013D01*
X404126D01*
Y312960D01*
X404108D01*
Y312890D01*
X404091D01*
Y312837D01*
X404073D01*
Y312784D01*
X404056D01*
Y312713D01*
X404038D01*
Y312660D01*
X404020D01*
Y312590D01*
X404003D01*
Y312537D01*
X403985D01*
Y312467D01*
X403967D01*
Y312396D01*
X403950D01*
Y312343D01*
X403932D01*
Y312273D01*
X403915D01*
Y312202D01*
X403897D01*
Y312150D01*
X403879D01*
Y312079D01*
X403862D01*
Y312009D01*
X403844D01*
Y311938D01*
X403827D01*
Y311885D01*
X403809D01*
Y311815D01*
X403791D01*
Y311744D01*
X403774D01*
Y311674D01*
X403756D01*
Y311621D01*
X403738D01*
Y311550D01*
X403721D01*
Y311480D01*
X403703D01*
Y311427D01*
X403686D01*
Y311357D01*
X403668D01*
Y311304D01*
X403650D01*
Y311233D01*
X403633D01*
Y311180D01*
X403615D01*
Y311110D01*
X403597D01*
Y311057D01*
X403580D01*
Y310987D01*
X403562D01*
Y310934D01*
X403545D01*
Y310881D01*
X403527D01*
Y310828D01*
X403509D01*
Y310775D01*
X403492D01*
Y310722D01*
X403474D01*
Y310669D01*
X403456D01*
Y310617D01*
X403439D01*
Y310564D01*
X403421D01*
Y310511D01*
X403404D01*
Y310458D01*
X403386D01*
Y310405D01*
X403368D01*
Y310352D01*
X403351D01*
Y310299D01*
X403333D01*
Y310264D01*
X403315D01*
Y310211D01*
X403298D01*
Y310176D01*
X403280D01*
Y310123D01*
X403263D01*
Y310088D01*
X403245D01*
Y310035D01*
X403227D01*
Y310000D01*
X403210D01*
Y309947D01*
X403192D01*
Y309912D01*
X403175D01*
Y309877D01*
X403157D01*
Y309824D01*
X403139D01*
Y309789D01*
X403122D01*
Y309753D01*
X403104D01*
Y309718D01*
X403087D01*
Y309683D01*
X403069D01*
Y309648D01*
X403051D01*
Y309612D01*
X403034D01*
Y309577D01*
X403016D01*
Y309542D01*
X402998D01*
Y309507D01*
X402981D01*
Y309471D01*
X402963D01*
Y309436D01*
X402946D01*
Y309419D01*
X402928D01*
Y309383D01*
X402910D01*
Y309348D01*
X402893D01*
Y309313D01*
X402875D01*
Y309295D01*
X402857D01*
Y309260D01*
X402840D01*
Y309242D01*
X402822D01*
Y309207D01*
X402805D01*
Y309190D01*
X402787D01*
Y309154D01*
X402769D01*
Y309119D01*
X402752D01*
Y309101D01*
X402734D01*
Y309066D01*
X402716D01*
Y309049D01*
X402699D01*
Y309031D01*
X402681D01*
Y308996D01*
X402664D01*
Y308978D01*
X402646D01*
Y308961D01*
X402628D01*
Y308925D01*
X402611D01*
Y308908D01*
X402593D01*
Y308872D01*
X402576D01*
Y308855D01*
X402558D01*
Y308837D01*
X402540D01*
Y308820D01*
X402523D01*
Y308802D01*
X402505D01*
Y308767D01*
X402487D01*
Y308749D01*
X402470D01*
Y308731D01*
X402452D01*
Y308714D01*
X402435D01*
Y308679D01*
X402417D01*
Y308661D01*
X402399D01*
Y308643D01*
X402382D01*
Y308626D01*
X402364D01*
Y308608D01*
X402347D01*
Y308591D01*
X402329D01*
Y308573D01*
X402311D01*
Y308555D01*
X402294D01*
Y308538D01*
X402276D01*
Y308520D01*
X402258D01*
Y308485D01*
X402241D01*
Y308467D01*
X402223D01*
Y308450D01*
X402206D01*
Y308432D01*
X402188D01*
Y308414D01*
X402170D01*
Y308397D01*
X402153D01*
Y308379D01*
X402135D01*
Y308362D01*
X402117D01*
Y308344D01*
X402100D01*
Y308326D01*
X402065D01*
Y308309D01*
X402047D01*
Y308291D01*
X402029D01*
Y308273D01*
X402012D01*
Y308256D01*
X401994D01*
Y308238D01*
X401976D01*
Y308221D01*
X401959D01*
Y308203D01*
X401941D01*
Y308185D01*
X401924D01*
Y308168D01*
X401906D01*
Y308150D01*
X401871D01*
Y308132D01*
X401853D01*
Y308115D01*
X401836D01*
Y308097D01*
X401818D01*
Y308080D01*
X401800D01*
Y308062D01*
X401765D01*
Y308044D01*
X401748D01*
Y308027D01*
X401730D01*
Y308009D01*
X401712D01*
Y307992D01*
X401677D01*
Y307974D01*
X401659D01*
Y307956D01*
X401642D01*
Y307939D01*
X401607D01*
Y307921D01*
X401589D01*
Y307903D01*
X401571D01*
Y307886D01*
X401536D01*
Y307868D01*
X401518D01*
Y307851D01*
X401501D01*
Y307833D01*
X401466D01*
Y307815D01*
X401448D01*
Y307798D01*
X401413D01*
Y307780D01*
X401395D01*
Y307762D01*
X401360D01*
Y307745D01*
X401342D01*
Y307727D01*
X401307D01*
Y307710D01*
X401289D01*
Y307692D01*
X401254D01*
Y307674D01*
X401236D01*
Y307657D01*
X401201D01*
Y307639D01*
X401184D01*
Y307622D01*
X401148D01*
Y307604D01*
X401113D01*
Y307586D01*
X401078D01*
Y307569D01*
X401060D01*
Y307551D01*
X401025D01*
Y307533D01*
X400990D01*
Y307516D01*
X400972D01*
Y307498D01*
X400937D01*
Y307481D01*
X400902D01*
Y307463D01*
X400867D01*
Y307445D01*
X400831D01*
Y307428D01*
X400796D01*
Y307410D01*
X400761D01*
Y307392D01*
X400726D01*
Y307375D01*
X400690D01*
Y307357D01*
X400655D01*
Y307340D01*
X400620D01*
Y307322D01*
X400585D01*
Y307304D01*
X400549D01*
Y307287D01*
X400514D01*
Y307269D01*
X400479D01*
Y307252D01*
X400426D01*
Y307234D01*
X400391D01*
Y307216D01*
X400356D01*
Y307199D01*
X400303D01*
Y307181D01*
X400268D01*
Y307163D01*
X400215D01*
Y307146D01*
X400179D01*
Y307128D01*
X400127D01*
Y307111D01*
X400091D01*
Y307093D01*
X400038D01*
Y307075D01*
X399986D01*
Y307058D01*
X399933D01*
Y307040D01*
X399880D01*
Y307022D01*
X399827D01*
Y307005D01*
X399774D01*
Y306987D01*
X399721D01*
Y306970D01*
X399668D01*
Y306952D01*
X399598D01*
Y306934D01*
X399545D01*
Y306917D01*
X399475D01*
Y306899D01*
X399422D01*
Y306881D01*
X399334D01*
Y306864D01*
X399263D01*
Y306846D01*
X399193D01*
Y306829D01*
X399122D01*
Y306811D01*
X399034D01*
Y306793D01*
X398946D01*
Y306776D01*
X398840D01*
Y306758D01*
X398752D01*
Y306740D01*
X398629D01*
Y306723D01*
X398506D01*
Y306705D01*
X398382D01*
Y306688D01*
X398224D01*
Y306670D01*
X398030D01*
Y306652D01*
X397748D01*
Y306635D01*
X396902D01*
Y306652D01*
X396603D01*
Y306670D01*
X396427D01*
Y306688D01*
X396268D01*
Y306705D01*
X396127D01*
Y306723D01*
X396004D01*
Y306740D01*
X395898D01*
Y306758D01*
X395775D01*
Y306776D01*
X395687D01*
Y306793D01*
X395599D01*
Y306811D01*
X395510D01*
Y306829D01*
X395422D01*
Y306846D01*
X395334D01*
Y306864D01*
X395264D01*
Y306881D01*
X395193D01*
Y306899D01*
X395123D01*
Y306917D01*
X395052D01*
Y306934D01*
X394982D01*
Y306952D01*
X394929D01*
Y306970D01*
X394859D01*
Y306987D01*
X394806D01*
Y307005D01*
X394753D01*
Y307022D01*
X394700D01*
Y307040D01*
X394630D01*
Y307058D01*
X394577D01*
Y307075D01*
X394524D01*
Y307093D01*
X394471D01*
Y307111D01*
X394436D01*
Y307128D01*
X394383D01*
Y307146D01*
X394330D01*
Y307163D01*
X394277D01*
Y307181D01*
X394242D01*
Y307199D01*
X394189D01*
Y307216D01*
X394136D01*
Y307234D01*
X394101D01*
Y307252D01*
X394066D01*
Y307269D01*
X394013D01*
Y307287D01*
X393978D01*
Y307304D01*
X393942D01*
Y307322D01*
X393889D01*
Y307340D01*
X393854D01*
Y307357D01*
X393819D01*
Y307375D01*
X393766D01*
Y307392D01*
X393731D01*
Y307410D01*
X393696D01*
Y307428D01*
X393660D01*
Y307445D01*
X393625D01*
Y307463D01*
X393590D01*
Y307481D01*
X393555D01*
Y307498D01*
X393519D01*
Y307516D01*
X393484D01*
Y307533D01*
X393449D01*
Y307551D01*
X393431D01*
Y307569D01*
X393396D01*
Y307586D01*
X393361D01*
Y307604D01*
X393326D01*
Y307622D01*
X393308D01*
Y307639D01*
X393273D01*
Y307657D01*
X393238D01*
Y307674D01*
X393202D01*
Y307692D01*
X393185D01*
Y307710D01*
X393149D01*
Y307727D01*
X393114D01*
Y307745D01*
X393097D01*
Y307762D01*
X393061D01*
Y307780D01*
X393044D01*
Y307798D01*
X393008D01*
Y307815D01*
X392991D01*
Y307833D01*
X392956D01*
Y307851D01*
X392938D01*
Y307868D01*
X392903D01*
Y307886D01*
X392868D01*
Y307903D01*
X392850D01*
Y307921D01*
X392815D01*
Y307939D01*
X392797D01*
Y307956D01*
X392779D01*
Y307974D01*
X392744D01*
Y307992D01*
X392727D01*
Y308009D01*
X392709D01*
Y308027D01*
X392674D01*
Y308044D01*
X392656D01*
Y308062D01*
X392638D01*
Y308080D01*
X392603D01*
Y308097D01*
X392586D01*
Y308115D01*
X392568D01*
Y308132D01*
X392550D01*
Y308150D01*
X392515D01*
Y308168D01*
X392498D01*
Y308185D01*
X392480D01*
Y308203D01*
X392462D01*
Y308221D01*
X392445D01*
Y308238D01*
X392409D01*
Y308256D01*
X392392D01*
Y308273D01*
X392374D01*
Y308291D01*
X392357D01*
Y308309D01*
X392339D01*
Y308326D01*
X392321D01*
Y308344D01*
X392304D01*
Y308362D01*
X392286D01*
Y308379D01*
X392269D01*
Y308397D01*
X392251D01*
Y308414D01*
X392233D01*
Y308432D01*
X392216D01*
Y308450D01*
X392198D01*
Y308467D01*
X392180D01*
Y308485D01*
X392163D01*
Y308502D01*
X392145D01*
Y308520D01*
X392128D01*
Y308538D01*
X392110D01*
Y308555D01*
X392092D01*
Y308573D01*
X392075D01*
Y308591D01*
X392057D01*
Y308608D01*
X392039D01*
Y308626D01*
X392022D01*
Y308643D01*
X392004D01*
Y308661D01*
X391987D01*
Y308679D01*
X391969D01*
Y308696D01*
X391951D01*
Y308714D01*
X391934D01*
Y308731D01*
X391916D01*
Y308749D01*
X391899D01*
Y308784D01*
X391881D01*
Y308802D01*
X391863D01*
Y308820D01*
X391846D01*
Y308837D01*
X391828D01*
Y308855D01*
X391810D01*
Y308872D01*
X391793D01*
Y308890D01*
X391775D01*
Y308925D01*
X391758D01*
Y308943D01*
X391740D01*
Y308961D01*
X391722D01*
Y308978D01*
X391705D01*
Y308996D01*
X391687D01*
Y309013D01*
X391670D01*
Y309049D01*
X391652D01*
Y309066D01*
X391634D01*
Y309084D01*
X391617D01*
Y309101D01*
X391599D01*
Y309137D01*
X391581D01*
Y309154D01*
X391564D01*
Y309172D01*
X391546D01*
Y309207D01*
X391529D01*
Y309225D01*
X391511D01*
Y309242D01*
X391493D01*
Y309278D01*
X391476D01*
Y309295D01*
X391458D01*
Y309331D01*
X391441D01*
Y309348D01*
X391423D01*
Y309366D01*
X391405D01*
Y309401D01*
X391388D01*
Y309419D01*
X391370D01*
Y309454D01*
X391352D01*
Y309471D01*
X391335D01*
Y309489D01*
X391317D01*
Y309524D01*
X391300D01*
Y309542D01*
X391282D01*
Y309577D01*
X391264D01*
Y309595D01*
X391247D01*
Y309630D01*
X391229D01*
Y309648D01*
X391211D01*
Y309683D01*
X391194D01*
Y309718D01*
X391176D01*
Y309736D01*
X391159D01*
Y309771D01*
X391141D01*
Y309789D01*
X391123D01*
Y309824D01*
X391106D01*
Y309841D01*
X391088D01*
Y309877D01*
X391071D01*
Y309912D01*
X391053D01*
Y309947D01*
X391035D01*
Y309965D01*
X391018D01*
Y310000D01*
X391000D01*
Y310035D01*
X390982D01*
Y310053D01*
X390965D01*
Y310088D01*
X390947D01*
Y310123D01*
X390930D01*
Y310159D01*
X390912D01*
Y310176D01*
X390894D01*
Y310211D01*
X390877D01*
Y310247D01*
X390859D01*
Y310282D01*
X390841D01*
Y310317D01*
X390824D01*
Y310352D01*
X390806D01*
Y310388D01*
X390789D01*
Y310423D01*
X390771D01*
Y310458D01*
X390753D01*
Y310493D01*
X390736D01*
Y310529D01*
X390718D01*
Y310564D01*
X390701D01*
Y310599D01*
X390683D01*
Y310634D01*
X390665D01*
Y310669D01*
X390648D01*
Y310705D01*
X390630D01*
Y310740D01*
X390612D01*
Y310775D01*
X390595D01*
Y310810D01*
X390577D01*
Y310863D01*
X390560D01*
Y310899D01*
X390542D01*
Y310934D01*
X390524D01*
Y310969D01*
X390507D01*
Y311022D01*
X390489D01*
Y311057D01*
X390471D01*
Y311092D01*
X390454D01*
Y311145D01*
X390436D01*
Y311180D01*
X390419D01*
Y311233D01*
X390401D01*
Y311269D01*
X390383D01*
Y311321D01*
X390366D01*
Y311357D01*
X390348D01*
Y311409D01*
X390331D01*
Y311445D01*
X390313D01*
Y311498D01*
X390295D01*
Y311550D01*
X390278D01*
Y311586D01*
X390260D01*
Y311638D01*
X390242D01*
Y311691D01*
X390225D01*
Y311727D01*
X390207D01*
Y311779D01*
X390190D01*
Y311832D01*
X390172D01*
Y311885D01*
X390154D01*
Y311920D01*
X390137D01*
Y311973D01*
X390119D01*
Y312026D01*
X390101D01*
Y312079D01*
X390084D01*
Y312132D01*
X390066D01*
Y312185D01*
X390049D01*
Y312238D01*
X390031D01*
Y312291D01*
X390013D01*
Y312343D01*
X389996D01*
Y312396D01*
X389978D01*
Y312449D01*
X389961D01*
Y312502D01*
X389943D01*
Y312555D01*
X389925D01*
Y312590D01*
X389908D01*
Y312643D01*
X389890D01*
Y312696D01*
X389872D01*
Y312749D01*
X389855D01*
Y312784D01*
X389837D01*
Y312837D01*
X389820D01*
Y312890D01*
X389802D01*
Y312925D01*
X389784D01*
Y312978D01*
X389767D01*
Y313013D01*
X389749D01*
Y313048D01*
X389731D01*
Y313101D01*
X389714D01*
Y313136D01*
X389696D01*
Y313171D01*
X389679D01*
Y313207D01*
X389661D01*
Y313242D01*
X389643D01*
Y313277D01*
X389626D01*
Y313312D01*
X389608D01*
Y313348D01*
X389591D01*
Y313383D01*
X389573D01*
Y313418D01*
X389555D01*
Y313436D01*
X389538D01*
Y313471D01*
X389520D01*
Y313489D01*
X389502D01*
Y313524D01*
X389485D01*
Y313541D01*
X389467D01*
Y313559D01*
X389450D01*
Y313594D01*
X389432D01*
Y313612D01*
X389414D01*
Y313630D01*
X389397D01*
Y313647D01*
X389379D01*
Y313682D01*
X389362D01*
Y313700D01*
X389344D01*
Y313718D01*
X389326D01*
Y313735D01*
X389309D01*
Y313753D01*
X389291D01*
Y313770D01*
X389273D01*
Y313788D01*
X389256D01*
Y313806D01*
X389238D01*
Y313823D01*
X389220D01*
Y313841D01*
X389185D01*
Y313859D01*
X389168D01*
Y313876D01*
X389150D01*
Y313894D01*
X389115D01*
Y313911D01*
X389097D01*
Y313929D01*
X389062D01*
Y313947D01*
X389027D01*
Y313964D01*
X388974D01*
Y313982D01*
X388903D01*
Y314000D01*
X388798D01*
Y314017D01*
X388463D01*
Y314035D01*
X387723D01*
Y314017D01*
X387617D01*
Y314000D01*
X387564D01*
Y313982D01*
X387511D01*
Y313964D01*
X387476D01*
Y313947D01*
X387459D01*
Y313929D01*
X387423D01*
Y313911D01*
X387388D01*
Y313894D01*
X387370D01*
Y313876D01*
X387353D01*
Y313859D01*
X387335D01*
Y313841D01*
X387318D01*
Y313823D01*
X387300D01*
Y313806D01*
X387282D01*
Y313788D01*
X387265D01*
Y313753D01*
X387247D01*
Y313735D01*
X387230D01*
Y313718D01*
X387212D01*
Y313682D01*
X387194D01*
Y313647D01*
X387177D01*
Y313630D01*
X387159D01*
Y313594D01*
X387141D01*
Y313559D01*
X387124D01*
Y313524D01*
X387106D01*
Y313489D01*
X387089D01*
Y313453D01*
X387071D01*
Y313418D01*
X387053D01*
Y313383D01*
X387036D01*
Y313348D01*
X387018D01*
Y313312D01*
X387000D01*
Y313277D01*
X386983D01*
Y313242D01*
X386965D01*
Y313189D01*
X386948D01*
Y313154D01*
X386930D01*
Y313119D01*
X386912D01*
Y313066D01*
X386895D01*
Y313013D01*
X386877D01*
Y312978D01*
X386860D01*
Y312925D01*
X386842D01*
Y312872D01*
X386824D01*
Y312819D01*
X386807D01*
Y312766D01*
X386789D01*
Y312713D01*
X386771D01*
Y312643D01*
X386754D01*
Y312590D01*
X386736D01*
Y312537D01*
X386719D01*
Y312467D01*
X386701D01*
Y312414D01*
X386683D01*
Y312361D01*
X386666D01*
Y312291D01*
X386648D01*
Y312238D01*
X386631D01*
Y312167D01*
X386613D01*
Y312114D01*
X386595D01*
Y312044D01*
X386578D01*
Y311991D01*
X386560D01*
Y311938D01*
X386543D01*
Y311868D01*
X386525D01*
Y311815D01*
X386507D01*
Y311762D01*
X386490D01*
Y311709D01*
X386472D01*
Y311656D01*
X386454D01*
Y311603D01*
X386437D01*
Y311550D01*
X386419D01*
Y311498D01*
X386402D01*
Y311445D01*
X386384D01*
Y311409D01*
X386366D01*
Y311357D01*
X386349D01*
Y311321D01*
X386331D01*
Y311269D01*
X386313D01*
Y311233D01*
X386296D01*
Y311198D01*
X386278D01*
Y311145D01*
X386261D01*
Y311110D01*
X386243D01*
Y311075D01*
X386225D01*
Y311039D01*
X386208D01*
Y311004D01*
X386190D01*
Y310969D01*
X386172D01*
Y310934D01*
X386155D01*
Y310899D01*
X386137D01*
Y310863D01*
X386120D01*
Y310828D01*
X386102D01*
Y310793D01*
X386084D01*
Y310758D01*
X386067D01*
Y310722D01*
X386049D01*
Y310705D01*
X386032D01*
Y310669D01*
X386014D01*
Y310634D01*
X385996D01*
Y310599D01*
X385979D01*
Y310581D01*
X385961D01*
Y310546D01*
X385943D01*
Y310511D01*
X385926D01*
Y310476D01*
X385908D01*
Y310440D01*
X385891D01*
Y310423D01*
X385873D01*
Y310388D01*
X385855D01*
Y310352D01*
X385838D01*
Y310317D01*
X385820D01*
Y310299D01*
X385803D01*
Y310264D01*
X385785D01*
Y310229D01*
X385767D01*
Y310211D01*
X385750D01*
Y310176D01*
X385732D01*
Y310141D01*
X385714D01*
Y310123D01*
X385697D01*
Y310088D01*
X385679D01*
Y310053D01*
X385662D01*
Y310035D01*
X385644D01*
Y310000D01*
X385626D01*
Y309982D01*
X385609D01*
Y309947D01*
X385591D01*
Y309912D01*
X385573D01*
Y309894D01*
X385556D01*
Y309859D01*
X385538D01*
Y309841D01*
X385521D01*
Y309806D01*
X385503D01*
Y309771D01*
X385485D01*
Y309753D01*
X385468D01*
Y309718D01*
X385450D01*
Y309700D01*
X385433D01*
Y309665D01*
X385415D01*
Y309648D01*
X385397D01*
Y309630D01*
X385380D01*
Y309595D01*
X385362D01*
Y309577D01*
X385344D01*
Y309542D01*
X385327D01*
Y309524D01*
X385309D01*
Y309489D01*
X385292D01*
Y309471D01*
X385274D01*
Y309436D01*
X385256D01*
Y309419D01*
X385239D01*
Y309383D01*
X385221D01*
Y309366D01*
X385203D01*
Y309348D01*
X385186D01*
Y309313D01*
X385168D01*
Y309295D01*
X385151D01*
Y309278D01*
X385133D01*
Y309242D01*
X385115D01*
Y309225D01*
X385098D01*
Y309207D01*
X385080D01*
Y309172D01*
X385063D01*
Y309154D01*
X385045D01*
Y309137D01*
X385027D01*
Y309101D01*
X385010D01*
Y309084D01*
X384992D01*
Y309066D01*
X384974D01*
Y309049D01*
X384957D01*
Y309013D01*
X384939D01*
Y308996D01*
X384922D01*
Y308978D01*
X384904D01*
Y308943D01*
X384886D01*
Y308925D01*
X384869D01*
Y308908D01*
X384851D01*
Y308890D01*
X384833D01*
Y308872D01*
X384816D01*
Y308837D01*
X384798D01*
Y308820D01*
X384781D01*
Y308802D01*
X384763D01*
Y308784D01*
X384745D01*
Y308767D01*
X384728D01*
Y308749D01*
X384710D01*
Y308714D01*
X384693D01*
Y308696D01*
X384675D01*
Y308679D01*
X384657D01*
Y308661D01*
X384640D01*
Y308643D01*
X384622D01*
Y308626D01*
X384604D01*
Y308608D01*
X384587D01*
Y308591D01*
X384569D01*
Y308573D01*
X384552D01*
Y308555D01*
X384534D01*
Y308520D01*
X384516D01*
Y308502D01*
X384499D01*
Y308485D01*
X384481D01*
Y308467D01*
X384463D01*
Y308450D01*
X384446D01*
Y308432D01*
X384428D01*
Y308414D01*
X384411D01*
Y308397D01*
X384393D01*
Y308379D01*
X384375D01*
Y308362D01*
X384358D01*
Y308344D01*
X384340D01*
Y308326D01*
X384323D01*
Y308309D01*
X384305D01*
Y308291D01*
X384287D01*
Y308273D01*
X384270D01*
Y308256D01*
X384252D01*
Y308238D01*
X384234D01*
Y308221D01*
X384217D01*
Y308203D01*
X384181D01*
Y308185D01*
X384164D01*
Y308168D01*
X384146D01*
Y308150D01*
X384129D01*
Y308132D01*
X384111D01*
Y308115D01*
X384093D01*
Y308097D01*
X384076D01*
Y308080D01*
X384058D01*
Y308062D01*
X384041D01*
Y308044D01*
X384005D01*
Y308027D01*
X383988D01*
Y308009D01*
X383970D01*
Y307992D01*
X383952D01*
Y307974D01*
X383935D01*
Y307956D01*
X383900D01*
Y307939D01*
X383882D01*
Y307921D01*
X383864D01*
Y307903D01*
X383847D01*
Y307886D01*
X383811D01*
Y307868D01*
X383794D01*
Y307851D01*
X383776D01*
Y307833D01*
X383759D01*
Y307815D01*
X383723D01*
Y307798D01*
X383706D01*
Y307780D01*
X383688D01*
Y307762D01*
X383653D01*
Y307745D01*
X383635D01*
Y307727D01*
X383600D01*
Y307710D01*
X383582D01*
Y307692D01*
X383565D01*
Y307674D01*
X383530D01*
Y307657D01*
X383512D01*
Y307639D01*
X383477D01*
Y307622D01*
X383459D01*
Y307604D01*
X383424D01*
Y307586D01*
X383406D01*
Y307569D01*
X383371D01*
Y307551D01*
X383353D01*
Y307533D01*
X383318D01*
Y307516D01*
X383283D01*
Y307498D01*
X383265D01*
Y307481D01*
X383230D01*
Y307463D01*
X383195D01*
Y307445D01*
X383177D01*
Y307428D01*
X383142D01*
Y307410D01*
X383107D01*
Y307392D01*
X383089D01*
Y307375D01*
X383054D01*
Y307357D01*
X383019D01*
Y307340D01*
X382983D01*
Y307322D01*
X382948D01*
Y307304D01*
X382913D01*
Y307287D01*
X382878D01*
Y307269D01*
X382842D01*
Y307252D01*
X382807D01*
Y307234D01*
X382772D01*
Y307216D01*
X382737D01*
Y307199D01*
X382701D01*
Y307181D01*
X382666D01*
Y307163D01*
X382631D01*
Y307146D01*
X382578D01*
Y307128D01*
X382543D01*
Y307111D01*
X382508D01*
Y307093D01*
X382455D01*
Y307075D01*
X382402D01*
Y307058D01*
X382367D01*
Y307040D01*
X382314D01*
Y307022D01*
X382279D01*
Y307005D01*
X382226D01*
Y306987D01*
X382173D01*
Y306970D01*
X382120D01*
Y306952D01*
X382067D01*
Y306934D01*
X382014D01*
Y306917D01*
X381962D01*
Y306899D01*
X381909D01*
Y306881D01*
X381838D01*
Y306864D01*
X381768D01*
Y306846D01*
X381697D01*
Y306829D01*
X381627D01*
Y306811D01*
X381556D01*
Y306793D01*
X381468D01*
Y306776D01*
X381363D01*
Y306758D01*
X381274D01*
Y306740D01*
X381186D01*
Y306723D01*
X381063D01*
Y306705D01*
X380940D01*
Y306688D01*
X380799D01*
Y306670D01*
X380605D01*
Y306652D01*
X380394D01*
Y306635D01*
X380094D01*
Y306617D01*
X378543D01*
Y306635D01*
X378297D01*
Y306652D01*
X378156D01*
Y306670D01*
X378015D01*
Y306688D01*
X377892D01*
Y306705D01*
X377786D01*
Y306723D01*
X377680D01*
Y306740D01*
X377574D01*
Y306758D01*
X377486D01*
Y306776D01*
X377398D01*
Y306793D01*
X377293D01*
Y306811D01*
X377222D01*
Y306829D01*
X377134D01*
Y306846D01*
X377063D01*
Y306864D01*
X376993D01*
Y306881D01*
X376923D01*
Y306899D01*
X376852D01*
Y306917D01*
X376782D01*
Y306934D01*
X376711D01*
Y306952D01*
X376658D01*
Y306970D01*
X376588D01*
Y306987D01*
X376535D01*
Y307005D01*
X376482D01*
Y307022D01*
X376429D01*
Y307040D01*
X376359D01*
Y307058D01*
X376306D01*
Y307075D01*
X376253D01*
Y307093D01*
X376218D01*
Y307111D01*
X376165D01*
Y307128D01*
X376112D01*
Y307146D01*
X376059D01*
Y307163D01*
X376024D01*
Y307181D01*
X375971D01*
Y307199D01*
X375936D01*
Y307216D01*
X375883D01*
Y307234D01*
X375848D01*
Y307252D01*
X375795D01*
Y307269D01*
X375760D01*
Y307287D01*
X375725D01*
Y307304D01*
X375672D01*
Y307322D01*
X375636D01*
Y307340D01*
X375601D01*
Y307357D01*
X375566D01*
Y307375D01*
X375531D01*
Y307392D01*
X375496D01*
Y307410D01*
X375460D01*
Y307428D01*
X375425D01*
Y307445D01*
X375390D01*
Y307463D01*
X375355D01*
Y307481D01*
X375319D01*
Y307498D01*
X375284D01*
Y307516D01*
X375249D01*
Y307533D01*
X375231D01*
Y307551D01*
X375196D01*
Y307569D01*
X375161D01*
Y307586D01*
X375126D01*
Y307604D01*
X375108D01*
Y307622D01*
X375073D01*
Y307639D01*
X375055D01*
Y307657D01*
X375020D01*
Y307674D01*
X374985D01*
Y307692D01*
X374967D01*
Y307710D01*
X374932D01*
Y307727D01*
X374914D01*
Y307745D01*
X374879D01*
Y307762D01*
X374861D01*
Y307780D01*
X374844D01*
Y307798D01*
X374808D01*
Y307815D01*
X374791D01*
Y307833D01*
X374756D01*
Y307851D01*
X374738D01*
Y307868D01*
X374720D01*
Y307886D01*
X374685D01*
Y307903D01*
X374667D01*
Y307921D01*
X374650D01*
Y307939D01*
X374632D01*
Y307956D01*
X374597D01*
Y307974D01*
X374579D01*
Y307992D01*
X374562D01*
Y308009D01*
X374544D01*
Y308027D01*
X374526D01*
Y308044D01*
X374509D01*
Y308062D01*
X374491D01*
Y308080D01*
X374456D01*
Y308097D01*
X374438D01*
Y308115D01*
X374421D01*
Y308132D01*
X374403D01*
Y308150D01*
X374385D01*
Y308168D01*
X374368D01*
Y308185D01*
X374350D01*
Y308203D01*
X374333D01*
Y308221D01*
X374315D01*
Y308238D01*
X374297D01*
Y308256D01*
X374280D01*
Y308291D01*
X374262D01*
Y308309D01*
X374244D01*
Y308326D01*
X374227D01*
Y308344D01*
X374209D01*
Y308362D01*
X374192D01*
Y308379D01*
X374174D01*
Y308397D01*
X374156D01*
Y308432D01*
X374139D01*
Y308450D01*
X374121D01*
Y308467D01*
X374104D01*
Y308502D01*
X374086D01*
Y308520D01*
X374068D01*
Y308538D01*
X374051D01*
Y308573D01*
X374033D01*
Y308591D01*
X374015D01*
Y308626D01*
X373998D01*
Y308643D01*
X373980D01*
Y308679D01*
X373963D01*
Y308714D01*
X373945D01*
Y308749D01*
X373927D01*
Y308767D01*
X373910D01*
Y308802D01*
X373892D01*
Y308837D01*
X373874D01*
Y308872D01*
X373857D01*
Y308908D01*
X373839D01*
Y308943D01*
X373822D01*
Y308978D01*
X373804D01*
Y309013D01*
X373786D01*
Y309049D01*
X373769D01*
Y309084D01*
X373751D01*
Y309119D01*
X373734D01*
Y309154D01*
X373716D01*
Y309190D01*
X373698D01*
Y309225D01*
X373681D01*
Y309278D01*
X373663D01*
Y309313D01*
X373645D01*
Y309348D01*
X373628D01*
Y309383D01*
X373610D01*
Y309419D01*
X373593D01*
Y309454D01*
X373575D01*
Y309489D01*
X373557D01*
Y309542D01*
X373540D01*
Y309577D01*
X373522D01*
Y309612D01*
X373504D01*
Y309665D01*
X373487D01*
Y309700D01*
X373469D01*
Y309736D01*
X373452D01*
Y309789D01*
X373434D01*
Y309824D01*
X373416D01*
Y309859D01*
X373399D01*
Y309912D01*
X373381D01*
Y309947D01*
X373364D01*
Y309982D01*
X373346D01*
Y310035D01*
X373328D01*
Y310070D01*
X373311D01*
Y310123D01*
X373293D01*
Y310159D01*
X373275D01*
Y310194D01*
X373258D01*
Y310247D01*
X373240D01*
Y310282D01*
X373223D01*
Y310335D01*
X373205D01*
Y310370D01*
X373187D01*
Y310423D01*
X373170D01*
Y310458D01*
X373152D01*
Y310511D01*
X373134D01*
Y310564D01*
X373117D01*
Y310599D01*
X373099D01*
Y310652D01*
X373082D01*
Y310687D01*
X373064D01*
Y310740D01*
X373046D01*
Y310793D01*
X373029D01*
Y310828D01*
X373011D01*
Y310881D01*
X372994D01*
Y310934D01*
X372976D01*
Y310969D01*
X372958D01*
Y311022D01*
X372941D01*
Y311075D01*
X372923D01*
Y311128D01*
X372905D01*
Y311180D01*
X372888D01*
Y311216D01*
X372870D01*
Y311269D01*
X372853D01*
Y311321D01*
X372835D01*
Y311374D01*
X372817D01*
Y311427D01*
X372800D01*
Y311480D01*
X372782D01*
Y311533D01*
X372765D01*
Y311586D01*
X372747D01*
Y311638D01*
X372729D01*
Y311691D01*
X372712D01*
Y311744D01*
X372694D01*
Y311797D01*
X372676D01*
Y311850D01*
X372659D01*
Y311903D01*
X372641D01*
Y311956D01*
X372624D01*
Y312026D01*
X372606D01*
Y312079D01*
X372588D01*
Y312132D01*
X372571D01*
Y312185D01*
X372553D01*
Y312255D01*
X372535D01*
Y312308D01*
X372518D01*
Y312361D01*
X372500D01*
Y312431D01*
X372483D01*
Y312484D01*
X372465D01*
Y312537D01*
X372447D01*
Y312608D01*
X372430D01*
Y312660D01*
X372412D01*
Y312731D01*
X372395D01*
Y312784D01*
X372377D01*
Y312854D01*
X372359D01*
Y312907D01*
X372342D01*
Y312978D01*
X372324D01*
Y313030D01*
X372306D01*
Y313101D01*
X372289D01*
Y313171D01*
X372271D01*
Y313224D01*
X372254D01*
Y313295D01*
X372236D01*
Y313348D01*
X372218D01*
Y313400D01*
X372201D01*
Y313453D01*
X372183D01*
Y313506D01*
X372165D01*
Y313559D01*
X372148D01*
Y313594D01*
X372130D01*
Y313630D01*
X372113D01*
Y313665D01*
X372095D01*
Y313700D01*
X372077D01*
Y313735D01*
X372060D01*
Y313753D01*
X372042D01*
Y313788D01*
X372025D01*
Y313823D01*
X372007D01*
Y313841D01*
X371989D01*
Y313876D01*
X371972D01*
Y313894D01*
X371954D01*
Y313911D01*
X371936D01*
Y313947D01*
X371919D01*
Y313964D01*
X371901D01*
Y313982D01*
X371884D01*
Y314017D01*
X371866D01*
Y314035D01*
X371848D01*
Y314052D01*
X371831D01*
Y314070D01*
X371813D01*
Y314105D01*
X371796D01*
Y314123D01*
X371778D01*
Y314140D01*
X371760D01*
Y314158D01*
X371743D01*
Y314176D01*
X371725D01*
Y314211D01*
X371707D01*
Y314229D01*
X371690D01*
Y314246D01*
X371672D01*
Y314264D01*
X371655D01*
Y314281D01*
X371637D01*
Y314299D01*
X371619D01*
Y314317D01*
X371602D01*
Y314334D01*
X371584D01*
Y314370D01*
X371567D01*
Y314387D01*
X371549D01*
Y314405D01*
X371531D01*
Y314422D01*
X371514D01*
Y314440D01*
X371496D01*
Y314458D01*
X371478D01*
Y314475D01*
X371461D01*
Y314493D01*
X371443D01*
Y314510D01*
X371426D01*
Y314528D01*
X371408D01*
Y314563D01*
X371390D01*
Y314581D01*
X371373D01*
Y314598D01*
X371355D01*
Y314616D01*
X371337D01*
Y314634D01*
X371320D01*
Y314651D01*
X371302D01*
Y314669D01*
X371285D01*
Y314687D01*
X371267D01*
Y314722D01*
X371249D01*
Y314739D01*
X371232D01*
Y314757D01*
X371214D01*
Y314775D01*
X371197D01*
Y314792D01*
X371179D01*
Y314828D01*
X371161D01*
Y314845D01*
X371144D01*
Y314863D01*
X371126D01*
Y314880D01*
X371108D01*
Y314916D01*
X371091D01*
Y314933D01*
X371073D01*
Y314968D01*
X371056D01*
Y314986D01*
X371038D01*
Y315021D01*
X371020D01*
Y315039D01*
X371003D01*
Y315092D01*
X370985D01*
Y315127D01*
X370967D01*
Y315180D01*
X370950D01*
Y315233D01*
X370932D01*
Y315303D01*
X370915D01*
Y315391D01*
X370897D01*
Y315515D01*
X370879D01*
Y315726D01*
X370862D01*
Y316307D01*
X370879D01*
Y316730D01*
X370897D01*
Y316871D01*
X370932D01*
Y316889D01*
X371003D01*
Y316907D01*
X371091D01*
Y316924D01*
X371179D01*
Y316942D01*
X371267D01*
Y316959D01*
X371373D01*
Y316977D01*
X371461D01*
Y316995D01*
X371567D01*
Y317012D01*
X371655D01*
Y317030D01*
X371743D01*
Y317048D01*
X371831D01*
Y317065D01*
X371936D01*
Y317083D01*
X372025D01*
Y317100D01*
X372113D01*
Y317118D01*
X372201D01*
Y317136D01*
X372289D01*
Y317153D01*
X372377D01*
Y317171D01*
X372465D01*
Y317189D01*
X372553D01*
Y317206D01*
X372641D01*
Y317224D01*
X372729D01*
Y317241D01*
X372817D01*
Y317259D01*
X372905D01*
Y317277D01*
X372994D01*
Y317294D01*
X373082D01*
Y317312D01*
X373170D01*
Y317329D01*
X373240D01*
Y317347D01*
X373328D01*
Y317365D01*
X373416D01*
Y317382D01*
X373504D01*
Y317400D01*
X373593D01*
Y317418D01*
X373681D01*
Y317435D01*
X373769D01*
Y317453D01*
X373857D01*
Y317470D01*
X373945D01*
Y317488D01*
X374033D01*
Y317506D01*
X374139D01*
Y317523D01*
X374227D01*
Y317541D01*
X374315D01*
Y317559D01*
X374403D01*
Y317576D01*
X374509D01*
Y317594D01*
X374597D01*
Y317611D01*
X374685D01*
Y317629D01*
X374791D01*
Y317647D01*
X374879D01*
Y317664D01*
X374985D01*
Y317682D01*
X375090D01*
Y317699D01*
X375196D01*
Y317717D01*
X375302D01*
Y317735D01*
X375407D01*
Y317752D01*
X375513D01*
Y317770D01*
X375636D01*
Y317788D01*
X375742D01*
Y317805D01*
X375866D01*
Y317823D01*
X376006D01*
Y317840D01*
X376130D01*
Y317858D01*
X376271D01*
Y317876D01*
X376429D01*
Y317893D01*
X376588D01*
Y317911D01*
X376799D01*
Y317929D01*
X377204D01*
Y317946D01*
X378949D01*
Y317929D01*
X379283D01*
Y317911D01*
X379495D01*
Y317893D01*
X379671D01*
Y317876D01*
X379830D01*
Y317858D01*
X380006D01*
Y317840D01*
X380164D01*
Y317823D01*
X380323D01*
Y317805D01*
X380482D01*
Y317788D01*
X380640D01*
Y317770D01*
X380781D01*
Y317752D01*
X380922D01*
Y317735D01*
X381081D01*
Y317717D01*
X381222D01*
Y317699D01*
X381363D01*
Y317682D01*
X381486D01*
Y317664D01*
X381627D01*
Y317647D01*
X381768D01*
Y317629D01*
X381891D01*
Y317611D01*
X382032D01*
Y317594D01*
X382155D01*
Y317576D01*
X382279D01*
Y317559D01*
X382384D01*
Y317541D01*
X382508D01*
Y317523D01*
X382613D01*
Y317506D01*
X382719D01*
Y317488D01*
X382825D01*
Y317470D01*
X382931D01*
Y317453D01*
X383019D01*
Y317435D01*
X383124D01*
Y317418D01*
X383212D01*
Y317400D01*
X383301D01*
Y317382D01*
X383389D01*
Y317365D01*
X383477D01*
Y317347D01*
X383565D01*
Y317329D01*
X383653D01*
Y317312D01*
X383723D01*
Y317294D01*
X383811D01*
Y317277D01*
X383900D01*
Y317259D01*
X383988D01*
Y317241D01*
X384076D01*
Y317224D01*
X384146D01*
Y317206D01*
X384234D01*
Y317189D01*
X384323D01*
Y317171D01*
X384411D01*
Y317153D01*
X384499D01*
Y317136D01*
X384587D01*
Y317118D01*
X384657D01*
Y317100D01*
X384745D01*
Y317083D01*
X384833D01*
Y317065D01*
X384922D01*
Y317048D01*
X385010D01*
Y317030D01*
X385098D01*
Y317012D01*
X385186D01*
Y316995D01*
X385274D01*
Y316977D01*
X385362D01*
Y316959D01*
X385468D01*
Y316942D01*
X385556D01*
Y316924D01*
X385662D01*
Y316907D01*
X385750D01*
Y316889D01*
X385855D01*
Y316871D01*
X385961D01*
Y316854D01*
X386067D01*
Y316836D01*
X386190D01*
Y316818D01*
X386313D01*
Y316801D01*
X386454D01*
Y316783D01*
X386613D01*
Y316766D01*
X386789D01*
Y316748D01*
X387018D01*
Y316730D01*
X387318D01*
Y316713D01*
X388022D01*
Y316695D01*
X388586D01*
Y316713D01*
X389150D01*
Y316730D01*
X389432D01*
Y316748D01*
X389661D01*
Y316766D01*
X389837D01*
Y316783D01*
X390013D01*
Y316801D01*
X390154D01*
Y316818D01*
X390295D01*
Y316836D01*
X390436D01*
Y316854D01*
X390560D01*
Y316871D01*
X390701D01*
Y316889D01*
X390806D01*
Y316907D01*
X390930D01*
Y316924D01*
X391053D01*
Y316942D01*
X391159D01*
Y316959D01*
X391264D01*
Y316977D01*
X391370D01*
Y316995D01*
X391476D01*
Y317012D01*
X391581D01*
Y317030D01*
X391687D01*
Y317048D01*
X391775D01*
Y317065D01*
X391881D01*
Y317083D01*
X391987D01*
Y317100D01*
X392092D01*
Y317118D01*
X392180D01*
Y317136D01*
X392286D01*
Y317153D01*
X392374D01*
Y317171D01*
X392480D01*
Y317189D01*
X392568D01*
Y317206D01*
X392674D01*
Y317224D01*
X392762D01*
Y317241D01*
X392868D01*
Y317259D01*
X392956D01*
Y317277D01*
X393044D01*
Y317294D01*
X393149D01*
Y317312D01*
X393238D01*
Y317329D01*
X393326D01*
Y317347D01*
X393431D01*
Y317365D01*
X393519D01*
Y317382D01*
X393608D01*
Y317400D01*
X393713D01*
Y317418D01*
X393801D01*
Y317435D01*
X393889D01*
Y317453D01*
X393995D01*
Y317470D01*
X394083D01*
Y317488D01*
X394189D01*
Y317506D01*
X394295D01*
Y317523D01*
X394383D01*
Y317541D01*
X394489D01*
Y317559D01*
X394594D01*
Y317576D01*
X394682D01*
Y317594D01*
X394788D01*
Y317611D01*
X394894D01*
Y317629D01*
X395000D01*
Y317647D01*
X395105D01*
Y317664D01*
X395211D01*
Y317682D01*
X395317D01*
Y317699D01*
X395422D01*
Y317717D01*
X395546D01*
Y317735D01*
X395651D01*
Y317752D01*
X395775D01*
Y317770D01*
X395898D01*
Y317788D01*
X396021D01*
Y317805D01*
X396145D01*
Y317823D01*
X396268D01*
Y317840D01*
X396409D01*
Y317858D01*
X396568D01*
Y317876D01*
X396726D01*
Y317893D01*
X396885D01*
Y317911D01*
X397096D01*
Y317929D01*
X397307D01*
Y317946D01*
X397589D01*
Y317964D01*
X397942D01*
Y317981D01*
X398787D01*
Y317964D01*
D02*
G37*
G36*
X388551Y304732D02*
X388569D01*
Y304714D01*
X388586D01*
Y304644D01*
X388569D01*
Y304573D01*
X388551D01*
Y304485D01*
X388533D01*
Y304415D01*
X388516D01*
Y304327D01*
X388498D01*
Y304256D01*
X388480D01*
Y304168D01*
X388463D01*
Y304098D01*
X388445D01*
Y304027D01*
X388428D01*
Y303939D01*
X388410D01*
Y303869D01*
X388392D01*
Y303781D01*
X388375D01*
Y303710D01*
X388357D01*
Y303622D01*
X388340D01*
Y303587D01*
X388322D01*
Y303569D01*
X387917D01*
Y303587D01*
X387899D01*
Y303604D01*
X387881D01*
Y303816D01*
X387864D01*
Y303957D01*
X387846D01*
Y304063D01*
X387829D01*
Y304115D01*
X387811D01*
Y304168D01*
X387793D01*
Y304203D01*
X387776D01*
Y304239D01*
X387758D01*
Y304256D01*
X387740D01*
Y304274D01*
X387705D01*
Y304292D01*
X387670D01*
Y304309D01*
X387564D01*
Y304327D01*
X386384D01*
Y304274D01*
X386366D01*
Y304203D01*
X386349D01*
Y304115D01*
X386331D01*
Y304027D01*
X386313D01*
Y303957D01*
X386296D01*
Y303869D01*
X386278D01*
Y303798D01*
X386261D01*
Y303710D01*
X386243D01*
Y303622D01*
X386225D01*
Y303552D01*
X386208D01*
Y303463D01*
X386190D01*
Y303393D01*
X386172D01*
Y303305D01*
X386155D01*
Y303217D01*
X386137D01*
Y303146D01*
X386120D01*
Y303058D01*
X386102D01*
Y302988D01*
X386084D01*
Y302900D01*
X386067D01*
Y302812D01*
X386049D01*
Y302741D01*
X386032D01*
Y302653D01*
X386014D01*
Y302635D01*
X386736D01*
Y302653D01*
X386807D01*
Y302671D01*
X386842D01*
Y302688D01*
X386877D01*
Y302706D01*
X386912D01*
Y302723D01*
X386930D01*
Y302741D01*
X386948D01*
Y302759D01*
X386965D01*
Y302776D01*
X386983D01*
Y302794D01*
X387000D01*
Y302812D01*
X387018D01*
Y302829D01*
X387036D01*
Y302864D01*
X387053D01*
Y302882D01*
X387071D01*
Y302917D01*
X387089D01*
Y302935D01*
X387106D01*
Y302970D01*
X387124D01*
Y303005D01*
X387141D01*
Y303041D01*
X387159D01*
Y303076D01*
X387177D01*
Y303093D01*
X387194D01*
Y303111D01*
X387212D01*
Y303129D01*
X387582D01*
Y303111D01*
X387600D01*
Y303093D01*
X387617D01*
Y303023D01*
X387600D01*
Y302953D01*
X387582D01*
Y302864D01*
X387564D01*
Y302794D01*
X387547D01*
Y302723D01*
X387529D01*
Y302653D01*
X387511D01*
Y302565D01*
X387494D01*
Y302494D01*
X387476D01*
Y302424D01*
X387459D01*
Y302336D01*
X387441D01*
Y302265D01*
X387423D01*
Y302195D01*
X387406D01*
Y302124D01*
X387388D01*
Y302036D01*
X387370D01*
Y301966D01*
X387353D01*
Y301895D01*
X387335D01*
Y301825D01*
X387318D01*
Y301737D01*
X387300D01*
Y301701D01*
X387282D01*
Y301684D01*
X387247D01*
Y301666D01*
X386930D01*
Y301684D01*
X386912D01*
Y301701D01*
X386895D01*
Y301719D01*
X386877D01*
Y302019D01*
X386860D01*
Y302089D01*
X386842D01*
Y302124D01*
X386824D01*
Y302160D01*
X386807D01*
Y302177D01*
X386754D01*
Y302195D01*
X385926D01*
Y302160D01*
X385908D01*
Y302089D01*
X385891D01*
Y302001D01*
X385873D01*
Y301931D01*
X385855D01*
Y301842D01*
X385838D01*
Y301772D01*
X385820D01*
Y301684D01*
X385803D01*
Y301613D01*
X385785D01*
Y301525D01*
X385767D01*
Y301455D01*
X385750D01*
Y301367D01*
X385732D01*
Y301296D01*
X385714D01*
Y301208D01*
X385697D01*
Y301138D01*
X385679D01*
Y301050D01*
X385662D01*
Y300979D01*
X385644D01*
Y300891D01*
X385626D01*
Y300821D01*
X385609D01*
Y300732D01*
X385591D01*
Y300662D01*
X385573D01*
Y300574D01*
X385556D01*
Y300503D01*
X385538D01*
Y300415D01*
X385521D01*
Y300345D01*
X385503D01*
Y300327D01*
X386631D01*
Y300345D01*
X386719D01*
Y300362D01*
X386771D01*
Y300380D01*
X386807D01*
Y300398D01*
X386842D01*
Y300415D01*
X386877D01*
Y300433D01*
X386895D01*
Y300451D01*
X386930D01*
Y300468D01*
X386948D01*
Y300486D01*
X386965D01*
Y300503D01*
X386983D01*
Y300521D01*
X387000D01*
Y300539D01*
X387018D01*
Y300556D01*
X387036D01*
Y300574D01*
X387053D01*
Y300592D01*
X387071D01*
Y300609D01*
X387089D01*
Y300644D01*
X387106D01*
Y300662D01*
X387124D01*
Y300680D01*
X387141D01*
Y300715D01*
X387159D01*
Y300750D01*
X387177D01*
Y300768D01*
X387194D01*
Y300803D01*
X387212D01*
Y300838D01*
X387230D01*
Y300856D01*
X387247D01*
Y300891D01*
X387265D01*
Y300926D01*
X387282D01*
Y300962D01*
X387300D01*
Y300997D01*
X387318D01*
Y301014D01*
X387335D01*
Y301050D01*
X387353D01*
Y301085D01*
X387370D01*
Y301120D01*
X387388D01*
Y301155D01*
X387406D01*
Y301191D01*
X387423D01*
Y301208D01*
X387459D01*
Y301226D01*
X387829D01*
Y301208D01*
X387846D01*
Y301191D01*
X387864D01*
Y301102D01*
X387846D01*
Y301032D01*
X387829D01*
Y300962D01*
X387811D01*
Y300891D01*
X387793D01*
Y300821D01*
X387776D01*
Y300750D01*
X387758D01*
Y300680D01*
X387740D01*
Y300609D01*
X387723D01*
Y300539D01*
X387705D01*
Y300468D01*
X387688D01*
Y300415D01*
X387670D01*
Y300345D01*
X387652D01*
Y300274D01*
X387635D01*
Y300204D01*
X387617D01*
Y300133D01*
X387600D01*
Y300063D01*
X387582D01*
Y299992D01*
X387564D01*
Y299940D01*
X387547D01*
Y299904D01*
X384375D01*
Y299940D01*
X384358D01*
Y299992D01*
X384375D01*
Y300081D01*
X384393D01*
Y300151D01*
X384411D01*
Y300169D01*
X384428D01*
Y300186D01*
X384481D01*
Y300204D01*
X384552D01*
Y300222D01*
X384587D01*
Y300239D01*
X384622D01*
Y300257D01*
X384640D01*
Y300274D01*
X384657D01*
Y300292D01*
X384675D01*
Y300310D01*
X384693D01*
Y300327D01*
X384710D01*
Y300362D01*
X384728D01*
Y300398D01*
X384745D01*
Y300433D01*
X384763D01*
Y300486D01*
X384781D01*
Y300539D01*
X384798D01*
Y300592D01*
X384816D01*
Y300662D01*
X384833D01*
Y300732D01*
X384851D01*
Y300803D01*
X384869D01*
Y300873D01*
X384886D01*
Y300962D01*
X384904D01*
Y301032D01*
X384922D01*
Y301120D01*
X384939D01*
Y301191D01*
X384957D01*
Y301279D01*
X384974D01*
Y301349D01*
X384992D01*
Y301437D01*
X385010D01*
Y301508D01*
X385027D01*
Y301596D01*
X385045D01*
Y301666D01*
X385063D01*
Y301754D01*
X385080D01*
Y301825D01*
X385098D01*
Y301913D01*
X385115D01*
Y301983D01*
X385133D01*
Y302071D01*
X385151D01*
Y302160D01*
X385168D01*
Y302230D01*
X385186D01*
Y302318D01*
X385203D01*
Y302389D01*
X385221D01*
Y302477D01*
X385239D01*
Y302547D01*
X385256D01*
Y302635D01*
X385274D01*
Y302706D01*
X385292D01*
Y302794D01*
X385309D01*
Y302864D01*
X385327D01*
Y302953D01*
X385344D01*
Y303023D01*
X385362D01*
Y303111D01*
X385380D01*
Y303182D01*
X385397D01*
Y303270D01*
X385415D01*
Y303358D01*
X385433D01*
Y303428D01*
X385450D01*
Y303516D01*
X385468D01*
Y303587D01*
X385485D01*
Y303675D01*
X385503D01*
Y303763D01*
X385521D01*
Y303851D01*
X385538D01*
Y303957D01*
X385556D01*
Y304098D01*
X385573D01*
Y304292D01*
X385556D01*
Y304344D01*
X385538D01*
Y304380D01*
X385521D01*
Y304397D01*
X385503D01*
Y304415D01*
X385450D01*
Y304433D01*
X385397D01*
Y304450D01*
X385274D01*
Y304468D01*
X385256D01*
Y304485D01*
X385239D01*
Y304609D01*
X385256D01*
Y304679D01*
X385274D01*
Y304732D01*
X385292D01*
Y304750D01*
X388551D01*
Y304732D01*
D02*
G37*
G36*
X384058D02*
X384076D01*
Y304609D01*
X384058D01*
Y304538D01*
X384041D01*
Y304485D01*
X384023D01*
Y304468D01*
X383988D01*
Y304450D01*
X383917D01*
Y304433D01*
X383864D01*
Y304415D01*
X383829D01*
Y304397D01*
X383811D01*
Y304380D01*
X383776D01*
Y304344D01*
X383759D01*
Y304327D01*
X383741D01*
Y304309D01*
X383723D01*
Y304274D01*
X383706D01*
Y304221D01*
X383688D01*
Y304186D01*
X383671D01*
Y304133D01*
X383653D01*
Y304080D01*
X383635D01*
Y304010D01*
X383618D01*
Y303939D01*
X383600D01*
Y303869D01*
X383582D01*
Y303798D01*
X383565D01*
Y303728D01*
X383547D01*
Y303657D01*
X383530D01*
Y303569D01*
X383512D01*
Y303499D01*
X383494D01*
Y303411D01*
X383477D01*
Y303323D01*
X383459D01*
Y303252D01*
X383441D01*
Y303164D01*
X383424D01*
Y303093D01*
X383406D01*
Y303005D01*
X383389D01*
Y302935D01*
X383371D01*
Y302847D01*
X383353D01*
Y302776D01*
X383336D01*
Y302688D01*
X383318D01*
Y302618D01*
X383301D01*
Y302530D01*
X383283D01*
Y302459D01*
X383265D01*
Y302371D01*
X383248D01*
Y302283D01*
X383230D01*
Y302213D01*
X383212D01*
Y302124D01*
X383195D01*
Y302054D01*
X383177D01*
Y301966D01*
X383160D01*
Y301895D01*
X383142D01*
Y301807D01*
X383124D01*
Y301737D01*
X383107D01*
Y301649D01*
X383089D01*
Y301578D01*
X383071D01*
Y301490D01*
X383054D01*
Y301402D01*
X383036D01*
Y301332D01*
X383019D01*
Y301243D01*
X383001D01*
Y301173D01*
X382983D01*
Y301085D01*
X382966D01*
Y301014D01*
X382948D01*
Y300926D01*
X382931D01*
Y300856D01*
X382913D01*
Y300750D01*
X382895D01*
Y300644D01*
X382878D01*
Y300327D01*
X382895D01*
Y300274D01*
X382913D01*
Y300257D01*
X382931D01*
Y300239D01*
X382966D01*
Y300222D01*
X383019D01*
Y300204D01*
X383107D01*
Y300186D01*
X383177D01*
Y300169D01*
X383195D01*
Y300151D01*
X383212D01*
Y300081D01*
X383195D01*
Y300010D01*
X383177D01*
Y299940D01*
X383160D01*
Y299904D01*
X381680D01*
Y299922D01*
X381662D01*
Y300010D01*
X381680D01*
Y300081D01*
X381697D01*
Y300151D01*
X381715D01*
Y300169D01*
X381733D01*
Y300186D01*
X381785D01*
Y300204D01*
X381856D01*
Y300222D01*
X381891D01*
Y300239D01*
X381926D01*
Y300257D01*
X381944D01*
Y300274D01*
X381962D01*
Y300292D01*
X381979D01*
Y300310D01*
X381997D01*
Y300345D01*
X382014D01*
Y300380D01*
X382032D01*
Y300415D01*
X382050D01*
Y300451D01*
X382067D01*
Y300503D01*
X382085D01*
Y300539D01*
X382102D01*
Y300609D01*
X382120D01*
Y300680D01*
X382138D01*
Y300750D01*
X382155D01*
Y300821D01*
X382173D01*
Y300891D01*
X382191D01*
Y300979D01*
X382208D01*
Y301050D01*
X382226D01*
Y301138D01*
X382243D01*
Y301208D01*
X382261D01*
Y301296D01*
X382279D01*
Y301367D01*
X382296D01*
Y301455D01*
X382314D01*
Y301525D01*
X382332D01*
Y301613D01*
X382349D01*
Y301666D01*
Y301684D01*
X382367D01*
Y301772D01*
X382384D01*
Y301842D01*
X382402D01*
Y301931D01*
X382420D01*
Y302001D01*
X382437D01*
Y302089D01*
X382455D01*
Y302160D01*
X382472D01*
Y302213D01*
X380746D01*
Y302195D01*
X380728D01*
Y302107D01*
X380711D01*
Y302036D01*
X380693D01*
Y301948D01*
X380675D01*
Y301878D01*
X380658D01*
Y301790D01*
X380640D01*
Y301701D01*
X380623D01*
Y301631D01*
X380605D01*
Y301543D01*
X380587D01*
Y301472D01*
X380570D01*
Y301384D01*
X380552D01*
Y301314D01*
X380534D01*
Y301226D01*
X380517D01*
Y301155D01*
X380499D01*
Y301067D01*
X380482D01*
Y300979D01*
X380464D01*
Y300909D01*
X380446D01*
Y300821D01*
X380429D01*
Y300732D01*
X380411D01*
Y300592D01*
X380394D01*
Y300345D01*
X380411D01*
Y300292D01*
X380429D01*
Y300257D01*
X380464D01*
Y300239D01*
X380482D01*
Y300222D01*
X380534D01*
Y300204D01*
X380640D01*
Y300186D01*
X380711D01*
Y300169D01*
X380728D01*
Y300063D01*
X380711D01*
Y299975D01*
X380693D01*
Y299922D01*
X380675D01*
Y299904D01*
X379195D01*
Y299940D01*
X379178D01*
Y299975D01*
X379195D01*
Y300063D01*
X379213D01*
Y300133D01*
X379231D01*
Y300169D01*
X379248D01*
Y300186D01*
X379301D01*
Y300204D01*
X379372D01*
Y300222D01*
X379424D01*
Y300239D01*
X379442D01*
Y300257D01*
X379460D01*
Y300274D01*
X379477D01*
Y300292D01*
X379495D01*
Y300310D01*
X379513D01*
Y300327D01*
X379530D01*
Y300362D01*
X379548D01*
Y300398D01*
X379565D01*
Y300433D01*
X379583D01*
Y300486D01*
X379601D01*
Y300539D01*
X379618D01*
Y300592D01*
X379636D01*
Y300644D01*
X379654D01*
Y300732D01*
X379671D01*
Y300803D01*
X379689D01*
Y300873D01*
X379706D01*
Y300944D01*
X379724D01*
Y301032D01*
X379742D01*
Y301102D01*
X379759D01*
Y301191D01*
X379777D01*
Y301261D01*
X379795D01*
Y301349D01*
X379812D01*
Y301420D01*
X379830D01*
Y301508D01*
X379847D01*
Y301578D01*
X379865D01*
Y301666D01*
X379883D01*
Y301737D01*
X379900D01*
Y301825D01*
X379918D01*
Y301913D01*
X379935D01*
Y301983D01*
X379953D01*
Y302071D01*
X379971D01*
Y302142D01*
X379988D01*
Y302230D01*
X380006D01*
Y302301D01*
X380024D01*
Y302389D01*
X380041D01*
Y302459D01*
X380059D01*
Y302547D01*
X380076D01*
Y302618D01*
X380094D01*
Y302706D01*
X380112D01*
Y302776D01*
X380129D01*
Y302864D01*
X380147D01*
Y302935D01*
X380164D01*
Y303023D01*
X380182D01*
Y303111D01*
X380200D01*
Y303182D01*
X380217D01*
Y303270D01*
X380235D01*
Y303340D01*
X380253D01*
Y303428D01*
X380270D01*
Y303499D01*
X380288D01*
Y303587D01*
X380305D01*
Y303657D01*
X380323D01*
Y303745D01*
X380341D01*
Y303833D01*
X380358D01*
Y303957D01*
X380376D01*
Y304098D01*
X380394D01*
Y304292D01*
X380376D01*
Y304344D01*
X380358D01*
Y304380D01*
X380341D01*
Y304397D01*
X380323D01*
Y304415D01*
X380288D01*
Y304433D01*
X380217D01*
Y304450D01*
X380112D01*
Y304468D01*
X380076D01*
Y304485D01*
X380059D01*
Y304591D01*
X380076D01*
Y304679D01*
X380094D01*
Y304714D01*
X380112D01*
Y304750D01*
X381574D01*
Y304732D01*
X381592D01*
Y304697D01*
X381609D01*
Y304661D01*
X381592D01*
Y304591D01*
X381574D01*
Y304503D01*
X381556D01*
Y304485D01*
X381539D01*
Y304468D01*
X381521D01*
Y304450D01*
X381451D01*
Y304433D01*
X381398D01*
Y304415D01*
X381345D01*
Y304397D01*
X381327D01*
Y304380D01*
X381310D01*
Y304362D01*
X381292D01*
Y304344D01*
X381274D01*
Y304327D01*
X381257D01*
Y304292D01*
X381239D01*
Y304256D01*
X381222D01*
Y304221D01*
X381204D01*
Y304168D01*
X381186D01*
Y304115D01*
X381169D01*
Y304063D01*
X381151D01*
Y303992D01*
X381134D01*
Y303922D01*
X381116D01*
Y303851D01*
X381098D01*
Y303781D01*
X381081D01*
Y303710D01*
X381063D01*
Y303622D01*
X381045D01*
Y303552D01*
X381028D01*
Y303463D01*
X381010D01*
Y303393D01*
X380993D01*
Y303305D01*
X380975D01*
Y303234D01*
X380957D01*
Y303146D01*
X380940D01*
Y303076D01*
X380922D01*
Y302988D01*
X380904D01*
Y302917D01*
X380887D01*
Y302829D01*
X380869D01*
Y302759D01*
X380852D01*
Y302653D01*
X382561D01*
Y302671D01*
X382578D01*
Y302723D01*
X382596D01*
Y302812D01*
X382613D01*
Y302882D01*
X382631D01*
Y302970D01*
X382649D01*
Y303041D01*
X382666D01*
Y303129D01*
X382684D01*
Y303199D01*
X382701D01*
Y303287D01*
X382719D01*
Y303358D01*
X382737D01*
Y303446D01*
X382754D01*
Y303516D01*
X382772D01*
Y303604D01*
X382790D01*
Y303675D01*
X382807D01*
Y303763D01*
X382825D01*
Y303869D01*
X382842D01*
Y303992D01*
X382860D01*
Y304151D01*
X382878D01*
Y304256D01*
X382860D01*
Y304344D01*
X382842D01*
Y304380D01*
X382825D01*
Y304397D01*
X382790D01*
Y304415D01*
X382754D01*
Y304433D01*
X382701D01*
Y304450D01*
X382578D01*
Y304468D01*
X382543D01*
Y304503D01*
X382525D01*
Y304538D01*
X382543D01*
Y304626D01*
X382561D01*
Y304697D01*
X382578D01*
Y304732D01*
X382596D01*
Y304750D01*
X384058D01*
Y304732D01*
D02*
G37*
G36*
X395599D02*
X395616D01*
Y304714D01*
X395634D01*
Y304644D01*
X395616D01*
Y304556D01*
X395599D01*
Y304503D01*
X395581D01*
Y304468D01*
X395546D01*
Y304450D01*
X395475D01*
Y304433D01*
X395422D01*
Y304415D01*
X395387D01*
Y304397D01*
X395352D01*
Y304380D01*
X395334D01*
Y304362D01*
X395317D01*
Y304327D01*
X395299D01*
Y304309D01*
X395281D01*
Y304274D01*
X395264D01*
Y304239D01*
X395246D01*
Y304203D01*
X395229D01*
Y304151D01*
X395211D01*
Y304098D01*
X395193D01*
Y304045D01*
X395176D01*
Y303974D01*
X395158D01*
Y303904D01*
X395140D01*
Y303833D01*
X395123D01*
Y303745D01*
X395105D01*
Y303675D01*
X395088D01*
Y303587D01*
X395070D01*
Y303516D01*
X395052D01*
Y303428D01*
X395035D01*
Y303358D01*
X395017D01*
Y303270D01*
X395000D01*
Y303199D01*
X394982D01*
Y303111D01*
X394964D01*
Y303023D01*
X394947D01*
Y302953D01*
X394929D01*
Y302864D01*
X394911D01*
Y302794D01*
X394894D01*
Y302706D01*
X394876D01*
Y302635D01*
X394859D01*
Y302547D01*
X394841D01*
Y302477D01*
X394823D01*
Y302389D01*
X394806D01*
Y302318D01*
X394788D01*
Y302230D01*
X394770D01*
Y302142D01*
X394753D01*
Y302071D01*
X394735D01*
Y301983D01*
X394718D01*
Y301913D01*
X394700D01*
Y301825D01*
X394682D01*
Y301754D01*
X394665D01*
Y301666D01*
X394647D01*
Y301596D01*
X394630D01*
Y301508D01*
X394612D01*
Y301420D01*
X394594D01*
Y301349D01*
X394577D01*
Y301261D01*
X394559D01*
Y301191D01*
X394541D01*
Y301102D01*
X394524D01*
Y301032D01*
X394506D01*
Y300944D01*
X394489D01*
Y300873D01*
X394471D01*
Y300785D01*
X394453D01*
Y300697D01*
X394436D01*
Y300627D01*
X394418D01*
Y300539D01*
X394400D01*
Y300468D01*
X394383D01*
Y300380D01*
X394365D01*
Y300345D01*
X395352D01*
Y300362D01*
X395440D01*
Y300380D01*
X395493D01*
Y300398D01*
X395546D01*
Y300415D01*
X395581D01*
Y300433D01*
X395599D01*
Y300451D01*
X395634D01*
Y300468D01*
X395651D01*
Y300486D01*
X395669D01*
Y300503D01*
X395687D01*
Y300521D01*
X395704D01*
Y300539D01*
X395722D01*
Y300556D01*
X395740D01*
Y300574D01*
X395757D01*
Y300592D01*
X395775D01*
Y300609D01*
X395792D01*
Y300627D01*
X395810D01*
Y300662D01*
X395828D01*
Y300680D01*
X395845D01*
Y300715D01*
X395863D01*
Y300732D01*
X395880D01*
Y300768D01*
X395898D01*
Y300785D01*
X395916D01*
Y300821D01*
X395933D01*
Y300856D01*
X395951D01*
Y300891D01*
X395969D01*
Y300926D01*
X395986D01*
Y300962D01*
X396004D01*
Y300997D01*
X396021D01*
Y301032D01*
X396039D01*
Y301067D01*
X396057D01*
Y301102D01*
X396074D01*
Y301155D01*
X396092D01*
Y301191D01*
X396110D01*
Y301226D01*
X396127D01*
Y301279D01*
X396145D01*
Y301314D01*
X396162D01*
Y301349D01*
X396180D01*
Y301367D01*
X396198D01*
Y301384D01*
X396585D01*
Y301367D01*
X396603D01*
Y301349D01*
X396620D01*
Y301261D01*
X396603D01*
Y301191D01*
X396585D01*
Y301138D01*
X396568D01*
Y301067D01*
X396550D01*
Y300997D01*
X396532D01*
Y300926D01*
X396515D01*
Y300856D01*
X396497D01*
Y300785D01*
X396479D01*
Y300715D01*
X396462D01*
Y300644D01*
X396444D01*
Y300574D01*
X396427D01*
Y300521D01*
X396409D01*
Y300451D01*
X396391D01*
Y300380D01*
X396374D01*
Y300310D01*
X396356D01*
Y300239D01*
X396339D01*
Y300169D01*
X396321D01*
Y300098D01*
X396303D01*
Y300028D01*
X396286D01*
Y299957D01*
X396268D01*
Y299922D01*
X396250D01*
Y299904D01*
X393238D01*
Y299922D01*
X393220D01*
Y300028D01*
X393238D01*
Y300116D01*
X393255D01*
Y300169D01*
X393273D01*
Y300186D01*
X393326D01*
Y300204D01*
X393396D01*
Y300222D01*
X393449D01*
Y300239D01*
X393484D01*
Y300257D01*
X393502D01*
Y300274D01*
X393519D01*
Y300292D01*
X393537D01*
Y300327D01*
X393555D01*
Y300345D01*
X393572D01*
Y300380D01*
X393590D01*
Y300415D01*
X393608D01*
Y300468D01*
X393625D01*
Y300521D01*
X393643D01*
Y300574D01*
X393660D01*
Y300627D01*
X393678D01*
Y300697D01*
X393696D01*
Y300768D01*
X393713D01*
Y300838D01*
X393731D01*
Y300926D01*
X393748D01*
Y300997D01*
X393766D01*
Y301085D01*
X393784D01*
Y301155D01*
X393801D01*
Y301243D01*
X393819D01*
Y301314D01*
X393837D01*
Y301402D01*
X393854D01*
Y301472D01*
X393872D01*
Y301561D01*
X393889D01*
Y301631D01*
X393907D01*
Y301719D01*
X393925D01*
Y301790D01*
X393942D01*
Y301878D01*
X393960D01*
Y301948D01*
X393978D01*
Y302036D01*
X393995D01*
Y302124D01*
X394013D01*
Y302195D01*
X394030D01*
Y302283D01*
X394048D01*
Y302354D01*
X394066D01*
Y302442D01*
X394083D01*
Y302512D01*
X394101D01*
Y302600D01*
X394118D01*
Y302671D01*
X394136D01*
Y302759D01*
X394154D01*
Y302829D01*
X394171D01*
Y302917D01*
X394189D01*
Y302988D01*
X394207D01*
Y303076D01*
X394224D01*
Y303146D01*
X394242D01*
Y303234D01*
X394260D01*
Y303323D01*
X394277D01*
Y303393D01*
X394295D01*
Y303481D01*
X394312D01*
Y303552D01*
X394330D01*
Y303640D01*
X394348D01*
Y303710D01*
X394365D01*
Y303798D01*
X394383D01*
Y303904D01*
X394400D01*
Y304027D01*
X394418D01*
Y304327D01*
X394400D01*
Y304362D01*
X394383D01*
Y304380D01*
X394365D01*
Y304397D01*
X394348D01*
Y304415D01*
X394312D01*
Y304433D01*
X394260D01*
Y304450D01*
X394136D01*
Y304468D01*
X394101D01*
Y304485D01*
X394083D01*
Y304573D01*
X394101D01*
Y304644D01*
X394118D01*
Y304714D01*
X394136D01*
Y304732D01*
X394154D01*
Y304750D01*
X395599D01*
Y304732D01*
D02*
G37*
G36*
X391617D02*
X391793D01*
Y304714D01*
X391899D01*
Y304697D01*
X391987D01*
Y304679D01*
X392057D01*
Y304661D01*
X392110D01*
Y304644D01*
X392163D01*
Y304626D01*
X392216D01*
Y304609D01*
X392251D01*
Y304591D01*
X392286D01*
Y304573D01*
X392321D01*
Y304556D01*
X392357D01*
Y304538D01*
X392374D01*
Y304521D01*
X392409D01*
Y304503D01*
X392427D01*
Y304485D01*
X392462D01*
Y304468D01*
X392480D01*
Y304450D01*
X392498D01*
Y304433D01*
X392515D01*
Y304415D01*
X392533D01*
Y304397D01*
X392550D01*
Y304380D01*
X392568D01*
Y304362D01*
X392586D01*
Y304344D01*
X392603D01*
Y304327D01*
X392621D01*
Y304292D01*
X392638D01*
Y304274D01*
X392656D01*
Y304239D01*
X392674D01*
Y304221D01*
X392691D01*
Y304186D01*
X392709D01*
Y304151D01*
X392727D01*
Y304098D01*
X392744D01*
Y304045D01*
X392762D01*
Y303992D01*
X392779D01*
Y303922D01*
X392797D01*
Y303833D01*
X392815D01*
Y303358D01*
X392797D01*
Y303252D01*
X392779D01*
Y303164D01*
X392762D01*
Y303093D01*
X392744D01*
Y303041D01*
X392727D01*
Y302988D01*
X392709D01*
Y302935D01*
X392691D01*
Y302900D01*
X392674D01*
Y302864D01*
X392656D01*
Y302829D01*
X392638D01*
Y302794D01*
X392621D01*
Y302759D01*
X392603D01*
Y302723D01*
X392586D01*
Y302706D01*
X392568D01*
Y302671D01*
X392550D01*
Y302653D01*
X392533D01*
Y302618D01*
X392515D01*
Y302600D01*
X392498D01*
Y302583D01*
X392480D01*
Y302547D01*
X392462D01*
Y302530D01*
X392445D01*
Y302512D01*
X392427D01*
Y302494D01*
X392409D01*
Y302477D01*
X392392D01*
Y302459D01*
X392374D01*
Y302442D01*
X392357D01*
Y302424D01*
X392339D01*
Y302406D01*
X392321D01*
Y302389D01*
X392304D01*
Y302371D01*
X392286D01*
Y302354D01*
X392269D01*
Y302336D01*
X392251D01*
Y302318D01*
X392233D01*
Y302301D01*
X392198D01*
Y302283D01*
X392180D01*
Y302265D01*
X392163D01*
Y302248D01*
X392128D01*
Y302230D01*
X392110D01*
Y302213D01*
X392075D01*
Y302195D01*
X392039D01*
Y302177D01*
X392022D01*
Y302160D01*
X391987D01*
Y302142D01*
X391951D01*
Y302124D01*
X391916D01*
Y302107D01*
X391881D01*
Y302089D01*
X391828D01*
Y302071D01*
X391775D01*
Y302054D01*
X391722D01*
Y302036D01*
X391687D01*
Y302019D01*
X391634D01*
Y302001D01*
X391546D01*
Y301983D01*
X391476D01*
Y301966D01*
X391405D01*
Y301948D01*
X391264D01*
Y301931D01*
X391141D01*
Y301913D01*
X390295D01*
Y301878D01*
X390278D01*
Y301807D01*
X390260D01*
Y301719D01*
X390242D01*
Y301631D01*
X390225D01*
Y301561D01*
X390207D01*
Y301472D01*
X390190D01*
Y301402D01*
X390172D01*
Y301314D01*
X390154D01*
Y301226D01*
X390137D01*
Y301155D01*
X390119D01*
Y301067D01*
X390101D01*
Y300997D01*
X390084D01*
Y300909D01*
X390066D01*
Y300821D01*
X390049D01*
Y300715D01*
X390031D01*
Y300574D01*
X390013D01*
Y300345D01*
X390031D01*
Y300292D01*
X390049D01*
Y300274D01*
X390066D01*
Y300257D01*
X390084D01*
Y300239D01*
X390101D01*
Y300222D01*
X390172D01*
Y300204D01*
X390278D01*
Y300186D01*
X390366D01*
Y300169D01*
X390383D01*
Y300045D01*
X390366D01*
Y299975D01*
X390348D01*
Y299922D01*
X390331D01*
Y299904D01*
X388815D01*
Y299940D01*
X388798D01*
Y299992D01*
X388815D01*
Y300063D01*
X388833D01*
Y300133D01*
X388850D01*
Y300169D01*
X388868D01*
Y300186D01*
X388921D01*
Y300204D01*
X388991D01*
Y300222D01*
X389044D01*
Y300239D01*
X389062D01*
Y300257D01*
X389080D01*
Y300274D01*
X389097D01*
Y300292D01*
X389115D01*
Y300310D01*
X389132D01*
Y300327D01*
X389150D01*
Y300362D01*
X389168D01*
Y300398D01*
X389185D01*
Y300433D01*
X389203D01*
Y300486D01*
X389220D01*
Y300539D01*
X389238D01*
Y300592D01*
X389256D01*
Y300644D01*
X389273D01*
Y300732D01*
X389291D01*
Y300803D01*
X389309D01*
Y300873D01*
X389326D01*
Y300944D01*
X389344D01*
Y301032D01*
X389362D01*
Y301102D01*
X389379D01*
Y301191D01*
X389397D01*
Y301261D01*
X389414D01*
Y301349D01*
X389432D01*
Y301420D01*
X389450D01*
Y301508D01*
X389467D01*
Y301578D01*
X389485D01*
Y301596D01*
Y301613D01*
Y301666D01*
X389502D01*
Y301737D01*
X389520D01*
Y301825D01*
X389538D01*
Y301913D01*
X389555D01*
Y301983D01*
X389573D01*
Y302071D01*
X389591D01*
Y302142D01*
X389608D01*
Y302230D01*
X389626D01*
Y302301D01*
X389643D01*
Y302389D01*
X389661D01*
Y302459D01*
X389679D01*
Y302547D01*
X389696D01*
Y302618D01*
X389714D01*
Y302706D01*
X389731D01*
Y302776D01*
X389749D01*
Y302864D01*
X389767D01*
Y302935D01*
X389784D01*
Y303023D01*
X389802D01*
Y303111D01*
X389820D01*
Y303182D01*
X389837D01*
Y303270D01*
X389855D01*
Y303340D01*
X389872D01*
Y303428D01*
X389890D01*
Y303499D01*
X389908D01*
Y303587D01*
X389925D01*
Y303657D01*
X389943D01*
Y303745D01*
X389961D01*
Y303833D01*
X389978D01*
Y303939D01*
X389996D01*
Y304063D01*
X390013D01*
Y304292D01*
X389996D01*
Y304344D01*
X389978D01*
Y304380D01*
X389961D01*
Y304397D01*
X389943D01*
Y304415D01*
X389908D01*
Y304433D01*
X389837D01*
Y304450D01*
X389731D01*
Y304468D01*
X389696D01*
Y304485D01*
X389679D01*
Y304591D01*
X389696D01*
Y304679D01*
X389714D01*
Y304714D01*
X389731D01*
Y304750D01*
X391617D01*
Y304732D01*
D02*
G37*
%LPC*%
G36*
X396885Y317206D02*
X396339D01*
Y317189D01*
X395951D01*
Y317171D01*
X395651D01*
Y317153D01*
X395422D01*
Y317136D01*
X395246D01*
Y317118D01*
X395088D01*
Y317100D01*
X394947D01*
Y317083D01*
X394823D01*
Y317065D01*
X394718D01*
Y317048D01*
X394612D01*
Y317030D01*
X394489D01*
Y317012D01*
X394400D01*
Y316995D01*
X394312D01*
Y316977D01*
X394224D01*
Y316959D01*
X394136D01*
Y316942D01*
X394066D01*
Y316924D01*
X393978D01*
Y316907D01*
X393907D01*
Y316889D01*
X393837D01*
Y316871D01*
X393748D01*
Y316854D01*
X393678D01*
Y316836D01*
X393608D01*
Y316818D01*
X393537D01*
Y316801D01*
X393467D01*
Y316783D01*
X393414D01*
Y316766D01*
X393343D01*
Y316748D01*
X393273D01*
Y316730D01*
X393220D01*
Y316713D01*
X393149D01*
Y316695D01*
X393097D01*
Y316677D01*
X393044D01*
Y316660D01*
X392973D01*
Y316642D01*
X392920D01*
Y316625D01*
X392868D01*
Y316607D01*
X392815D01*
Y316589D01*
X392762D01*
Y316572D01*
X392709D01*
Y316554D01*
X392656D01*
Y316537D01*
X392603D01*
Y316519D01*
X392550D01*
Y316501D01*
X392515D01*
Y316484D01*
X392462D01*
Y316466D01*
X392427D01*
Y316448D01*
X392374D01*
Y316431D01*
X392321D01*
Y316413D01*
X392286D01*
Y316396D01*
X392251D01*
Y316378D01*
X392198D01*
Y316360D01*
X392163D01*
Y316343D01*
X392128D01*
Y316325D01*
X392092D01*
Y316307D01*
X392039D01*
Y316290D01*
X392004D01*
Y316272D01*
X391969D01*
Y316255D01*
X391934D01*
Y316237D01*
X391899D01*
Y316219D01*
X391863D01*
Y316202D01*
X391828D01*
Y316184D01*
X391793D01*
Y316167D01*
X391758D01*
Y316149D01*
X391740D01*
Y316131D01*
X391705D01*
Y316114D01*
X391670D01*
Y316096D01*
X391652D01*
Y316078D01*
X391617D01*
Y316061D01*
X391581D01*
Y316043D01*
X391564D01*
Y316026D01*
X391529D01*
Y316008D01*
X391493D01*
Y315990D01*
X391476D01*
Y315973D01*
X391441D01*
Y315955D01*
X391423D01*
Y315937D01*
X391405D01*
Y315920D01*
X391370D01*
Y315902D01*
X391352D01*
Y315885D01*
X391317D01*
Y315867D01*
X391300D01*
Y315849D01*
X391282D01*
Y315832D01*
X391264D01*
Y315814D01*
X391229D01*
Y315797D01*
X391211D01*
Y315779D01*
X391194D01*
Y315761D01*
X391176D01*
Y315744D01*
X391141D01*
Y315726D01*
X391123D01*
Y315708D01*
X391106D01*
Y315691D01*
X391088D01*
Y315673D01*
X391071D01*
Y315656D01*
X391053D01*
Y315638D01*
X391035D01*
Y315620D01*
X391018D01*
Y315603D01*
X391000D01*
Y315585D01*
X390982D01*
Y315567D01*
X390965D01*
Y315550D01*
X390947D01*
Y315532D01*
X390930D01*
Y315497D01*
X390912D01*
Y315479D01*
X390894D01*
Y315462D01*
X390877D01*
Y315444D01*
X390859D01*
Y315427D01*
X390841D01*
Y315391D01*
X390824D01*
Y315374D01*
X390806D01*
Y315356D01*
X390789D01*
Y315321D01*
X390771D01*
Y315303D01*
X390753D01*
Y315268D01*
X390736D01*
Y315250D01*
X390718D01*
Y315215D01*
X390701D01*
Y315180D01*
X390683D01*
Y315162D01*
X390665D01*
Y315127D01*
X390648D01*
Y315092D01*
X390630D01*
Y315057D01*
X390612D01*
Y315021D01*
X390595D01*
Y314986D01*
X390577D01*
Y314933D01*
X390560D01*
Y314898D01*
X390542D01*
Y314845D01*
X390524D01*
Y314792D01*
X390507D01*
Y314739D01*
X390489D01*
Y314687D01*
X390471D01*
Y314616D01*
X390454D01*
Y314493D01*
X390436D01*
Y314281D01*
X390419D01*
Y313929D01*
X390436D01*
Y313682D01*
X390454D01*
Y313524D01*
X390471D01*
Y313418D01*
X390489D01*
Y313330D01*
X390507D01*
Y313260D01*
X390524D01*
Y313189D01*
X390542D01*
Y313119D01*
X390560D01*
Y313066D01*
X390577D01*
Y312995D01*
X390595D01*
Y312942D01*
X390612D01*
Y312872D01*
X390630D01*
Y312819D01*
X390648D01*
Y312766D01*
X390665D01*
Y312713D01*
X390683D01*
Y312660D01*
X390701D01*
Y312608D01*
X390718D01*
Y312555D01*
X390736D01*
Y312502D01*
X390753D01*
Y312449D01*
X390771D01*
Y312396D01*
X390789D01*
Y312343D01*
X390806D01*
Y312291D01*
X390824D01*
Y312255D01*
X390841D01*
Y312202D01*
X390859D01*
Y312150D01*
X390877D01*
Y312114D01*
X390894D01*
Y312061D01*
X390912D01*
Y312026D01*
X390930D01*
Y311973D01*
X390947D01*
Y311938D01*
X390965D01*
Y311885D01*
X390982D01*
Y311850D01*
X391000D01*
Y311815D01*
X391018D01*
Y311779D01*
X391035D01*
Y311727D01*
X391053D01*
Y311691D01*
X391071D01*
Y311656D01*
X391088D01*
Y311603D01*
X391106D01*
Y311568D01*
X391123D01*
Y311533D01*
X391141D01*
Y311498D01*
X391159D01*
Y311462D01*
X391176D01*
Y311427D01*
X391194D01*
Y311374D01*
X391211D01*
Y311339D01*
X391229D01*
Y311304D01*
X391247D01*
Y311269D01*
X391264D01*
Y311233D01*
X391282D01*
Y311198D01*
X391300D01*
Y311163D01*
X391317D01*
Y311128D01*
X391335D01*
Y311092D01*
X391352D01*
Y311057D01*
X391370D01*
Y311022D01*
X391388D01*
Y310987D01*
X391405D01*
Y310951D01*
X391423D01*
Y310916D01*
X391441D01*
Y310881D01*
X391458D01*
Y310846D01*
X391476D01*
Y310810D01*
X391493D01*
Y310775D01*
X391511D01*
Y310740D01*
X391529D01*
Y310705D01*
X391546D01*
Y310669D01*
X391564D01*
Y310652D01*
X391581D01*
Y310617D01*
X391599D01*
Y310581D01*
X391617D01*
Y310546D01*
X391634D01*
Y310511D01*
X391652D01*
Y310476D01*
X391670D01*
Y310458D01*
X391687D01*
Y310423D01*
X391705D01*
Y310388D01*
X391722D01*
Y310352D01*
X391740D01*
Y310335D01*
X391758D01*
Y310299D01*
X391775D01*
Y310264D01*
X391793D01*
Y310229D01*
X391810D01*
Y310211D01*
X391828D01*
Y310176D01*
X391846D01*
Y310141D01*
X391863D01*
Y310123D01*
X391881D01*
Y310088D01*
X391899D01*
Y310070D01*
X391916D01*
Y310035D01*
X391934D01*
Y310000D01*
X391951D01*
Y309982D01*
X391969D01*
Y309947D01*
X391987D01*
Y309929D01*
X392004D01*
Y309894D01*
X392022D01*
Y309877D01*
X392039D01*
Y309841D01*
X392057D01*
Y309824D01*
X392075D01*
Y309789D01*
X392092D01*
Y309771D01*
X392110D01*
Y309753D01*
X392128D01*
Y309718D01*
X392145D01*
Y309700D01*
X392163D01*
Y309665D01*
X392180D01*
Y309648D01*
X392198D01*
Y309630D01*
X392216D01*
Y309612D01*
X392233D01*
Y309577D01*
X392251D01*
Y309559D01*
X392269D01*
Y309542D01*
X392286D01*
Y309524D01*
X392304D01*
Y309507D01*
X392321D01*
Y309471D01*
X392339D01*
Y309454D01*
X392357D01*
Y309436D01*
X392374D01*
Y309419D01*
X392392D01*
Y309383D01*
X392409D01*
Y309366D01*
X392427D01*
Y309348D01*
X392445D01*
Y309331D01*
X392462D01*
Y309313D01*
X392480D01*
Y309295D01*
X392498D01*
Y309278D01*
X392515D01*
Y309260D01*
X392533D01*
Y309242D01*
X392550D01*
Y309225D01*
X392568D01*
Y309207D01*
X392586D01*
Y309172D01*
X392603D01*
Y309154D01*
X392621D01*
Y309137D01*
X392638D01*
Y309119D01*
X392656D01*
Y309101D01*
X392674D01*
Y309084D01*
X392691D01*
Y309066D01*
X392727D01*
Y309049D01*
X392744D01*
Y309031D01*
X392762D01*
Y309013D01*
X392779D01*
Y308996D01*
X392797D01*
Y308978D01*
X392815D01*
Y308961D01*
X392832D01*
Y308943D01*
X392850D01*
Y308925D01*
X392868D01*
Y308908D01*
X392885D01*
Y308890D01*
X392903D01*
Y308872D01*
X392920D01*
Y308855D01*
X392938D01*
Y308837D01*
X392973D01*
Y308820D01*
X392991D01*
Y308802D01*
X393008D01*
Y308784D01*
X393026D01*
Y308767D01*
X393044D01*
Y308749D01*
X393061D01*
Y308731D01*
X393097D01*
Y308714D01*
X393114D01*
Y308696D01*
X393132D01*
Y308679D01*
X393149D01*
Y308661D01*
X393185D01*
Y308643D01*
X393202D01*
Y308626D01*
X393220D01*
Y308608D01*
X393238D01*
Y308591D01*
X393273D01*
Y308573D01*
X393290D01*
Y308555D01*
X393308D01*
Y308538D01*
X393343D01*
Y308520D01*
X393361D01*
Y308502D01*
X393396D01*
Y308485D01*
X393414D01*
Y308467D01*
X393449D01*
Y308450D01*
X393467D01*
Y308432D01*
X393484D01*
Y308414D01*
X393519D01*
Y308397D01*
X393537D01*
Y308379D01*
X393572D01*
Y308362D01*
X393590D01*
Y308344D01*
X393625D01*
Y308326D01*
X393660D01*
Y308309D01*
X393678D01*
Y308291D01*
X393713D01*
Y308273D01*
X393731D01*
Y308256D01*
X393766D01*
Y308238D01*
X393801D01*
Y308221D01*
X393819D01*
Y308203D01*
X393854D01*
Y308185D01*
X393889D01*
Y308168D01*
X393925D01*
Y308150D01*
X393960D01*
Y308132D01*
X393995D01*
Y308115D01*
X394013D01*
Y308097D01*
X394048D01*
Y308080D01*
X394083D01*
Y308062D01*
X394118D01*
Y308044D01*
X394154D01*
Y308027D01*
X394189D01*
Y308009D01*
X394224D01*
Y307992D01*
X394277D01*
Y307974D01*
X394312D01*
Y307956D01*
X394348D01*
Y307939D01*
X394383D01*
Y307921D01*
X394418D01*
Y307903D01*
X394471D01*
Y307886D01*
X394506D01*
Y307868D01*
X394541D01*
Y307851D01*
X394594D01*
Y307833D01*
X394630D01*
Y307815D01*
X394682D01*
Y307798D01*
X394735D01*
Y307780D01*
X394770D01*
Y307762D01*
X394823D01*
Y307745D01*
X394876D01*
Y307727D01*
X394929D01*
Y307710D01*
X394982D01*
Y307692D01*
X395035D01*
Y307674D01*
X395105D01*
Y307657D01*
X395158D01*
Y307639D01*
X395211D01*
Y307622D01*
X395264D01*
Y307604D01*
X395334D01*
Y307586D01*
X395405D01*
Y307569D01*
X395475D01*
Y307551D01*
X395546D01*
Y307533D01*
X395634D01*
Y307516D01*
X395722D01*
Y307498D01*
X395810D01*
Y307481D01*
X395898D01*
Y307463D01*
X396004D01*
Y307445D01*
X396110D01*
Y307428D01*
X396233D01*
Y307410D01*
X396391D01*
Y307392D01*
X396550D01*
Y307375D01*
X396779D01*
Y307357D01*
X397713D01*
Y307375D01*
X398065D01*
Y307392D01*
X398294D01*
Y307410D01*
X398435D01*
Y307428D01*
X398576D01*
Y307445D01*
X398682D01*
Y307463D01*
X398787D01*
Y307481D01*
X398893D01*
Y307498D01*
X398999D01*
Y307516D01*
X399087D01*
Y307533D01*
X399175D01*
Y307551D01*
X399263D01*
Y307569D01*
X399351D01*
Y307586D01*
X399422D01*
Y307604D01*
X399510D01*
Y307622D01*
X399580D01*
Y307639D01*
X399651D01*
Y307657D01*
X399721D01*
Y307674D01*
X399792D01*
Y307692D01*
X399845D01*
Y307710D01*
X399915D01*
Y307727D01*
X399968D01*
Y307745D01*
X400003D01*
Y307762D01*
X400056D01*
Y307780D01*
X400109D01*
Y307798D01*
X400144D01*
Y307815D01*
X400197D01*
Y307833D01*
X400232D01*
Y307851D01*
X400268D01*
Y307868D01*
X400320D01*
Y307886D01*
X400356D01*
Y307903D01*
X400391D01*
Y307921D01*
X400426D01*
Y307939D01*
X400461D01*
Y307956D01*
X400496D01*
Y307974D01*
X400532D01*
Y307992D01*
X400567D01*
Y308009D01*
X400602D01*
Y308027D01*
X400637D01*
Y308044D01*
X400655D01*
Y308062D01*
X400690D01*
Y308080D01*
X400726D01*
Y308097D01*
X400761D01*
Y308115D01*
X400778D01*
Y308132D01*
X400814D01*
Y308150D01*
X400831D01*
Y308168D01*
X400867D01*
Y308185D01*
X400884D01*
Y308203D01*
X400919D01*
Y308221D01*
X400937D01*
Y308238D01*
X400972D01*
Y308256D01*
X400990D01*
Y308273D01*
X401025D01*
Y308291D01*
X401043D01*
Y308309D01*
X401060D01*
Y308326D01*
X401096D01*
Y308344D01*
X401113D01*
Y308362D01*
X401131D01*
Y308379D01*
X401148D01*
Y308397D01*
X401184D01*
Y308414D01*
X401201D01*
Y308432D01*
X401219D01*
Y308450D01*
X401236D01*
Y308467D01*
X401254D01*
Y308485D01*
X401289D01*
Y308502D01*
X401307D01*
Y308520D01*
X401325D01*
Y308538D01*
X401342D01*
Y308555D01*
X401360D01*
Y308573D01*
X401377D01*
Y308591D01*
X401395D01*
Y308608D01*
X401413D01*
Y308626D01*
X401430D01*
Y308643D01*
X401448D01*
Y308661D01*
X401466D01*
Y308679D01*
X401483D01*
Y308696D01*
X401501D01*
Y308714D01*
X401518D01*
Y308731D01*
X401536D01*
Y308749D01*
X401554D01*
Y308767D01*
X401571D01*
Y308784D01*
X401589D01*
Y308802D01*
X401607D01*
Y308820D01*
X401624D01*
Y308837D01*
X401642D01*
Y308855D01*
X401659D01*
Y308872D01*
X401677D01*
Y308908D01*
X401695D01*
Y308925D01*
X401712D01*
Y308943D01*
X401730D01*
Y308961D01*
X401748D01*
Y308978D01*
X401765D01*
Y309013D01*
X401783D01*
Y309031D01*
X401800D01*
Y309049D01*
X401818D01*
Y309084D01*
X401836D01*
Y309101D01*
X401853D01*
Y309119D01*
X401871D01*
Y309154D01*
X401888D01*
Y309172D01*
X401906D01*
Y309207D01*
X401924D01*
Y309225D01*
X401941D01*
Y309260D01*
X401959D01*
Y309278D01*
X401976D01*
Y309313D01*
X401994D01*
Y309331D01*
X402012D01*
Y309366D01*
X402029D01*
Y309383D01*
X402047D01*
Y309419D01*
X402065D01*
Y309454D01*
X402082D01*
Y309471D01*
X402100D01*
Y309507D01*
X402117D01*
Y309542D01*
X402135D01*
Y309577D01*
X402153D01*
Y309612D01*
X402170D01*
Y309630D01*
X402188D01*
Y309665D01*
X402206D01*
Y309700D01*
X402223D01*
Y309736D01*
X402241D01*
Y309771D01*
X402258D01*
Y309824D01*
X402276D01*
Y309859D01*
X402294D01*
Y309894D01*
X402311D01*
Y309929D01*
X402329D01*
Y309982D01*
X402347D01*
Y310018D01*
X402364D01*
Y310053D01*
X402382D01*
Y310106D01*
X402399D01*
Y310159D01*
X402417D01*
Y310194D01*
X402435D01*
Y310247D01*
X402452D01*
Y310299D01*
X402470D01*
Y310335D01*
X402487D01*
Y310388D01*
X402505D01*
Y310440D01*
X402523D01*
Y310493D01*
X402540D01*
Y310546D01*
X402558D01*
Y310599D01*
X402576D01*
Y310652D01*
X402593D01*
Y310705D01*
X402611D01*
Y310758D01*
X402628D01*
Y310810D01*
X402646D01*
Y310863D01*
X402664D01*
Y310916D01*
X402681D01*
Y310987D01*
X402699D01*
Y311039D01*
X402716D01*
Y311092D01*
X402734D01*
Y311145D01*
X402752D01*
Y311216D01*
X402769D01*
Y311269D01*
X402787D01*
Y311339D01*
X402805D01*
Y311392D01*
X402822D01*
Y311462D01*
X402840D01*
Y311515D01*
X402857D01*
Y311586D01*
X402875D01*
Y311656D01*
X402893D01*
Y311709D01*
X402910D01*
Y311779D01*
X402928D01*
Y311850D01*
X402946D01*
Y311920D01*
X402963D01*
Y311991D01*
X402981D01*
Y312079D01*
X402998D01*
Y312150D01*
X403016D01*
Y312238D01*
X403034D01*
Y312326D01*
X403051D01*
Y312414D01*
X403069D01*
Y312502D01*
X403087D01*
Y312590D01*
X403104D01*
Y312696D01*
X403122D01*
Y312819D01*
X403139D01*
Y312925D01*
X403157D01*
Y313030D01*
X403175D01*
Y313189D01*
X403192D01*
Y313330D01*
X403210D01*
Y313489D01*
X403227D01*
Y313682D01*
X403245D01*
Y314070D01*
X403263D01*
Y314317D01*
X403245D01*
Y314669D01*
X403227D01*
Y314810D01*
X403210D01*
Y314933D01*
X403192D01*
Y315004D01*
X403175D01*
Y315074D01*
X403157D01*
Y315145D01*
X403139D01*
Y315198D01*
X403122D01*
Y315250D01*
X403104D01*
Y315286D01*
X403087D01*
Y315338D01*
X403069D01*
Y315374D01*
X403051D01*
Y315409D01*
X403034D01*
Y315444D01*
X403016D01*
Y315479D01*
X402998D01*
Y315515D01*
X402981D01*
Y315550D01*
X402963D01*
Y315567D01*
X402946D01*
Y315603D01*
X402928D01*
Y315620D01*
X402910D01*
Y315656D01*
X402893D01*
Y315673D01*
X402875D01*
Y315708D01*
X402857D01*
Y315726D01*
X402840D01*
Y315744D01*
X402822D01*
Y315761D01*
X402805D01*
Y315797D01*
X402787D01*
Y315814D01*
X402769D01*
Y315832D01*
X402752D01*
Y315849D01*
X402734D01*
Y315867D01*
X402716D01*
Y315885D01*
X402699D01*
Y315902D01*
X402681D01*
Y315920D01*
X402664D01*
Y315937D01*
X402646D01*
Y315955D01*
X402628D01*
Y315973D01*
X402611D01*
Y315990D01*
X402593D01*
Y316008D01*
X402576D01*
Y316026D01*
X402558D01*
Y316043D01*
X402523D01*
Y316061D01*
X402505D01*
Y316078D01*
X402487D01*
Y316096D01*
X402470D01*
Y316114D01*
X402435D01*
Y316131D01*
X402417D01*
Y316149D01*
X402399D01*
Y316167D01*
X402364D01*
Y316184D01*
X402347D01*
Y316202D01*
X402311D01*
Y316219D01*
X402294D01*
Y316237D01*
X402258D01*
Y316255D01*
X402223D01*
Y316272D01*
X402206D01*
Y316290D01*
X402170D01*
Y316307D01*
X402135D01*
Y316325D01*
X402100D01*
Y316343D01*
X402065D01*
Y316360D01*
X402029D01*
Y316378D01*
X401994D01*
Y316396D01*
X401959D01*
Y316413D01*
X401924D01*
Y316431D01*
X401888D01*
Y316448D01*
X401853D01*
Y316466D01*
X401818D01*
Y316484D01*
X401765D01*
Y316501D01*
X401730D01*
Y316519D01*
X401677D01*
Y316537D01*
X401642D01*
Y316554D01*
X401589D01*
Y316572D01*
X401536D01*
Y316589D01*
X401483D01*
Y316607D01*
X401430D01*
Y316625D01*
X401377D01*
Y316642D01*
X401325D01*
Y316660D01*
X401272D01*
Y316677D01*
X401201D01*
Y316695D01*
X401131D01*
Y316713D01*
X401078D01*
Y316730D01*
X401008D01*
Y316748D01*
X400937D01*
Y316766D01*
X400867D01*
Y316783D01*
X400778D01*
Y316801D01*
X400690D01*
Y316818D01*
X400602D01*
Y316836D01*
X400514D01*
Y316854D01*
X400408D01*
Y316871D01*
X400320D01*
Y316889D01*
X400197D01*
Y316907D01*
X400091D01*
Y316924D01*
X399968D01*
Y316942D01*
X399845D01*
Y316959D01*
X399721D01*
Y316977D01*
X399580D01*
Y316995D01*
X399439D01*
Y317012D01*
X399299D01*
Y317030D01*
X399140D01*
Y317048D01*
X398964D01*
Y317065D01*
X398787D01*
Y317083D01*
X398594D01*
Y317100D01*
X398400D01*
Y317118D01*
X398171D01*
Y317136D01*
X397924D01*
Y317153D01*
X397642D01*
Y317171D01*
X397307D01*
Y317189D01*
X396885D01*
Y317206D01*
D02*
G37*
G36*
X380200D02*
X379654D01*
Y317189D01*
X379231D01*
Y317171D01*
X378878D01*
Y317153D01*
X378614D01*
Y317136D01*
X378385D01*
Y317118D01*
X378156D01*
Y317100D01*
X377962D01*
Y317083D01*
X377786D01*
Y317065D01*
X377610D01*
Y317048D01*
X377433D01*
Y317030D01*
X377275D01*
Y317012D01*
X377116D01*
Y316995D01*
X376975D01*
Y316977D01*
X376835D01*
Y316959D01*
X376711D01*
Y316942D01*
X376570D01*
Y316924D01*
X376465D01*
Y316907D01*
X376341D01*
Y316889D01*
X376235D01*
Y316871D01*
X376130D01*
Y316854D01*
X376042D01*
Y316836D01*
X375954D01*
Y316818D01*
X375866D01*
Y316801D01*
X375777D01*
Y316783D01*
X375707D01*
Y316766D01*
X375619D01*
Y316748D01*
X375548D01*
Y316730D01*
X375478D01*
Y316713D01*
X375407D01*
Y316695D01*
X375355D01*
Y316677D01*
X375284D01*
Y316660D01*
X375231D01*
Y316642D01*
X375178D01*
Y316625D01*
X375126D01*
Y316607D01*
X375073D01*
Y316589D01*
X375020D01*
Y316572D01*
X374967D01*
Y316554D01*
X374914D01*
Y316537D01*
X374879D01*
Y316519D01*
X374826D01*
Y316501D01*
X374791D01*
Y316484D01*
X374756D01*
Y316466D01*
X374720D01*
Y316448D01*
X374667D01*
Y316431D01*
X374632D01*
Y316413D01*
X374597D01*
Y316396D01*
X374562D01*
Y316378D01*
X374526D01*
Y316360D01*
X374491D01*
Y316343D01*
X374474D01*
Y316325D01*
X374438D01*
Y316307D01*
X374403D01*
Y316290D01*
X374385D01*
Y316272D01*
X374350D01*
Y316255D01*
X374315D01*
Y316237D01*
X374297D01*
Y316219D01*
X374262D01*
Y316202D01*
X374244D01*
Y316184D01*
X374209D01*
Y316167D01*
X374192D01*
Y316149D01*
X374174D01*
Y316131D01*
X374139D01*
Y316114D01*
X374121D01*
Y316096D01*
X374104D01*
Y316078D01*
X374068D01*
Y316061D01*
X374051D01*
Y316043D01*
X374033D01*
Y316026D01*
X374015D01*
Y316008D01*
X373998D01*
Y315990D01*
X373980D01*
Y315973D01*
X373963D01*
Y315955D01*
X373945D01*
Y315937D01*
X373910D01*
Y315920D01*
X373892D01*
Y315902D01*
X373874D01*
Y315885D01*
X373857D01*
Y315867D01*
X373839D01*
Y315832D01*
X373822D01*
Y315814D01*
X373804D01*
Y315797D01*
X373786D01*
Y315779D01*
X373769D01*
Y315761D01*
X373751D01*
Y315744D01*
X373734D01*
Y315726D01*
X373716D01*
Y315708D01*
X373698D01*
Y315673D01*
X373681D01*
Y315656D01*
X373663D01*
Y315620D01*
X373645D01*
Y315603D01*
X373628D01*
Y315585D01*
X373610D01*
Y315550D01*
X373593D01*
Y315515D01*
X373575D01*
Y315497D01*
X373557D01*
Y315462D01*
X373540D01*
Y315427D01*
X373522D01*
Y315391D01*
X373504D01*
Y315356D01*
X373487D01*
Y315321D01*
X373469D01*
Y315286D01*
X373452D01*
Y315233D01*
X373434D01*
Y315180D01*
X373416D01*
Y315127D01*
X373399D01*
Y315057D01*
X373381D01*
Y314986D01*
X373364D01*
Y314845D01*
X373346D01*
Y314563D01*
X373328D01*
Y313788D01*
X373346D01*
Y313418D01*
X373364D01*
Y313224D01*
X373381D01*
Y313101D01*
X373399D01*
Y312978D01*
X373416D01*
Y312872D01*
X373434D01*
Y312766D01*
X373452D01*
Y312660D01*
X373469D01*
Y312572D01*
X373487D01*
Y312484D01*
X373504D01*
Y312396D01*
X373522D01*
Y312308D01*
X373540D01*
Y312238D01*
X373557D01*
Y312150D01*
X373575D01*
Y312079D01*
X373593D01*
Y312009D01*
X373610D01*
Y311938D01*
X373628D01*
Y311850D01*
X373645D01*
Y311779D01*
X373663D01*
Y311709D01*
X373681D01*
Y311656D01*
X373698D01*
Y311586D01*
X373716D01*
Y311515D01*
X373734D01*
Y311445D01*
X373751D01*
Y311374D01*
X373769D01*
Y311321D01*
X373786D01*
Y311251D01*
X373804D01*
Y311198D01*
X373822D01*
Y311128D01*
X373839D01*
Y311075D01*
X373857D01*
Y311022D01*
X373874D01*
Y310951D01*
X373892D01*
Y310899D01*
X373910D01*
Y310846D01*
X373927D01*
Y310793D01*
X373945D01*
Y310740D01*
X373963D01*
Y310669D01*
X373980D01*
Y310617D01*
X373998D01*
Y310581D01*
X374015D01*
Y310529D01*
X374033D01*
Y310476D01*
X374051D01*
Y310423D01*
X374068D01*
Y310370D01*
X374086D01*
Y310317D01*
X374104D01*
Y310264D01*
X374121D01*
Y310229D01*
X374139D01*
Y310176D01*
X374156D01*
Y310141D01*
X374174D01*
Y310088D01*
X374192D01*
Y310053D01*
X374209D01*
Y310000D01*
X374227D01*
Y309965D01*
X374244D01*
Y309929D01*
X374262D01*
Y309877D01*
X374280D01*
Y309841D01*
X374297D01*
Y309806D01*
X374315D01*
Y309771D01*
X374333D01*
Y309736D01*
X374350D01*
Y309700D01*
X374368D01*
Y309665D01*
X374385D01*
Y309630D01*
X374403D01*
Y309595D01*
X374421D01*
Y309559D01*
X374438D01*
Y309524D01*
X374456D01*
Y309507D01*
X374474D01*
Y309471D01*
X374491D01*
Y309436D01*
X374509D01*
Y309419D01*
X374526D01*
Y309383D01*
X374544D01*
Y309348D01*
X374562D01*
Y309331D01*
X374579D01*
Y309295D01*
X374597D01*
Y309278D01*
X374615D01*
Y309242D01*
X374632D01*
Y309225D01*
X374650D01*
Y309190D01*
X374667D01*
Y309172D01*
X374685D01*
Y309137D01*
X374703D01*
Y309119D01*
X374720D01*
Y309101D01*
X374738D01*
Y309066D01*
X374756D01*
Y309049D01*
X374773D01*
Y309031D01*
X374791D01*
Y308996D01*
X374808D01*
Y308978D01*
X374826D01*
Y308961D01*
X374844D01*
Y308943D01*
X374861D01*
Y308925D01*
X374879D01*
Y308890D01*
X374896D01*
Y308872D01*
X374914D01*
Y308855D01*
X374932D01*
Y308837D01*
X374949D01*
Y308820D01*
X374967D01*
Y308802D01*
X374985D01*
Y308784D01*
X375002D01*
Y308767D01*
X375020D01*
Y308749D01*
X375037D01*
Y308714D01*
X375055D01*
Y308696D01*
X375073D01*
Y308679D01*
X375090D01*
Y308661D01*
X375108D01*
Y308643D01*
X375126D01*
Y308626D01*
X375143D01*
Y308608D01*
X375178D01*
Y308591D01*
X375196D01*
Y308573D01*
X375214D01*
Y308555D01*
X375231D01*
Y308538D01*
X375249D01*
Y308520D01*
X375266D01*
Y308502D01*
X375284D01*
Y308485D01*
X375302D01*
Y308467D01*
X375319D01*
Y308450D01*
X375337D01*
Y308432D01*
X375372D01*
Y308414D01*
X375390D01*
Y308397D01*
X375407D01*
Y308379D01*
X375443D01*
Y308362D01*
X375460D01*
Y308344D01*
X375478D01*
Y308326D01*
X375496D01*
Y308309D01*
X375531D01*
Y308291D01*
X375548D01*
Y308273D01*
X375584D01*
Y308256D01*
X375601D01*
Y308238D01*
X375619D01*
Y308221D01*
X375654D01*
Y308203D01*
X375672D01*
Y308185D01*
X375707D01*
Y308168D01*
X375725D01*
Y308150D01*
X375760D01*
Y308132D01*
X375777D01*
Y308115D01*
X375813D01*
Y308097D01*
X375848D01*
Y308080D01*
X375883D01*
Y308062D01*
X375901D01*
Y308044D01*
X375936D01*
Y308027D01*
X375971D01*
Y308009D01*
X376006D01*
Y307992D01*
X376042D01*
Y307974D01*
X376077D01*
Y307956D01*
X376095D01*
Y307939D01*
X376130D01*
Y307921D01*
X376183D01*
Y307903D01*
X376218D01*
Y307886D01*
X376253D01*
Y307868D01*
X376288D01*
Y307851D01*
X376324D01*
Y307833D01*
X376376D01*
Y307815D01*
X376412D01*
Y307798D01*
X376465D01*
Y307780D01*
X376500D01*
Y307762D01*
X376553D01*
Y307745D01*
X376606D01*
Y307727D01*
X376658D01*
Y307710D01*
X376711D01*
Y307692D01*
X376782D01*
Y307674D01*
X376835D01*
Y307657D01*
X376905D01*
Y307639D01*
X376975D01*
Y307622D01*
X377028D01*
Y307604D01*
X377116D01*
Y307586D01*
X377204D01*
Y307569D01*
X377275D01*
Y307551D01*
X377363D01*
Y307533D01*
X377451D01*
Y307516D01*
X377557D01*
Y307498D01*
X377663D01*
Y307481D01*
X377786D01*
Y307463D01*
X377909D01*
Y307445D01*
X378050D01*
Y307428D01*
X378209D01*
Y307410D01*
X378403D01*
Y307392D01*
X378596D01*
Y307375D01*
X378913D01*
Y307357D01*
X379812D01*
Y307375D01*
X380024D01*
Y307392D01*
X380182D01*
Y307410D01*
X380323D01*
Y307428D01*
X380446D01*
Y307445D01*
X380570D01*
Y307463D01*
X380675D01*
Y307481D01*
X380764D01*
Y307498D01*
X380852D01*
Y307516D01*
X380940D01*
Y307533D01*
X381010D01*
Y307551D01*
X381098D01*
Y307569D01*
X381169D01*
Y307586D01*
X381222D01*
Y307604D01*
X381292D01*
Y307622D01*
X381363D01*
Y307639D01*
X381415D01*
Y307657D01*
X381486D01*
Y307674D01*
X381539D01*
Y307692D01*
X381592D01*
Y307710D01*
X381644D01*
Y307727D01*
X381697D01*
Y307745D01*
X381750D01*
Y307762D01*
X381803D01*
Y307780D01*
X381838D01*
Y307798D01*
X381891D01*
Y307815D01*
X381944D01*
Y307833D01*
X381979D01*
Y307851D01*
X382032D01*
Y307868D01*
X382067D01*
Y307886D01*
X382102D01*
Y307903D01*
X382155D01*
Y307921D01*
X382191D01*
Y307939D01*
X382226D01*
Y307956D01*
X382261D01*
Y307974D01*
X382314D01*
Y307992D01*
X382349D01*
Y308009D01*
X382384D01*
Y308027D01*
X382420D01*
Y308044D01*
X382455D01*
Y308062D01*
X382490D01*
Y308080D01*
X382525D01*
Y308097D01*
X382543D01*
Y308115D01*
X382578D01*
Y308132D01*
X382613D01*
Y308150D01*
X382649D01*
Y308168D01*
X382684D01*
Y308185D01*
X382719D01*
Y308203D01*
X382737D01*
Y308221D01*
X382772D01*
Y308238D01*
X382807D01*
Y308256D01*
X382825D01*
Y308273D01*
X382860D01*
Y308291D01*
X382895D01*
Y308309D01*
X382913D01*
Y308326D01*
X382948D01*
Y308344D01*
X382966D01*
Y308362D01*
X383001D01*
Y308379D01*
X383019D01*
Y308397D01*
X383054D01*
Y308414D01*
X383071D01*
Y308432D01*
X383107D01*
Y308450D01*
X383124D01*
Y308467D01*
X383160D01*
Y308485D01*
X383177D01*
Y308502D01*
X383195D01*
Y308520D01*
X383230D01*
Y308538D01*
X383248D01*
Y308555D01*
X383283D01*
Y308573D01*
X383301D01*
Y308591D01*
X383318D01*
Y308608D01*
X383353D01*
Y308626D01*
X383371D01*
Y308643D01*
X383389D01*
Y308661D01*
X383406D01*
Y308679D01*
X383441D01*
Y308696D01*
X383459D01*
Y308714D01*
X383477D01*
Y308731D01*
X383494D01*
Y308749D01*
X383512D01*
Y308767D01*
X383547D01*
Y308784D01*
X383565D01*
Y308802D01*
X383582D01*
Y308820D01*
X383600D01*
Y308837D01*
X383618D01*
Y308855D01*
X383635D01*
Y308872D01*
X383653D01*
Y308890D01*
X383688D01*
Y308908D01*
X383706D01*
Y308925D01*
X383723D01*
Y308943D01*
X383741D01*
Y308961D01*
X383759D01*
Y308978D01*
X383776D01*
Y308996D01*
X383794D01*
Y309013D01*
X383811D01*
Y309031D01*
X383829D01*
Y309049D01*
X383847D01*
Y309066D01*
X383864D01*
Y309084D01*
X383882D01*
Y309101D01*
X383900D01*
Y309119D01*
X383917D01*
Y309137D01*
X383935D01*
Y309154D01*
X383952D01*
Y309172D01*
X383970D01*
Y309190D01*
X383988D01*
Y309207D01*
X384005D01*
Y309225D01*
X384023D01*
Y309242D01*
X384041D01*
Y309260D01*
X384058D01*
Y309278D01*
X384076D01*
Y309295D01*
X384093D01*
Y309313D01*
X384111D01*
Y309331D01*
X384129D01*
Y309366D01*
X384146D01*
Y309383D01*
X384164D01*
Y309401D01*
X384181D01*
Y309419D01*
X384199D01*
Y309436D01*
X384217D01*
Y309454D01*
X384234D01*
Y309489D01*
X384252D01*
Y309507D01*
X384270D01*
Y309524D01*
X384287D01*
Y309542D01*
X384305D01*
Y309559D01*
X384323D01*
Y309595D01*
X384340D01*
Y309612D01*
X384358D01*
Y309630D01*
X384375D01*
Y309648D01*
X384393D01*
Y309683D01*
X384411D01*
Y309700D01*
X384428D01*
Y309718D01*
X384446D01*
Y309753D01*
X384463D01*
Y309771D01*
X384481D01*
Y309806D01*
X384499D01*
Y309824D01*
X384516D01*
Y309841D01*
X384534D01*
Y309877D01*
X384552D01*
Y309894D01*
X384569D01*
Y309929D01*
X384587D01*
Y309947D01*
X384604D01*
Y309982D01*
X384622D01*
Y310000D01*
X384640D01*
Y310035D01*
X384657D01*
Y310053D01*
X384675D01*
Y310088D01*
X384693D01*
Y310123D01*
X384710D01*
Y310141D01*
X384728D01*
Y310176D01*
X384745D01*
Y310211D01*
X384763D01*
Y310229D01*
X384781D01*
Y310264D01*
X384798D01*
Y310299D01*
X384816D01*
Y310317D01*
X384833D01*
Y310352D01*
X384851D01*
Y310388D01*
X384869D01*
Y310423D01*
X384886D01*
Y310440D01*
X384904D01*
Y310476D01*
X384922D01*
Y310511D01*
X384939D01*
Y310546D01*
X384957D01*
Y310581D01*
X384974D01*
Y310617D01*
X384992D01*
Y310652D01*
X385010D01*
Y310687D01*
X385027D01*
Y310705D01*
X385045D01*
Y310740D01*
X385063D01*
Y310775D01*
X385080D01*
Y310810D01*
X385098D01*
Y310846D01*
X385115D01*
Y310881D01*
X385133D01*
Y310916D01*
X385151D01*
Y310951D01*
X385168D01*
Y310987D01*
X385186D01*
Y311022D01*
X385203D01*
Y311075D01*
X385221D01*
Y311110D01*
X385239D01*
Y311145D01*
X385256D01*
Y311180D01*
X385274D01*
Y311216D01*
X385292D01*
Y311251D01*
X385309D01*
Y311286D01*
X385327D01*
Y311321D01*
X385344D01*
Y311357D01*
X385362D01*
Y311392D01*
X385380D01*
Y311445D01*
X385397D01*
Y311480D01*
X385415D01*
Y311515D01*
X385433D01*
Y311550D01*
X385450D01*
Y311586D01*
X385468D01*
Y311621D01*
X385485D01*
Y311674D01*
X385503D01*
Y311709D01*
X385521D01*
Y311744D01*
X385538D01*
Y311797D01*
X385556D01*
Y311832D01*
X385573D01*
Y311868D01*
X385591D01*
Y311920D01*
X385609D01*
Y311956D01*
X385626D01*
Y311991D01*
X385644D01*
Y312044D01*
X385662D01*
Y312079D01*
X385679D01*
Y312132D01*
X385697D01*
Y312167D01*
X385714D01*
Y312220D01*
X385732D01*
Y312273D01*
X385750D01*
Y312308D01*
X385767D01*
Y312361D01*
X385785D01*
Y312396D01*
X385803D01*
Y312449D01*
X385820D01*
Y312502D01*
X385838D01*
Y312555D01*
X385855D01*
Y312608D01*
X385873D01*
Y312660D01*
X385891D01*
Y312713D01*
X385908D01*
Y312766D01*
X385926D01*
Y312837D01*
X385943D01*
Y312890D01*
X385961D01*
Y312942D01*
X385979D01*
Y313013D01*
X385996D01*
Y313066D01*
X386014D01*
Y313154D01*
X386032D01*
Y313224D01*
X386049D01*
Y313295D01*
X386067D01*
Y313383D01*
X386084D01*
Y313471D01*
X386102D01*
Y313577D01*
X386120D01*
Y313700D01*
X386137D01*
Y314387D01*
X386120D01*
Y314546D01*
X386102D01*
Y314634D01*
X386084D01*
Y314704D01*
X386067D01*
Y314757D01*
X386049D01*
Y314810D01*
X386032D01*
Y314880D01*
X386014D01*
Y314916D01*
X385996D01*
Y314951D01*
X385979D01*
Y315004D01*
X385961D01*
Y315039D01*
X385943D01*
Y315074D01*
X385926D01*
Y315109D01*
X385908D01*
Y315145D01*
X385891D01*
Y315162D01*
X385873D01*
Y315198D01*
X385855D01*
Y315233D01*
X385838D01*
Y315268D01*
X385820D01*
Y315286D01*
X385803D01*
Y315303D01*
X385785D01*
Y315338D01*
X385767D01*
Y315356D01*
X385750D01*
Y315391D01*
X385732D01*
Y315409D01*
X385714D01*
Y315427D01*
X385697D01*
Y315444D01*
X385679D01*
Y315479D01*
X385662D01*
Y315497D01*
X385644D01*
Y315515D01*
X385626D01*
Y315532D01*
X385609D01*
Y315550D01*
X385591D01*
Y315567D01*
X385573D01*
Y315585D01*
X385556D01*
Y315603D01*
X385538D01*
Y315620D01*
X385521D01*
Y315638D01*
X385503D01*
Y315656D01*
X385485D01*
Y315673D01*
X385468D01*
Y315691D01*
X385450D01*
Y315708D01*
X385433D01*
Y315726D01*
X385415D01*
Y315744D01*
X385397D01*
Y315761D01*
X385380D01*
Y315779D01*
X385344D01*
Y315797D01*
X385327D01*
Y315814D01*
X385309D01*
Y315832D01*
X385292D01*
Y315849D01*
X385256D01*
Y315867D01*
X385239D01*
Y315885D01*
X385221D01*
Y315902D01*
X385186D01*
Y315920D01*
X385168D01*
Y315937D01*
X385133D01*
Y315955D01*
X385115D01*
Y315973D01*
X385080D01*
Y315990D01*
X385063D01*
Y316008D01*
X385027D01*
Y316026D01*
X385010D01*
Y316043D01*
X384974D01*
Y316061D01*
X384957D01*
Y316078D01*
X384922D01*
Y316096D01*
X384886D01*
Y316114D01*
X384851D01*
Y316131D01*
X384833D01*
Y316149D01*
X384798D01*
Y316167D01*
X384763D01*
Y316184D01*
X384728D01*
Y316202D01*
X384693D01*
Y316219D01*
X384657D01*
Y316237D01*
X384622D01*
Y316255D01*
X384587D01*
Y316272D01*
X384552D01*
Y316290D01*
X384516D01*
Y316307D01*
X384481D01*
Y316325D01*
X384446D01*
Y316343D01*
X384411D01*
Y316360D01*
X384358D01*
Y316378D01*
X384323D01*
Y316396D01*
X384287D01*
Y316413D01*
X384234D01*
Y316431D01*
X384199D01*
Y316448D01*
X384164D01*
Y316466D01*
X384111D01*
Y316484D01*
X384058D01*
Y316501D01*
X384005D01*
Y316519D01*
X383970D01*
Y316537D01*
X383917D01*
Y316554D01*
X383864D01*
Y316572D01*
X383811D01*
Y316589D01*
X383759D01*
Y316607D01*
X383706D01*
Y316625D01*
X383653D01*
Y316642D01*
X383600D01*
Y316660D01*
X383530D01*
Y316677D01*
X383477D01*
Y316695D01*
X383424D01*
Y316713D01*
X383353D01*
Y316730D01*
X383301D01*
Y316748D01*
X383230D01*
Y316766D01*
X383160D01*
Y316783D01*
X383107D01*
Y316801D01*
X383036D01*
Y316818D01*
X382966D01*
Y316836D01*
X382895D01*
Y316854D01*
X382807D01*
Y316871D01*
X382737D01*
Y316889D01*
X382666D01*
Y316907D01*
X382578D01*
Y316924D01*
X382508D01*
Y316942D01*
X382420D01*
Y316959D01*
X382332D01*
Y316977D01*
X382243D01*
Y316995D01*
X382155D01*
Y317012D01*
X382067D01*
Y317030D01*
X381962D01*
Y317048D01*
X381856D01*
Y317065D01*
X381733D01*
Y317083D01*
X381609D01*
Y317100D01*
X381486D01*
Y317118D01*
X381327D01*
Y317136D01*
X381134D01*
Y317153D01*
X380887D01*
Y317171D01*
X380587D01*
Y317189D01*
X380200D01*
Y317206D01*
D02*
G37*
%LPD*%
G36*
X397713Y315550D02*
X397730D01*
Y315532D01*
X397748D01*
Y315515D01*
X397766D01*
Y315497D01*
X397783D01*
Y315479D01*
X397801D01*
Y315462D01*
X397818D01*
Y315444D01*
X397836D01*
Y315427D01*
X397854D01*
Y315409D01*
X397871D01*
Y315391D01*
X397889D01*
Y315374D01*
X397907D01*
Y315356D01*
X397924D01*
Y315338D01*
X397942D01*
Y315321D01*
X397959D01*
Y315303D01*
X397977D01*
Y315286D01*
X397995D01*
Y315268D01*
X398012D01*
Y315250D01*
X398030D01*
Y315233D01*
X398047D01*
Y315215D01*
X398065D01*
Y315198D01*
X398083D01*
Y315180D01*
X398100D01*
Y315162D01*
X398118D01*
Y315145D01*
X398136D01*
Y315127D01*
X398153D01*
Y315109D01*
X398171D01*
Y315092D01*
X398188D01*
Y315074D01*
X398206D01*
Y315057D01*
X398224D01*
Y315039D01*
X398241D01*
Y315021D01*
X398259D01*
Y315004D01*
X398277D01*
Y314986D01*
X398294D01*
Y314968D01*
X398312D01*
Y314951D01*
X398329D01*
Y314933D01*
X398347D01*
Y314916D01*
X398365D01*
Y314898D01*
X398382D01*
Y314880D01*
X398400D01*
Y314863D01*
X398417D01*
Y314845D01*
X398435D01*
Y314828D01*
X398453D01*
Y314810D01*
X398470D01*
Y314792D01*
X398488D01*
Y314775D01*
X398506D01*
Y314757D01*
X398523D01*
Y314739D01*
X398541D01*
Y314722D01*
X398558D01*
Y314704D01*
X398576D01*
Y314687D01*
X398594D01*
Y314669D01*
X398611D01*
Y314651D01*
X398629D01*
Y314634D01*
X398647D01*
Y314616D01*
X398664D01*
Y314598D01*
X398682D01*
Y314581D01*
X398699D01*
Y314563D01*
X398717D01*
Y314546D01*
X398735D01*
Y314528D01*
X398752D01*
Y314510D01*
X398770D01*
Y314493D01*
X398787D01*
Y314475D01*
X398805D01*
Y314458D01*
X398823D01*
Y314440D01*
X398840D01*
Y314422D01*
X398858D01*
Y314405D01*
X398876D01*
Y314387D01*
X398893D01*
Y314370D01*
X398911D01*
Y314352D01*
X398928D01*
Y314334D01*
X398946D01*
Y314317D01*
X398964D01*
Y314299D01*
X398981D01*
Y314281D01*
X398999D01*
Y314264D01*
X399017D01*
Y314246D01*
X399034D01*
Y314229D01*
X399052D01*
Y314211D01*
X399069D01*
Y314193D01*
X399087D01*
Y314176D01*
X399105D01*
Y314158D01*
X399122D01*
Y314140D01*
X399140D01*
Y314123D01*
X399158D01*
Y314105D01*
X399175D01*
Y314088D01*
X399193D01*
Y314070D01*
X399210D01*
Y314052D01*
X399228D01*
Y314035D01*
X399246D01*
Y314017D01*
X399263D01*
Y314000D01*
X399281D01*
Y313982D01*
X399299D01*
Y313964D01*
X399316D01*
Y313947D01*
X399334D01*
Y313929D01*
X399351D01*
Y313911D01*
X399369D01*
Y313894D01*
X399387D01*
Y313876D01*
X399404D01*
Y313859D01*
X399422D01*
Y313841D01*
X399439D01*
Y313823D01*
X399457D01*
Y313806D01*
X399475D01*
Y313788D01*
X399492D01*
Y313770D01*
X399510D01*
Y313753D01*
X399528D01*
Y313735D01*
X399545D01*
Y313718D01*
X399563D01*
Y313700D01*
X399580D01*
Y313682D01*
X399598D01*
Y313665D01*
X399616D01*
Y313647D01*
X399633D01*
Y313630D01*
X399651D01*
Y313612D01*
X399668D01*
Y313594D01*
X399686D01*
Y313577D01*
X399704D01*
Y313559D01*
X399721D01*
Y313541D01*
X399739D01*
Y313524D01*
X399757D01*
Y313506D01*
X399774D01*
Y313489D01*
X399792D01*
Y313471D01*
X399809D01*
Y313453D01*
X399827D01*
Y313436D01*
X399845D01*
Y313418D01*
X399862D01*
Y313400D01*
X399880D01*
Y313383D01*
X399898D01*
Y313365D01*
X399915D01*
Y313348D01*
X399933D01*
Y313330D01*
X399950D01*
Y313312D01*
X399968D01*
Y313295D01*
X399986D01*
Y313277D01*
X398876D01*
Y313260D01*
X398858D01*
Y309260D01*
X396550D01*
Y313277D01*
X395422D01*
Y313295D01*
X395440D01*
Y313312D01*
X395458D01*
Y313330D01*
X395475D01*
Y313348D01*
X395493D01*
Y313365D01*
X395510D01*
Y313383D01*
X395528D01*
Y313400D01*
X395546D01*
Y313418D01*
X395563D01*
Y313436D01*
X395581D01*
Y313453D01*
X395599D01*
Y313471D01*
X395616D01*
Y313489D01*
X395634D01*
Y313506D01*
X395651D01*
Y313524D01*
X395669D01*
Y313541D01*
X395687D01*
Y313559D01*
X395704D01*
Y313577D01*
X395722D01*
Y313594D01*
X395740D01*
Y313612D01*
X395757D01*
Y313630D01*
X395775D01*
Y313647D01*
X395792D01*
Y313665D01*
X395810D01*
Y313682D01*
X395828D01*
Y313700D01*
X395845D01*
Y313718D01*
X395863D01*
Y313735D01*
X395880D01*
Y313753D01*
X395898D01*
Y313770D01*
X395916D01*
Y313788D01*
X395933D01*
Y313806D01*
X395951D01*
Y313823D01*
X395969D01*
Y313841D01*
X395986D01*
Y313859D01*
X396004D01*
Y313876D01*
X396021D01*
Y313894D01*
X396039D01*
Y313911D01*
X396057D01*
Y313929D01*
X396074D01*
Y313947D01*
X396092D01*
Y313964D01*
X396110D01*
Y313982D01*
X396127D01*
Y314000D01*
X396145D01*
Y314017D01*
X396162D01*
Y314035D01*
X396180D01*
Y314052D01*
X396198D01*
Y314070D01*
X396215D01*
Y314088D01*
X396233D01*
Y314105D01*
X396250D01*
Y314123D01*
X396268D01*
Y314140D01*
X396286D01*
Y314158D01*
X396303D01*
Y314176D01*
X396321D01*
Y314193D01*
X396339D01*
Y314211D01*
X396356D01*
Y314229D01*
X396374D01*
Y314246D01*
X396391D01*
Y314264D01*
X396409D01*
Y314281D01*
X396427D01*
Y314299D01*
X396444D01*
Y314317D01*
X396462D01*
Y314334D01*
X396479D01*
Y314352D01*
X396497D01*
Y314370D01*
X396515D01*
Y314387D01*
X396532D01*
Y314405D01*
X396550D01*
Y314422D01*
X396568D01*
Y314440D01*
X396585D01*
Y314458D01*
X396603D01*
Y314475D01*
X396620D01*
Y314493D01*
X396638D01*
Y314510D01*
X396656D01*
Y314528D01*
X396673D01*
Y314546D01*
X396691D01*
Y314563D01*
X396708D01*
Y314581D01*
X396726D01*
Y314598D01*
X396744D01*
Y314616D01*
X396761D01*
Y314634D01*
X396779D01*
Y314651D01*
X396797D01*
Y314669D01*
X396814D01*
Y314687D01*
X396832D01*
Y314704D01*
X396849D01*
Y314722D01*
X396867D01*
Y314739D01*
X396885D01*
Y314757D01*
X396902D01*
Y314775D01*
X396920D01*
Y314792D01*
X396937D01*
Y314810D01*
X396955D01*
Y314828D01*
X396973D01*
Y314845D01*
X396990D01*
Y314863D01*
X397008D01*
Y314880D01*
X397026D01*
Y314898D01*
X397043D01*
Y314916D01*
X397061D01*
Y314933D01*
X397078D01*
Y314951D01*
X397096D01*
Y314968D01*
X397114D01*
Y314986D01*
X397131D01*
Y315004D01*
X397149D01*
Y315021D01*
X397167D01*
Y315039D01*
X397184D01*
Y315057D01*
X397202D01*
Y315074D01*
X397219D01*
Y315092D01*
X397237D01*
Y315109D01*
X397255D01*
Y315127D01*
X397272D01*
Y315145D01*
X397290D01*
Y315162D01*
X397307D01*
Y315180D01*
X397325D01*
Y315198D01*
X397343D01*
Y315215D01*
X397360D01*
Y315233D01*
X397378D01*
Y315250D01*
X397396D01*
Y315268D01*
X397413D01*
Y315286D01*
X397431D01*
Y315303D01*
X397448D01*
Y315321D01*
X397466D01*
Y315338D01*
X397484D01*
Y315356D01*
X397501D01*
Y315374D01*
X397519D01*
Y315391D01*
X397537D01*
Y315409D01*
X397554D01*
Y315427D01*
X397572D01*
Y315444D01*
X397589D01*
Y315462D01*
X397607D01*
Y315479D01*
X397625D01*
Y315497D01*
X397642D01*
Y315515D01*
X397660D01*
Y315532D01*
X397677D01*
Y315550D01*
X397695D01*
Y315567D01*
X397713D01*
Y315550D01*
D02*
G37*
G36*
X380940Y311304D02*
X382085D01*
Y311286D01*
X382067D01*
Y311269D01*
X382050D01*
Y311251D01*
X382032D01*
Y311233D01*
X382014D01*
Y311216D01*
X381997D01*
Y311198D01*
X381979D01*
Y311180D01*
X381962D01*
Y311163D01*
X381944D01*
Y311145D01*
X381926D01*
Y311128D01*
X381909D01*
Y311110D01*
X381891D01*
Y311092D01*
X381873D01*
Y311075D01*
X381856D01*
Y311057D01*
X381838D01*
Y311039D01*
X381821D01*
Y311022D01*
X381803D01*
Y311004D01*
X381785D01*
Y310987D01*
X381768D01*
Y310969D01*
X381750D01*
Y310951D01*
X381733D01*
Y310934D01*
X381715D01*
Y310916D01*
X381697D01*
Y310899D01*
X381680D01*
Y310881D01*
X381662D01*
Y310863D01*
X381644D01*
Y310846D01*
X381627D01*
Y310828D01*
X381609D01*
Y310810D01*
X381592D01*
Y310793D01*
X381574D01*
Y310775D01*
X381556D01*
Y310758D01*
X381539D01*
Y310740D01*
X381521D01*
Y310722D01*
X381504D01*
Y310705D01*
X381486D01*
Y310687D01*
X381468D01*
Y310669D01*
X381451D01*
Y310652D01*
X381433D01*
Y310634D01*
X381415D01*
Y310617D01*
X381398D01*
Y310599D01*
X381380D01*
Y310581D01*
X381363D01*
Y310564D01*
X381345D01*
Y310546D01*
X381327D01*
Y310529D01*
X381310D01*
Y310511D01*
X381292D01*
Y310493D01*
X381274D01*
Y310476D01*
X381257D01*
Y310458D01*
X381239D01*
Y310440D01*
X381222D01*
Y310423D01*
X381204D01*
Y310405D01*
X381186D01*
Y310388D01*
X381169D01*
Y310370D01*
X381151D01*
Y310352D01*
X381134D01*
Y310335D01*
X381116D01*
Y310317D01*
X381098D01*
Y310299D01*
X381081D01*
Y310282D01*
X381063D01*
Y310264D01*
X381045D01*
Y310247D01*
X381028D01*
Y310229D01*
X381010D01*
Y310211D01*
X380993D01*
Y310194D01*
X380975D01*
Y310176D01*
X380957D01*
Y310159D01*
X380940D01*
Y310141D01*
X380922D01*
Y310123D01*
X380904D01*
Y310106D01*
X380887D01*
Y310088D01*
X380869D01*
Y310070D01*
X380852D01*
Y310053D01*
X380834D01*
Y310035D01*
X380816D01*
Y310018D01*
X380799D01*
Y310000D01*
X380781D01*
Y309982D01*
X380764D01*
Y309965D01*
X380746D01*
Y309947D01*
X380728D01*
Y309929D01*
X380711D01*
Y309912D01*
X380693D01*
Y309894D01*
X380675D01*
Y309877D01*
X380658D01*
Y309859D01*
X380640D01*
Y309841D01*
X380623D01*
Y309824D01*
X380605D01*
Y309806D01*
X380587D01*
Y309789D01*
X380570D01*
Y309771D01*
X380552D01*
Y309753D01*
X380534D01*
Y309736D01*
X380517D01*
Y309718D01*
X380499D01*
Y309700D01*
X380482D01*
Y309683D01*
X380464D01*
Y309665D01*
X380446D01*
Y309648D01*
X380429D01*
Y309630D01*
X380411D01*
Y309612D01*
X380394D01*
Y309595D01*
X380376D01*
Y309577D01*
X380358D01*
Y309559D01*
X380341D01*
Y309542D01*
X380323D01*
Y309524D01*
X380305D01*
Y309507D01*
X380288D01*
Y309489D01*
X380270D01*
Y309471D01*
X380253D01*
Y309454D01*
X380235D01*
Y309436D01*
X380217D01*
Y309419D01*
X380200D01*
Y309401D01*
X380182D01*
Y309383D01*
X380164D01*
Y309366D01*
X380147D01*
Y309348D01*
X380129D01*
Y309331D01*
X380112D01*
Y309313D01*
X380094D01*
Y309295D01*
X380076D01*
Y309278D01*
X380059D01*
Y309260D01*
X380041D01*
Y309242D01*
X380024D01*
Y309225D01*
X380006D01*
Y309207D01*
X379988D01*
Y309190D01*
X379971D01*
Y309172D01*
X379953D01*
Y309154D01*
X379935D01*
Y309137D01*
X379918D01*
Y309119D01*
X379900D01*
Y309101D01*
X379883D01*
Y309084D01*
X379865D01*
Y309066D01*
X379847D01*
Y309049D01*
X379830D01*
Y309031D01*
X379812D01*
Y309013D01*
X379795D01*
Y308996D01*
X379759D01*
Y309013D01*
X379742D01*
Y309031D01*
X379724D01*
Y309049D01*
X379706D01*
Y309066D01*
X379689D01*
Y309084D01*
X379671D01*
Y309101D01*
X379654D01*
Y309119D01*
X379636D01*
Y309137D01*
X379618D01*
Y309154D01*
X379601D01*
Y309172D01*
X379583D01*
Y309190D01*
X379565D01*
Y309207D01*
X379548D01*
Y309225D01*
X379530D01*
Y309242D01*
X379513D01*
Y309260D01*
X379495D01*
Y309278D01*
X379477D01*
Y309295D01*
X379460D01*
Y309313D01*
X379442D01*
Y309331D01*
X379424D01*
Y309348D01*
X379407D01*
Y309366D01*
X379389D01*
Y309383D01*
X379372D01*
Y309401D01*
X379354D01*
Y309419D01*
X379336D01*
Y309436D01*
X379319D01*
Y309454D01*
X379301D01*
Y309471D01*
X379283D01*
Y309489D01*
X379266D01*
Y309507D01*
X379248D01*
Y309524D01*
X379231D01*
Y309542D01*
X379213D01*
Y309559D01*
X379195D01*
Y309577D01*
X379178D01*
Y309595D01*
X379160D01*
Y309612D01*
X379142D01*
Y309630D01*
X379125D01*
Y309648D01*
X379107D01*
Y309665D01*
X379090D01*
Y309683D01*
X379072D01*
Y309700D01*
X379054D01*
Y309718D01*
X379037D01*
Y309736D01*
X379019D01*
Y309753D01*
X379002D01*
Y309771D01*
X378984D01*
Y309789D01*
X378966D01*
Y309806D01*
X378949D01*
Y309824D01*
X378931D01*
Y309841D01*
X378913D01*
Y309859D01*
X378896D01*
Y309877D01*
X378878D01*
Y309894D01*
X378861D01*
Y309912D01*
X378843D01*
Y309929D01*
X378825D01*
Y309947D01*
X378808D01*
Y309965D01*
X378790D01*
Y309982D01*
X378773D01*
Y310000D01*
X378755D01*
Y310018D01*
X378737D01*
Y310035D01*
X378720D01*
Y310053D01*
X378702D01*
Y310070D01*
X378684D01*
Y310088D01*
X378667D01*
Y310106D01*
X378649D01*
Y310123D01*
X378632D01*
Y310141D01*
X378614D01*
Y310159D01*
X378596D01*
Y310176D01*
X378579D01*
Y310194D01*
X378561D01*
Y310211D01*
X378543D01*
Y310229D01*
X378526D01*
Y310247D01*
X378508D01*
Y310264D01*
X378491D01*
Y310282D01*
X378473D01*
Y310299D01*
X378455D01*
Y310317D01*
X378438D01*
Y310335D01*
X378420D01*
Y310352D01*
X378403D01*
Y310370D01*
X378385D01*
Y310388D01*
X378367D01*
Y310405D01*
X378350D01*
Y310423D01*
X378332D01*
Y310440D01*
X378314D01*
Y310458D01*
X378297D01*
Y310476D01*
X378279D01*
Y310493D01*
X378262D01*
Y310511D01*
X378244D01*
Y310529D01*
X378226D01*
Y310546D01*
X378209D01*
Y310564D01*
X378191D01*
Y310581D01*
X378173D01*
Y310599D01*
X378156D01*
Y310617D01*
X378138D01*
Y310634D01*
X378121D01*
Y310652D01*
X378103D01*
Y310669D01*
X378085D01*
Y310687D01*
X378068D01*
Y310705D01*
X378050D01*
Y310722D01*
X378033D01*
Y310740D01*
X378015D01*
Y310758D01*
X377997D01*
Y310775D01*
X377980D01*
Y310793D01*
X377962D01*
Y310810D01*
X377944D01*
Y310828D01*
X377927D01*
Y310846D01*
X377909D01*
Y310863D01*
X377892D01*
Y310881D01*
X377874D01*
Y310899D01*
X377856D01*
Y310916D01*
X377839D01*
Y310934D01*
X377821D01*
Y310951D01*
X377803D01*
Y310969D01*
X377786D01*
Y310987D01*
X377768D01*
Y311004D01*
X377751D01*
Y311022D01*
X377733D01*
Y311039D01*
X377715D01*
Y311057D01*
X377698D01*
Y311075D01*
X377680D01*
Y311092D01*
X377663D01*
Y311110D01*
X377645D01*
Y311128D01*
X377627D01*
Y311145D01*
X377610D01*
Y311163D01*
X377592D01*
Y311180D01*
X377574D01*
Y311198D01*
X377557D01*
Y311216D01*
X377539D01*
Y311233D01*
X377522D01*
Y311251D01*
X377504D01*
Y311269D01*
X377486D01*
Y311304D01*
X378614D01*
Y313806D01*
Y313823D01*
Y315303D01*
X380940D01*
Y311304D01*
D02*
G37*
%LPC*%
G36*
X391352Y304327D02*
X390947D01*
Y304309D01*
X390824D01*
Y304256D01*
X390806D01*
Y304186D01*
X390789D01*
Y304098D01*
X390771D01*
Y304027D01*
X390753D01*
Y303939D01*
X390736D01*
Y303869D01*
X390718D01*
Y303798D01*
X390701D01*
Y303710D01*
X390683D01*
Y303640D01*
X390665D01*
Y303552D01*
X390648D01*
Y303481D01*
X390630D01*
Y303393D01*
X390612D01*
Y303323D01*
X390595D01*
Y303234D01*
X390577D01*
Y303164D01*
X390560D01*
Y303093D01*
X390542D01*
Y303023D01*
Y303005D01*
X390524D01*
Y302935D01*
X390507D01*
Y302847D01*
X390489D01*
Y302776D01*
X390471D01*
Y302688D01*
X390454D01*
Y302618D01*
X390436D01*
Y302530D01*
X390419D01*
Y302459D01*
X390401D01*
Y302389D01*
X390383D01*
Y302336D01*
X390877D01*
Y302354D01*
X391053D01*
Y302371D01*
X391159D01*
Y302389D01*
X391247D01*
Y302406D01*
X391300D01*
Y302424D01*
X391352D01*
Y302442D01*
X391405D01*
Y302459D01*
X391441D01*
Y302477D01*
X391476D01*
Y302494D01*
X391511D01*
Y302512D01*
X391546D01*
Y302530D01*
X391564D01*
Y302547D01*
X391581D01*
Y302565D01*
X391617D01*
Y302583D01*
X391634D01*
Y302600D01*
X391652D01*
Y302618D01*
X391670D01*
Y302635D01*
X391687D01*
Y302653D01*
X391705D01*
Y302671D01*
X391722D01*
Y302688D01*
X391740D01*
Y302706D01*
X391758D01*
Y302723D01*
X391775D01*
Y302759D01*
X391793D01*
Y302776D01*
X391810D01*
Y302794D01*
X391828D01*
Y302829D01*
X391846D01*
Y302847D01*
X391863D01*
Y302882D01*
X391881D01*
Y302917D01*
X391899D01*
Y302953D01*
X391916D01*
Y302988D01*
X391934D01*
Y303041D01*
X391951D01*
Y303076D01*
X391969D01*
Y303129D01*
X391987D01*
Y303199D01*
X392004D01*
Y303270D01*
X392022D01*
Y303375D01*
X392039D01*
Y303816D01*
X392022D01*
Y303886D01*
X392004D01*
Y303957D01*
X391987D01*
Y303992D01*
X391969D01*
Y304027D01*
X391951D01*
Y304063D01*
X391934D01*
Y304080D01*
X391916D01*
Y304098D01*
X391899D01*
Y304115D01*
X391881D01*
Y304133D01*
X391863D01*
Y304151D01*
X391846D01*
Y304168D01*
X391828D01*
Y304186D01*
X391810D01*
Y304203D01*
X391775D01*
Y304221D01*
X391740D01*
Y304239D01*
X391705D01*
Y304256D01*
X391652D01*
Y304274D01*
X391599D01*
Y304292D01*
X391511D01*
Y304309D01*
X391352D01*
Y304327D01*
D02*
G37*
%LPD*%
D10*
X401374Y476189D02*
X400980D01*
X401374D01*
X435598Y448291D02*
Y448685D01*
Y448291D01*
X182724Y402480D02*
Y402874D01*
Y402480D01*
D11*
X122000Y459000D02*
X121898Y460007D01*
X121595Y460972D01*
X121104Y461856D01*
X120445Y462624D01*
X119645Y463243D01*
X118737Y463689D01*
X117757Y463942D01*
X116747Y463994D01*
X115747Y463840D01*
X114798Y463489D01*
X113939Y462954D01*
X113206Y462257D01*
X112628Y461426D01*
X112229Y460497D01*
X112026Y459506D01*
Y458494D01*
X112229Y457503D01*
X112628Y456573D01*
X113206Y455743D01*
X113939Y455046D01*
X114798Y454511D01*
X115747Y454160D01*
X116747Y454006D01*
X117757Y454058D01*
X118737Y454311D01*
X119645Y454757D01*
X120445Y455376D01*
X121104Y456144D01*
X121595Y457028D01*
X121898Y457994D01*
X122000Y459000D01*
X143000Y255000D02*
X142898Y256007D01*
X142595Y256972D01*
X142104Y257856D01*
X141445Y258624D01*
X140645Y259243D01*
X139736Y259689D01*
X138757Y259942D01*
X137747Y259994D01*
X136747Y259840D01*
X135798Y259489D01*
X134940Y258954D01*
X134206Y258257D01*
X133628Y257427D01*
X133229Y256497D01*
X133026Y255506D01*
Y254494D01*
X133229Y253503D01*
X133628Y252573D01*
X134206Y251743D01*
X134940Y251046D01*
X135798Y250511D01*
X136747Y250160D01*
X137747Y250006D01*
X138757Y250058D01*
X139736Y250311D01*
X140645Y250757D01*
X141445Y251376D01*
X142104Y252144D01*
X142595Y253028D01*
X142898Y253994D01*
X143000Y255000D01*
X446000D02*
X445898Y256007D01*
X445595Y256972D01*
X445104Y257856D01*
X444445Y258624D01*
X443645Y259243D01*
X442736Y259689D01*
X441757Y259942D01*
X440747Y259994D01*
X439747Y259840D01*
X438798Y259489D01*
X437940Y258954D01*
X437206Y258257D01*
X436628Y257427D01*
X436229Y256497D01*
X436026Y255506D01*
Y254494D01*
X436229Y253503D01*
X436628Y252573D01*
X437206Y251743D01*
X437940Y251046D01*
X438798Y250511D01*
X439747Y250160D01*
X440747Y250006D01*
X441757Y250058D01*
X442736Y250311D01*
X443645Y250757D01*
X444445Y251376D01*
X445104Y252144D01*
X445595Y253028D01*
X445898Y253994D01*
X446000Y255000D01*
X157500Y478000D02*
X157398Y479007D01*
X157095Y479972D01*
X156604Y480856D01*
X155945Y481624D01*
X155145Y482243D01*
X154236Y482689D01*
X153257Y482942D01*
X152247Y482994D01*
X151247Y482840D01*
X150298Y482489D01*
X149439Y481954D01*
X148706Y481257D01*
X148128Y480427D01*
X147729Y479497D01*
X147526Y478506D01*
Y477494D01*
X147729Y476503D01*
X148128Y475574D01*
X148706Y474743D01*
X149439Y474046D01*
X150298Y473511D01*
X151247Y473160D01*
X152247Y473006D01*
X153257Y473058D01*
X154236Y473311D01*
X155145Y473757D01*
X155945Y474376D01*
X156604Y475144D01*
X157095Y476028D01*
X157398Y476994D01*
X157500Y478000D01*
X302000Y252000D02*
X301898Y253007D01*
X301595Y253972D01*
X301104Y254856D01*
X300445Y255624D01*
X299645Y256243D01*
X298737Y256689D01*
X297757Y256942D01*
X296747Y256994D01*
X295747Y256840D01*
X294798Y256489D01*
X293939Y255954D01*
X293206Y255257D01*
X292628Y254427D01*
X292229Y253497D01*
X292026Y252506D01*
Y251494D01*
X292229Y250503D01*
X292628Y249573D01*
X293206Y248743D01*
X293939Y248046D01*
X294798Y247511D01*
X295747Y247160D01*
X296747Y247006D01*
X297757Y247058D01*
X298737Y247311D01*
X299645Y247757D01*
X300445Y248376D01*
X301104Y249144D01*
X301595Y250028D01*
X301898Y250993D01*
X302000Y252000D01*
X315000D02*
X314898Y253007D01*
X314595Y253972D01*
X314104Y254856D01*
X313445Y255624D01*
X312645Y256243D01*
X311736Y256689D01*
X310757Y256942D01*
X309747Y256994D01*
X308747Y256840D01*
X307798Y256489D01*
X306940Y255954D01*
X306206Y255257D01*
X305628Y254427D01*
X305229Y253497D01*
X305026Y252506D01*
Y251494D01*
X305229Y250503D01*
X305628Y249573D01*
X306206Y248743D01*
X306940Y248046D01*
X307798Y247511D01*
X308747Y247160D01*
X309747Y247006D01*
X310757Y247058D01*
X311736Y247311D01*
X312645Y247757D01*
X313445Y248376D01*
X314104Y249144D01*
X314595Y250028D01*
X314898Y250993D01*
X315000Y252000D01*
X135000Y443000D02*
X134898Y444006D01*
X134595Y444972D01*
X134104Y445856D01*
X133445Y446624D01*
X132645Y447243D01*
X131737Y447689D01*
X130757Y447942D01*
X129747Y447994D01*
X128747Y447840D01*
X127798Y447489D01*
X126939Y446954D01*
X126206Y446257D01*
X125628Y445427D01*
X125229Y444497D01*
X125026Y443506D01*
Y442494D01*
X125229Y441503D01*
X125628Y440574D01*
X126206Y439743D01*
X126939Y439046D01*
X127798Y438511D01*
X128747Y438160D01*
X129747Y438006D01*
X130757Y438058D01*
X131737Y438311D01*
X132645Y438757D01*
X133445Y439376D01*
X134104Y440144D01*
X134595Y441028D01*
X134898Y441994D01*
X135000Y443000D01*
X161000D02*
X160898Y444006D01*
X160595Y444972D01*
X160104Y445856D01*
X159445Y446624D01*
X158645Y447243D01*
X157737Y447689D01*
X156757Y447942D01*
X155747Y447994D01*
X154747Y447840D01*
X153798Y447489D01*
X152939Y446954D01*
X152206Y446257D01*
X151628Y445427D01*
X151229Y444497D01*
X151026Y443506D01*
Y442494D01*
X151229Y441503D01*
X151628Y440574D01*
X152206Y439743D01*
X152939Y439046D01*
X153798Y438511D01*
X154747Y438160D01*
X155747Y438006D01*
X156757Y438058D01*
X157737Y438311D01*
X158645Y438757D01*
X159445Y439376D01*
X160104Y440144D01*
X160595Y441028D01*
X160898Y441994D01*
X161000Y443000D01*
X289000Y252000D02*
X288898Y253007D01*
X288595Y253972D01*
X288104Y254856D01*
X287445Y255624D01*
X286645Y256243D01*
X285736Y256689D01*
X284757Y256942D01*
X283747Y256994D01*
X282747Y256840D01*
X281798Y256489D01*
X280940Y255954D01*
X280206Y255257D01*
X279628Y254427D01*
X279229Y253497D01*
X279026Y252506D01*
Y251494D01*
X279229Y250503D01*
X279628Y249573D01*
X280206Y248743D01*
X280940Y248046D01*
X281798Y247511D01*
X282747Y247160D01*
X283747Y247006D01*
X284757Y247058D01*
X285736Y247311D01*
X286645Y247757D01*
X287445Y248376D01*
X288104Y249144D01*
X288595Y250028D01*
X288898Y250993D01*
X289000Y252000D01*
X332000Y357000D02*
X331898Y358007D01*
X331595Y358972D01*
X331104Y359856D01*
X330445Y360624D01*
X329645Y361243D01*
X328736Y361689D01*
X327757Y361942D01*
X326747Y361994D01*
X325747Y361840D01*
X324798Y361489D01*
X323939Y360954D01*
X323206Y360257D01*
X322628Y359426D01*
X322229Y358497D01*
X322026Y357506D01*
Y356494D01*
X322229Y355503D01*
X322628Y354573D01*
X323206Y353743D01*
X323939Y353046D01*
X324798Y352511D01*
X325747Y352160D01*
X326747Y352006D01*
X327757Y352058D01*
X328736Y352311D01*
X329645Y352757D01*
X330445Y353376D01*
X331104Y354144D01*
X331595Y355028D01*
X331898Y355994D01*
X332000Y357000D01*
X148000Y443000D02*
X147898Y444006D01*
X147595Y444972D01*
X147104Y445856D01*
X146445Y446624D01*
X145645Y447243D01*
X144737Y447689D01*
X143757Y447942D01*
X142747Y447994D01*
X141747Y447840D01*
X140798Y447489D01*
X139939Y446954D01*
X139206Y446257D01*
X138628Y445427D01*
X138229Y444497D01*
X138026Y443506D01*
Y442494D01*
X138229Y441503D01*
X138628Y440574D01*
X139206Y439743D01*
X139939Y439046D01*
X140798Y438511D01*
X141747Y438160D01*
X142747Y438006D01*
X143757Y438058D01*
X144737Y438311D01*
X145645Y438757D01*
X146445Y439376D01*
X147104Y440144D01*
X147595Y441028D01*
X147898Y441994D01*
X148000Y443000D01*
X332000Y369000D02*
X331898Y370006D01*
X331595Y370972D01*
X331104Y371856D01*
X330445Y372624D01*
X329645Y373243D01*
X328736Y373689D01*
X327757Y373942D01*
X326747Y373994D01*
X325747Y373840D01*
X324798Y373489D01*
X323939Y372954D01*
X323206Y372257D01*
X322628Y371427D01*
X322229Y370497D01*
X322026Y369506D01*
Y368494D01*
X322229Y367503D01*
X322628Y366574D01*
X323206Y365743D01*
X323939Y365046D01*
X324798Y364511D01*
X325747Y364160D01*
X326747Y364006D01*
X327757Y364058D01*
X328736Y364311D01*
X329645Y364757D01*
X330445Y365376D01*
X331104Y366144D01*
X331595Y367028D01*
X331898Y367993D01*
X332000Y369000D01*
X185000Y283000D02*
X184898Y284007D01*
X184595Y284972D01*
X184104Y285856D01*
X183445Y286624D01*
X182645Y287243D01*
X181737Y287689D01*
X180757Y287942D01*
X179747Y287994D01*
X178747Y287840D01*
X177798Y287489D01*
X176939Y286954D01*
X176206Y286257D01*
X175628Y285426D01*
X175229Y284497D01*
X175026Y283506D01*
Y282494D01*
X175229Y281503D01*
X175628Y280574D01*
X176206Y279743D01*
X176939Y279046D01*
X177798Y278511D01*
X178747Y278160D01*
X179747Y278006D01*
X180757Y278058D01*
X181737Y278311D01*
X182645Y278757D01*
X183445Y279376D01*
X184104Y280144D01*
X184595Y281028D01*
X184898Y281994D01*
X185000Y283000D01*
X332000Y345000D02*
X331898Y346006D01*
X331595Y346972D01*
X331104Y347856D01*
X330445Y348624D01*
X329645Y349243D01*
X328737Y349689D01*
X327757Y349942D01*
X326747Y349994D01*
X325747Y349840D01*
X324798Y349489D01*
X323939Y348954D01*
X323206Y348257D01*
X322628Y347427D01*
X322229Y346497D01*
X322026Y345506D01*
Y344494D01*
X322229Y343503D01*
X322628Y342573D01*
X323206Y341743D01*
X323939Y341046D01*
X324798Y340511D01*
X325747Y340160D01*
X326747Y340006D01*
X327757Y340058D01*
X328737Y340311D01*
X329645Y340757D01*
X330445Y341376D01*
X331104Y342144D01*
X331595Y343028D01*
X331898Y343993D01*
X332000Y345000D01*
X200000Y478000D02*
X199898Y479006D01*
X199595Y479972D01*
X199104Y480856D01*
X198445Y481624D01*
X197645Y482243D01*
X196737Y482689D01*
X195757Y482942D01*
X194747Y482994D01*
X193747Y482840D01*
X192798Y482489D01*
X191939Y481954D01*
X191206Y481257D01*
X190628Y480427D01*
X190229Y479497D01*
X190026Y478506D01*
Y477494D01*
X190229Y476503D01*
X190628Y475573D01*
X191206Y474743D01*
X191939Y474046D01*
X192798Y473511D01*
X193747Y473160D01*
X194747Y473006D01*
X195757Y473058D01*
X196737Y473311D01*
X197645Y473757D01*
X198445Y474376D01*
X199104Y475144D01*
X199595Y476028D01*
X199898Y476994D01*
X200000Y478000D01*
X186000D02*
X185898Y479006D01*
X185595Y479972D01*
X185104Y480856D01*
X184445Y481624D01*
X183645Y482243D01*
X182737Y482689D01*
X181757Y482942D01*
X180747Y482994D01*
X179747Y482840D01*
X178798Y482489D01*
X177939Y481954D01*
X177206Y481257D01*
X176628Y480427D01*
X176229Y479497D01*
X176026Y478506D01*
Y477494D01*
X176229Y476503D01*
X176628Y475573D01*
X177206Y474743D01*
X177939Y474046D01*
X178798Y473511D01*
X179747Y473160D01*
X180747Y473006D01*
X181757Y473058D01*
X182737Y473311D01*
X183645Y473757D01*
X184445Y474376D01*
X185104Y475144D01*
X185595Y476028D01*
X185898Y476994D01*
X186000Y478000D01*
X172000D02*
X171898Y479006D01*
X171595Y479972D01*
X171104Y480856D01*
X170445Y481624D01*
X169645Y482243D01*
X168737Y482689D01*
X167757Y482942D01*
X166747Y482994D01*
X165747Y482840D01*
X164798Y482489D01*
X163939Y481954D01*
X163206Y481257D01*
X162628Y480427D01*
X162229Y479497D01*
X162026Y478506D01*
Y477494D01*
X162229Y476503D01*
X162628Y475573D01*
X163206Y474743D01*
X163939Y474046D01*
X164798Y473511D01*
X165747Y473160D01*
X166747Y473006D01*
X167757Y473058D01*
X168737Y473311D01*
X169645Y473757D01*
X170445Y474376D01*
X171104Y475144D01*
X171595Y476028D01*
X171898Y476994D01*
X172000Y478000D01*
X159000Y283000D02*
X158898Y284007D01*
X158595Y284972D01*
X158104Y285856D01*
X157445Y286624D01*
X156645Y287243D01*
X155736Y287689D01*
X154757Y287942D01*
X153747Y287994D01*
X152747Y287840D01*
X151798Y287489D01*
X150940Y286954D01*
X150206Y286257D01*
X149628Y285426D01*
X149229Y284497D01*
X149026Y283506D01*
Y282494D01*
X149229Y281503D01*
X149628Y280574D01*
X150206Y279743D01*
X150940Y279046D01*
X151798Y278511D01*
X152747Y278160D01*
X153747Y278006D01*
X154757Y278058D01*
X155736Y278311D01*
X156645Y278757D01*
X157445Y279376D01*
X158104Y280144D01*
X158595Y281028D01*
X158898Y281994D01*
X159000Y283000D01*
X346000Y477000D02*
X345898Y478007D01*
X345595Y478972D01*
X345104Y479856D01*
X344445Y480624D01*
X343645Y481243D01*
X342737Y481689D01*
X341757Y481942D01*
X340747Y481994D01*
X339747Y481840D01*
X338798Y481489D01*
X337940Y480954D01*
X337206Y480257D01*
X336628Y479426D01*
X336229Y478497D01*
X336026Y477506D01*
Y476494D01*
X336229Y475503D01*
X336628Y474574D01*
X337206Y473743D01*
X337940Y473046D01*
X338798Y472511D01*
X339747Y472160D01*
X340747Y472006D01*
X341757Y472058D01*
X342737Y472311D01*
X343645Y472757D01*
X344445Y473376D01*
X345104Y474144D01*
X345595Y475028D01*
X345898Y475993D01*
X346000Y477000D01*
X172000Y283000D02*
X171898Y284007D01*
X171595Y284972D01*
X171104Y285856D01*
X170445Y286624D01*
X169645Y287243D01*
X168737Y287689D01*
X167757Y287942D01*
X166747Y287994D01*
X165747Y287840D01*
X164798Y287489D01*
X163940Y286954D01*
X163206Y286257D01*
X162628Y285426D01*
X162230Y284497D01*
X162026Y283506D01*
Y282494D01*
X162230Y281503D01*
X162628Y280574D01*
X163206Y279743D01*
X163940Y279046D01*
X164798Y278511D01*
X165747Y278160D01*
X166747Y278006D01*
X167757Y278058D01*
X168737Y278311D01*
X169645Y278757D01*
X170445Y279376D01*
X171104Y280144D01*
X171595Y281028D01*
X171898Y281994D01*
X172000Y283000D01*
X123000Y312000D02*
X122898Y313006D01*
X122595Y313972D01*
X122104Y314856D01*
X121445Y315624D01*
X120645Y316243D01*
X119737Y316689D01*
X118757Y316942D01*
X117747Y316994D01*
X116747Y316840D01*
X115798Y316489D01*
X114939Y315954D01*
X114206Y315257D01*
X113628Y314426D01*
X113229Y313497D01*
X113026Y312506D01*
Y311494D01*
X113229Y310503D01*
X113628Y309574D01*
X114206Y308743D01*
X114939Y308046D01*
X115798Y307511D01*
X116747Y307160D01*
X117747Y307006D01*
X118757Y307058D01*
X119737Y307311D01*
X120645Y307757D01*
X121445Y308376D01*
X122104Y309144D01*
X122595Y310028D01*
X122898Y310994D01*
X123000Y312000D01*
X303000Y303000D02*
X302898Y304007D01*
X302595Y304972D01*
X302104Y305856D01*
X301445Y306624D01*
X300645Y307243D01*
X299736Y307689D01*
X298757Y307942D01*
X297747Y307994D01*
X296747Y307840D01*
X295798Y307489D01*
X294939Y306954D01*
X294206Y306257D01*
X293628Y305427D01*
X293229Y304497D01*
X293026Y303506D01*
Y302494D01*
X293229Y301503D01*
X293628Y300573D01*
X294206Y299743D01*
X294939Y299046D01*
X295798Y298511D01*
X296747Y298160D01*
X297747Y298006D01*
X298757Y298058D01*
X299736Y298311D01*
X300645Y298757D01*
X301445Y299376D01*
X302104Y300144D01*
X302595Y301028D01*
X302898Y301993D01*
X303000Y303000D01*
X290000D02*
X289898Y304007D01*
X289595Y304972D01*
X289104Y305856D01*
X288445Y306624D01*
X287645Y307243D01*
X286736Y307689D01*
X285757Y307942D01*
X284747Y307994D01*
X283747Y307840D01*
X282798Y307489D01*
X281940Y306954D01*
X281206Y306257D01*
X280628Y305427D01*
X280229Y304497D01*
X280026Y303506D01*
Y302494D01*
X280229Y301503D01*
X280628Y300573D01*
X281206Y299743D01*
X281940Y299046D01*
X282798Y298511D01*
X283747Y298160D01*
X284747Y298006D01*
X285757Y298058D01*
X286736Y298311D01*
X287645Y298757D01*
X288445Y299376D01*
X289104Y300144D01*
X289595Y301028D01*
X289898Y301993D01*
X290000Y303000D01*
X316000D02*
X315898Y304007D01*
X315595Y304972D01*
X315104Y305856D01*
X314445Y306624D01*
X313645Y307243D01*
X312737Y307689D01*
X311757Y307942D01*
X310747Y307994D01*
X309747Y307840D01*
X308798Y307489D01*
X307939Y306954D01*
X307206Y306257D01*
X306628Y305427D01*
X306229Y304497D01*
X306026Y303506D01*
Y302494D01*
X306229Y301503D01*
X306628Y300573D01*
X307206Y299743D01*
X307939Y299046D01*
X308798Y298511D01*
X309747Y298160D01*
X310747Y298006D01*
X311757Y298058D01*
X312737Y298311D01*
X313645Y298757D01*
X314445Y299376D01*
X315104Y300144D01*
X315595Y301028D01*
X315898Y301993D01*
X316000Y303000D01*
X361000Y477000D02*
X360898Y478007D01*
X360595Y478972D01*
X360104Y479856D01*
X359445Y480624D01*
X358645Y481243D01*
X357736Y481689D01*
X356757Y481942D01*
X355747Y481994D01*
X354747Y481840D01*
X353798Y481489D01*
X352940Y480954D01*
X352206Y480257D01*
X351628Y479426D01*
X351229Y478497D01*
X351026Y477506D01*
Y476494D01*
X351229Y475503D01*
X351628Y474574D01*
X352206Y473743D01*
X352940Y473046D01*
X353798Y472511D01*
X354747Y472160D01*
X355747Y472006D01*
X356757Y472058D01*
X357736Y472311D01*
X358645Y472757D01*
X359445Y473376D01*
X360104Y474144D01*
X360595Y475028D01*
X360898Y475993D01*
X361000Y477000D01*
X122000Y443000D02*
X121898Y444006D01*
X121595Y444972D01*
X121104Y445856D01*
X120445Y446624D01*
X119645Y447243D01*
X118737Y447689D01*
X117757Y447942D01*
X116747Y447994D01*
X115747Y447840D01*
X114798Y447489D01*
X113939Y446954D01*
X113206Y446257D01*
X112628Y445427D01*
X112229Y444497D01*
X112026Y443506D01*
Y442494D01*
X112229Y441503D01*
X112628Y440574D01*
X113206Y439743D01*
X113939Y439046D01*
X114798Y438511D01*
X115747Y438160D01*
X116747Y438006D01*
X117757Y438058D01*
X118737Y438311D01*
X119645Y438757D01*
X120445Y439376D01*
X121104Y440144D01*
X121595Y441028D01*
X121898Y441994D01*
X122000Y443000D01*
X332000Y381000D02*
X331898Y382007D01*
X331595Y382972D01*
X331104Y383856D01*
X330445Y384624D01*
X329645Y385243D01*
X328736Y385689D01*
X327757Y385942D01*
X326747Y385994D01*
X325747Y385840D01*
X324798Y385489D01*
X323939Y384954D01*
X323206Y384257D01*
X322628Y383426D01*
X322229Y382497D01*
X322026Y381506D01*
Y380494D01*
X322229Y379503D01*
X322628Y378573D01*
X323206Y377743D01*
X323939Y377046D01*
X324798Y376511D01*
X325747Y376160D01*
X326747Y376006D01*
X327757Y376058D01*
X328736Y376311D01*
X329645Y376757D01*
X330445Y377376D01*
X331104Y378144D01*
X331595Y379028D01*
X331898Y379994D01*
X332000Y381000D01*
X123000Y299000D02*
X122898Y300007D01*
X122595Y300972D01*
X122104Y301856D01*
X121445Y302624D01*
X120645Y303243D01*
X119737Y303689D01*
X118757Y303942D01*
X117747Y303994D01*
X116747Y303840D01*
X115798Y303489D01*
X114939Y302954D01*
X114206Y302257D01*
X113628Y301427D01*
X113229Y300497D01*
X113026Y299506D01*
Y298494D01*
X113229Y297503D01*
X113628Y296573D01*
X114206Y295743D01*
X114939Y295046D01*
X115798Y294511D01*
X116747Y294160D01*
X117747Y294006D01*
X118757Y294058D01*
X119737Y294311D01*
X120645Y294757D01*
X121445Y295376D01*
X122104Y296144D01*
X122595Y297028D01*
X122898Y297993D01*
X123000Y299000D01*
Y325000D02*
X122898Y326007D01*
X122595Y326972D01*
X122104Y327856D01*
X121445Y328624D01*
X120645Y329243D01*
X119737Y329689D01*
X118757Y329942D01*
X117747Y329994D01*
X116747Y329840D01*
X115798Y329489D01*
X114939Y328954D01*
X114206Y328257D01*
X113628Y327427D01*
X113229Y326497D01*
X113026Y325506D01*
Y324494D01*
X113229Y323503D01*
X113628Y322573D01*
X114206Y321743D01*
X114939Y321046D01*
X115798Y320511D01*
X116747Y320160D01*
X117747Y320006D01*
X118757Y320058D01*
X119737Y320311D01*
X120645Y320757D01*
X121445Y321376D01*
X122104Y322144D01*
X122595Y323028D01*
X122898Y323993D01*
X123000Y325000D01*
X385429Y473236D02*
Y476583D01*
Y473236D02*
X395272D01*
X385429Y487606D02*
Y490953D01*
X395272D01*
X233995Y270555D02*
X248365D01*
Y258153D02*
Y270555D01*
X233995Y258153D02*
X248365D01*
X233995D02*
Y270555D01*
X296843Y473063D02*
Y480937D01*
X283063Y467157D02*
X290937D01*
X283063Y486843D02*
X290937D01*
X277157Y473063D02*
Y480937D01*
X279520Y483299D02*
X283063Y486843D01*
X290937D02*
X294480Y483299D01*
X290937Y467157D02*
X294480Y470701D01*
X279520D02*
X283063Y467157D01*
X133815Y357799D02*
Y370201D01*
Y357799D02*
X148185D01*
Y370201D01*
X133815D02*
X148185D01*
X183815Y307799D02*
Y320201D01*
Y307799D02*
X198185D01*
Y320201D01*
X183815D02*
X198185D01*
X226705Y488591D02*
X247295D01*
X226705Y457409D02*
Y488591D01*
X247295Y457409D02*
Y488591D01*
X226705Y457409D02*
X247295D01*
X413000Y490000D02*
X433000D01*
X413000Y480000D02*
Y490000D01*
Y480000D02*
X433000D01*
Y490000D01*
X466000Y398299D02*
Y417984D01*
X440299Y446299D02*
X466000Y417984D01*
X356000Y446299D02*
X440299D01*
X356000Y350299D02*
Y446299D01*
Y350299D02*
X440299D01*
X466000Y378614D01*
Y398299D01*
X217098Y400228D02*
X241902D01*
Y375425D02*
Y400228D01*
X217098Y375425D02*
X241902D01*
X217098D02*
Y400228D01*
X177213Y399921D02*
X178787D01*
X177213Y390079D02*
X178787D01*
X296654Y457039D02*
Y464961D01*
X303346Y457039D02*
Y464961D01*
D12*
X232322Y267307D02*
X231583Y267733D01*
Y266880D01*
X232322Y267307D01*
X275091Y465386D02*
X274352Y465812D01*
Y464960D01*
X275091Y465386D01*
X132142Y366953D02*
X131404Y367379D01*
Y366527D01*
X132142Y366953D01*
X182142Y316953D02*
X181404Y317379D01*
Y316527D01*
X182142Y316953D01*
X319717Y409472D02*
X318978Y409899D01*
Y409046D01*
X319717Y409472D01*
X211390Y401606D02*
X210652Y402033D01*
Y401180D01*
X211390Y401606D01*
X135020Y399000D02*
X134282Y399426D01*
Y398574D01*
X135020Y399000D01*
D13*
X139414Y407086D02*
X139083Y407995D01*
X138246Y408478D01*
X137293Y408311D01*
X136671Y407570D01*
Y406602D01*
X137293Y405861D01*
X138246Y405693D01*
X139083Y406177D01*
X139414Y407086D01*
X254171Y265597D02*
X253840Y266506D01*
X253002Y266990D01*
X252050Y266822D01*
X251428Y266081D01*
Y265113D01*
X252050Y264372D01*
X253002Y264205D01*
X253840Y264688D01*
X254171Y265597D01*
X153414Y364086D02*
X153083Y364995D01*
X152246Y365478D01*
X151293Y365311D01*
X150671Y364569D01*
Y363602D01*
X151293Y362861D01*
X152246Y362693D01*
X153083Y363177D01*
X153414Y364086D01*
X205414Y315500D02*
X205083Y316409D01*
X204246Y316893D01*
X203293Y316725D01*
X202671Y315984D01*
Y315016D01*
X203293Y314275D01*
X204246Y314107D01*
X205083Y314591D01*
X205414Y315500D01*
X138000Y407086D02*
X141000D01*
X140500Y407586D02*
X141000Y407086D01*
X140500Y406586D02*
X141000Y407086D01*
X138000Y410086D02*
X138500Y409586D01*
X137500D02*
X138000Y410086D01*
Y407086D02*
Y410086D01*
X252757Y265597D02*
Y268597D01*
X252257Y268097D02*
X252757Y268597D01*
X253257Y268097D01*
X255257Y265097D02*
X255757Y265597D01*
X255257Y266097D02*
X255757Y265597D01*
X252757D02*
X255757D01*
X152000Y364086D02*
Y367086D01*
X151500Y366586D02*
X152000Y367086D01*
X152500Y366586D01*
X154500Y363586D02*
X155000Y364086D01*
X154500Y364586D02*
X155000Y364086D01*
X152000D02*
X155000D01*
X204000Y315500D02*
X207000D01*
X206500Y316000D02*
X207000Y315500D01*
X206500Y315000D02*
X207000Y315500D01*
X204000Y318500D02*
X204500Y318000D01*
X203500D02*
X204000Y318500D01*
Y315500D02*
Y318500D01*
X142000Y407585D02*
X143000Y406086D01*
Y407585D02*
X142000Y406086D01*
X136000Y411085D02*
Y410835D01*
X136500Y410335D01*
X137000Y410835D01*
Y411085D01*
X136500Y410335D02*
Y409586D01*
X250757Y269597D02*
Y269347D01*
X251256Y268847D01*
X251756Y269347D01*
Y269597D01*
X251256Y268847D02*
Y268097D01*
X256757Y266097D02*
X257756Y264597D01*
Y266097D02*
X256757Y264597D01*
X150000Y368085D02*
Y367835D01*
X150500Y367336D01*
X151000Y367835D01*
Y368085D01*
X150500Y367336D02*
Y366586D01*
X156000Y364585D02*
X157000Y363086D01*
Y364585D02*
X156000Y363086D01*
X208000Y316000D02*
X209000Y314500D01*
Y316000D02*
X208000Y314500D01*
X202000Y319499D02*
Y319250D01*
X202500Y318750D01*
X203000Y319250D01*
Y319499D01*
X202500Y318750D02*
Y318000D01*
D14*
X146000Y271000D02*
X188000D01*
X146000Y290000D02*
X188000D01*
Y271000D02*
Y290000D01*
X146000Y271000D02*
Y290000D01*
X124983Y290294D02*
Y332294D01*
X105983Y290294D02*
Y332294D01*
X124983D01*
X105983Y290294D02*
X124983D01*
X314000Y338000D02*
X334000D01*
X314000Y389000D02*
X334000D01*
Y338000D02*
Y389000D01*
X314000Y338000D02*
Y389000D01*
X110000Y423000D02*
X163000D01*
X110000Y450000D02*
X163000D01*
Y423000D02*
Y450000D01*
X110000Y423000D02*
Y450000D01*
X143000Y470000D02*
X204000D01*
X143000Y491000D02*
X204000D01*
Y470000D02*
Y491000D01*
X143000Y470000D02*
Y491000D01*
X332000Y468000D02*
X366000D01*
X332000Y491000D02*
X366000D01*
Y468000D02*
Y491000D01*
X332000Y468000D02*
Y491000D01*
X276228Y240116D02*
X318228D01*
X276228Y259116D02*
X318228D01*
Y240116D02*
Y259116D01*
X276228Y240116D02*
Y259116D01*
X277000Y290000D02*
X319000D01*
X277000Y311000D02*
X319000D01*
Y290000D02*
Y311000D01*
X277000Y290000D02*
Y311000D01*
X365499Y293498D02*
X361500D01*
Y290499D01*
X363499D01*
X361500D01*
Y287500D01*
X368498D02*
X370497D01*
X371497Y288500D01*
Y290499D01*
X370497Y291499D01*
X368498D01*
X367498Y290499D01*
Y288500D01*
X368498Y287500D01*
X374496D02*
X376495D01*
X377495Y288500D01*
Y290499D01*
X376495Y291499D01*
X374496D01*
X373496Y290499D01*
Y288500D01*
X374496Y287500D01*
X380494Y292498D02*
Y291499D01*
X379494D01*
X381493D01*
X380494D01*
Y288500D01*
X381493Y287500D01*
X384493Y293498D02*
Y287500D01*
X387492D01*
X388491Y288500D01*
Y289499D01*
X387492Y290499D01*
X384493D01*
X387492D01*
X388491Y291499D01*
Y292498D01*
X387492Y293498D01*
X384493D01*
X391490Y287500D02*
X393490D01*
X394489Y288500D01*
Y290499D01*
X393490Y291499D01*
X391490D01*
X390491Y290499D01*
Y288500D01*
X391490Y287500D01*
X397488Y291499D02*
X399488D01*
X400487Y290499D01*
Y287500D01*
X397488D01*
X396489Y288500D01*
X397488Y289499D01*
X400487D01*
X402487Y291499D02*
Y287500D01*
Y289499D01*
X403486Y290499D01*
X404486Y291499D01*
X405486D01*
X412484Y293498D02*
Y287500D01*
X409484D01*
X408485Y288500D01*
Y290499D01*
X409484Y291499D01*
X412484D01*
X164740Y441916D02*
X168739D01*
X167406Y440583D01*
X168739Y439250D01*
X164740D01*
Y437917D02*
X167406D01*
X168739Y436584D01*
X167406Y435251D01*
X164740D01*
X166740D01*
Y437917D01*
X168073Y431253D02*
X168739Y431919D01*
Y433252D01*
X168073Y433918D01*
X165407D01*
X164740Y433252D01*
Y431919D01*
X165407Y431253D01*
X166740D01*
Y432585D01*
X157337Y435884D02*
Y433884D01*
Y434884D01*
X154338D01*
Y432885D02*
X157337D01*
Y431385D01*
X156837Y430886D01*
X155838D01*
X155338Y431385D01*
Y432885D01*
Y431885D02*
X154338Y430886D01*
X157337Y429886D02*
Y428886D01*
Y429386D01*
X154338D01*
Y429886D01*
Y428886D01*
X156837Y425387D02*
X157337Y425887D01*
Y426887D01*
X156837Y427387D01*
X154838D01*
X154338Y426887D01*
Y425887D01*
X154838Y425387D01*
X155838D01*
Y426387D01*
X144337Y435884D02*
Y434884D01*
Y435384D01*
X141338D01*
Y435884D01*
Y434884D01*
Y433385D02*
X144337D01*
X141338Y431385D01*
X144337D01*
Y430386D02*
Y428386D01*
Y429386D01*
X141338D01*
X130837Y433884D02*
X131337Y434384D01*
Y435384D01*
X130837Y435884D01*
X130338D01*
X129838Y435384D01*
Y434384D01*
X129338Y433884D01*
X128838D01*
X128338Y434384D01*
Y435384D01*
X128838Y435884D01*
X130837Y430886D02*
X131337Y431385D01*
Y432385D01*
X130837Y432885D01*
X128838D01*
X128338Y432385D01*
Y431385D01*
X128838Y430886D01*
X131337Y429886D02*
X128338D01*
Y427886D01*
X117499Y434001D02*
X117999Y434501D01*
Y435500D01*
X117499Y436000D01*
X116999D01*
X116499Y435500D01*
Y434501D01*
X116000Y434001D01*
X115500D01*
X115000Y434501D01*
Y435500D01*
X115500Y436000D01*
X117999Y433001D02*
X115000D01*
Y431501D01*
X115500Y431002D01*
X117499D01*
X117999Y431501D01*
Y433001D01*
X115000Y430002D02*
X116999D01*
X117999Y429002D01*
X116999Y428003D01*
X115000D01*
X116499D01*
Y430002D01*
X340332Y367334D02*
X340999Y368001D01*
Y369334D01*
X340332Y370000D01*
X339666D01*
X338999Y369334D01*
Y368001D01*
X338333Y367334D01*
X337666D01*
X337000Y368001D01*
Y369334D01*
X337666Y370000D01*
X337000Y366001D02*
X340999D01*
Y364002D01*
X340332Y363335D01*
X338999D01*
X338333Y364002D01*
Y366001D01*
X340999Y362003D02*
Y360670D01*
Y361336D01*
X337000D01*
Y362003D01*
Y360670D01*
Y356005D02*
Y358670D01*
X339666Y356005D01*
X340332D01*
X340999Y356671D01*
Y358004D01*
X340332Y358670D01*
X318499Y382001D02*
X318999Y382501D01*
Y383500D01*
X318499Y384000D01*
X316500D01*
X316000Y383500D01*
Y382501D01*
X316500Y382001D01*
X318499Y379002D02*
X318999Y379502D01*
Y380501D01*
X318499Y381001D01*
X317999D01*
X317499Y380501D01*
Y379502D01*
X317000Y379002D01*
X316500D01*
X316000Y379502D01*
Y380501D01*
X316500Y381001D01*
X318499Y347001D02*
X318999Y347500D01*
Y348500D01*
X318499Y349000D01*
X316500D01*
X316000Y348500D01*
Y347500D01*
X316500Y347001D01*
X318999Y346001D02*
X316000D01*
Y344002D01*
X318999Y343002D02*
X316000D01*
X317000D01*
X318999Y341003D01*
X317499Y342502D01*
X316000Y341003D01*
Y375000D02*
X318999D01*
X317999Y374000D01*
X318999Y373001D01*
X316000D01*
X318999Y372001D02*
Y371001D01*
Y371501D01*
X316000D01*
Y372001D01*
Y371001D01*
X318499Y367502D02*
X318999Y368002D01*
Y369002D01*
X318499Y369502D01*
X317999D01*
X317499Y369002D01*
Y368002D01*
X317000Y367502D01*
X316500D01*
X316000Y368002D01*
Y369002D01*
X316500Y369502D01*
X318999Y365003D02*
Y366003D01*
X318499Y366503D01*
X316500D01*
X316000Y366003D01*
Y365003D01*
X316500Y364503D01*
X318499D01*
X318999Y365003D01*
X316000Y362000D02*
X318999D01*
X317999Y361000D01*
X318999Y360001D01*
X316000D01*
X318999Y357502D02*
Y358501D01*
X318499Y359001D01*
X316500D01*
X316000Y358501D01*
Y357502D01*
X316500Y357002D01*
X318499D01*
X318999Y357502D01*
X318499Y354003D02*
X318999Y354502D01*
Y355502D01*
X318499Y356002D01*
X317999D01*
X317499Y355502D01*
Y354502D01*
X317000Y354003D01*
X316500D01*
X316000Y354502D01*
Y355502D01*
X316500Y356002D01*
X318999Y353003D02*
Y352003D01*
Y352503D01*
X316000D01*
Y353003D01*
Y352003D01*
X294196Y316267D02*
X293529Y316933D01*
X292196D01*
X291530Y316267D01*
Y315600D01*
X292196Y314934D01*
X293529D01*
X294196Y314267D01*
Y313601D01*
X293529Y312935D01*
X292196D01*
X291530Y313601D01*
X295529Y312935D02*
Y316933D01*
X297528D01*
X298195Y316267D01*
Y314934D01*
X297528Y314267D01*
X295529D01*
X299527Y316933D02*
X300860D01*
X300194D01*
Y312935D01*
X299527D01*
X300860D01*
X302860D02*
X304192D01*
X303526D01*
Y316933D01*
X302860Y316267D01*
X308999Y294499D02*
X308500Y294999D01*
X307500D01*
X307000Y294499D01*
Y292500D01*
X307500Y292000D01*
X308500D01*
X308999Y292500D01*
X309999Y294999D02*
Y292000D01*
X311998D01*
X312998Y294999D02*
Y292000D01*
Y293000D01*
X314997Y294999D01*
X313498Y293499D01*
X314997Y292000D01*
X293000D02*
Y294999D01*
X294000Y293999D01*
X294999Y294999D01*
Y292000D01*
X297498Y294999D02*
X296499D01*
X295999Y294499D01*
Y292500D01*
X296499Y292000D01*
X297498D01*
X297998Y292500D01*
Y294499D01*
X297498Y294999D01*
X300997Y294499D02*
X300498Y294999D01*
X299498D01*
X298998Y294499D01*
Y293999D01*
X299498Y293499D01*
X300498D01*
X300997Y293000D01*
Y292500D01*
X300498Y292000D01*
X299498D01*
X298998Y292500D01*
X301997Y294999D02*
X302997D01*
X302497D01*
Y292000D01*
X301997D01*
X302997D01*
X280000D02*
Y294999D01*
X281000Y293999D01*
X281999Y294999D01*
Y292000D01*
X282999Y294999D02*
X283999D01*
X283499D01*
Y292000D01*
X282999D01*
X283999D01*
X287498Y294499D02*
X286998Y294999D01*
X285998D01*
X285498Y294499D01*
Y293999D01*
X285998Y293499D01*
X286998D01*
X287498Y293000D01*
Y292500D01*
X286998Y292000D01*
X285998D01*
X285498Y292500D01*
X289997Y294999D02*
X288997D01*
X288497Y294499D01*
Y292500D01*
X288997Y292000D01*
X289997D01*
X290497Y292500D01*
Y294499D01*
X289997Y294999D01*
X290530Y264933D02*
X291863D01*
X291196D01*
Y260935D01*
X290530D01*
X291863D01*
X293862D02*
Y264933D01*
X295195Y263600D01*
X296528Y264933D01*
Y260935D01*
X297861Y264933D02*
Y261601D01*
X298527Y260935D01*
X299860D01*
X300527Y261601D01*
Y264933D01*
X301860Y264267D02*
X302526Y264933D01*
X303859D01*
X304525Y264267D01*
Y263600D01*
X303859Y262934D01*
X303192D01*
X303859D01*
X304525Y262267D01*
Y261601D01*
X303859Y260935D01*
X302526D01*
X301860Y261601D01*
X161000Y267999D02*
X162333D01*
X161667D01*
Y264000D01*
X161000D01*
X162333D01*
X164332D02*
Y267999D01*
X165665Y266666D01*
X166998Y267999D01*
Y264000D01*
X168331Y267999D02*
Y264666D01*
X168997Y264000D01*
X170330D01*
X170997Y264666D01*
Y267999D01*
X174996Y264000D02*
X172330D01*
X174996Y266666D01*
Y267332D01*
X174329Y267999D01*
X172996D01*
X172330Y267332D01*
X130999Y318000D02*
Y316667D01*
Y317334D01*
X127000D01*
Y318000D01*
Y316667D01*
Y314668D02*
X130999D01*
X129666Y313335D01*
X130999Y312002D01*
X127000D01*
X130999Y310669D02*
X127666D01*
X127000Y310003D01*
Y308670D01*
X127666Y308003D01*
X130999D01*
X127000Y306670D02*
Y305337D01*
Y306004D01*
X130999D01*
X130332Y306670D01*
X110999Y329000D02*
Y328000D01*
Y328500D01*
X108000D01*
Y329000D01*
Y328000D01*
Y326501D02*
X110999D01*
X108000Y324501D01*
X110999D01*
Y323502D02*
Y321502D01*
Y322502D01*
X108000D01*
Y320503D02*
Y319503D01*
Y320003D01*
X110999D01*
X110499Y320503D01*
X110999Y304000D02*
Y303000D01*
Y303500D01*
X108000D01*
Y304000D01*
Y303000D01*
Y301501D02*
X110999D01*
X108000Y299501D01*
X110999D01*
Y298502D02*
Y296502D01*
Y297502D01*
X108000D01*
Y293503D02*
Y295503D01*
X109999Y293503D01*
X110499D01*
X110999Y294003D01*
Y295003D01*
X110499Y295503D01*
X110609Y312143D02*
X111109Y312642D01*
Y313642D01*
X110609Y314142D01*
X108610D01*
X108110Y313642D01*
Y312642D01*
X108610Y312143D01*
X110609Y309144D02*
X111109Y309643D01*
Y310643D01*
X110609Y311143D01*
X110110D01*
X109610Y310643D01*
Y309643D01*
X109110Y309144D01*
X108610D01*
X108110Y309643D01*
Y310643D01*
X108610Y311143D01*
X296999Y244499D02*
X296499Y244999D01*
X295500D01*
X295000Y244499D01*
Y242500D01*
X295500Y242000D01*
X296499D01*
X296999Y242500D01*
X299998Y244499D02*
X299499Y244999D01*
X298499D01*
X297999Y244499D01*
Y243999D01*
X298499Y243499D01*
X299499D01*
X299998Y243000D01*
Y242500D01*
X299499Y242000D01*
X298499D01*
X297999Y242500D01*
X305000Y244999D02*
X306000D01*
X305500D01*
Y242000D01*
X305000D01*
X306000D01*
X307499D02*
Y244999D01*
X309499Y242000D01*
Y244999D01*
X310498D02*
X312498D01*
X311498D01*
Y242000D01*
X315497D02*
X313497D01*
X315497Y243999D01*
Y244499D01*
X314997Y244999D01*
X313997D01*
X313497Y244499D01*
X280000Y244999D02*
X281000D01*
X280500D01*
Y242000D01*
X280000D01*
X281000D01*
X282499D02*
Y244999D01*
X284499Y242000D01*
Y244999D01*
X285498D02*
X287498D01*
X286498D01*
Y242000D01*
X288497D02*
X289497D01*
X288997D01*
Y244999D01*
X288497Y244499D01*
X166857Y275609D02*
X166358Y276109D01*
X165358D01*
X164858Y275609D01*
Y273610D01*
X165358Y273110D01*
X166358D01*
X166857Y273610D01*
X169856Y275609D02*
X169357Y276109D01*
X168357D01*
X167857Y275609D01*
Y275110D01*
X168357Y274610D01*
X169357D01*
X169856Y274110D01*
Y273610D01*
X169357Y273110D01*
X168357D01*
X167857Y273610D01*
X175000Y275999D02*
X176000D01*
X175500D01*
Y273000D01*
X175000D01*
X176000D01*
X177499D02*
Y275999D01*
X179499Y273000D01*
Y275999D01*
X180498D02*
X182498D01*
X181498D01*
Y273000D01*
X185497D02*
X183497D01*
X185497Y274999D01*
Y275499D01*
X184997Y275999D01*
X183997D01*
X183497Y275499D01*
X150000Y275999D02*
X151000D01*
X150500D01*
Y273000D01*
X150000D01*
X151000D01*
X152499D02*
Y275999D01*
X154499Y273000D01*
Y275999D01*
X155498D02*
X157498D01*
X156498D01*
Y273000D01*
X158497D02*
X159497D01*
X158997D01*
Y275999D01*
X158497Y275499D01*
X365499Y280998D02*
X361500D01*
Y275000D01*
X365499D01*
X361500Y277999D02*
X363499D01*
X371497Y280998D02*
X367498D01*
Y275000D01*
X371497D01*
X367498Y277999D02*
X369497D01*
X377495Y279998D02*
X376495Y280998D01*
X374496D01*
X373496Y279998D01*
Y276000D01*
X374496Y275000D01*
X376495D01*
X377495Y276000D01*
X383493Y279998D02*
X382493Y280998D01*
X380494D01*
X379494Y279998D01*
Y278999D01*
X380494Y277999D01*
X382493D01*
X383493Y276999D01*
Y276000D01*
X382493Y275000D01*
X380494D01*
X379494Y276000D01*
X385492Y279998D02*
X386492Y280998D01*
X388491D01*
X389491Y279998D01*
Y278999D01*
X388491Y277999D01*
X387492D01*
X388491D01*
X389491Y276999D01*
Y276000D01*
X388491Y275000D01*
X386492D01*
X385492Y276000D01*
X391490Y280998D02*
X395489D01*
Y279998D01*
X391490Y276000D01*
Y275000D01*
X397488Y279998D02*
X398488Y280998D01*
X400487D01*
X401487Y279998D01*
Y278999D01*
X400487Y277999D01*
X399488D01*
X400487D01*
X401487Y276999D01*
Y276000D01*
X400487Y275000D01*
X398488D01*
X397488Y276000D01*
X409484Y280998D02*
Y275000D01*
X411484Y276999D01*
X413483Y275000D01*
Y280998D01*
X415483Y275000D02*
Y280998D01*
X419481Y275000D01*
Y280998D01*
X425479Y275000D02*
X421481D01*
X425479Y278999D01*
Y279998D01*
X424480Y280998D01*
X422480D01*
X421481Y279998D01*
X427479D02*
X428478Y280998D01*
X430478D01*
X431477Y279998D01*
Y278999D01*
X430478Y277999D01*
X429478D01*
X430478D01*
X431477Y276999D01*
Y276000D01*
X430478Y275000D01*
X428478D01*
X427479Y276000D01*
X322999Y477000D02*
X319000D01*
Y474334D01*
X322999Y470335D02*
Y473001D01*
X319000D01*
Y470335D01*
X320999Y473001D02*
Y471668D01*
X322999Y469003D02*
X319000D01*
Y467003D01*
X319666Y466337D01*
X322332D01*
X322999Y467003D01*
Y469003D01*
X158000Y485001D02*
X156001Y488000D01*
Y485001D02*
X158000Y488000D01*
X155001Y485001D02*
Y488000D01*
X153501D01*
X153002Y487500D01*
Y487000D01*
X153501Y486501D01*
X155001D01*
X153501D01*
X153002Y486001D01*
Y485501D01*
X153501Y485001D01*
X155001D01*
X150003D02*
X152002D01*
Y488000D01*
X150003D01*
X152002Y486501D02*
X151002D01*
X147004Y485001D02*
X149003D01*
Y488000D01*
X147004D01*
X149003Y486501D02*
X148003D01*
X169001Y485501D02*
X169501Y485001D01*
X170500D01*
X171000Y485501D01*
Y487500D01*
X170500Y488000D01*
X169501D01*
X169001Y487500D01*
X168001Y485001D02*
Y488000D01*
X166002D01*
X165002Y485001D02*
Y488000D01*
Y487000D01*
X163003Y485001D01*
X164502Y486501D01*
X163003Y488000D01*
X200000D02*
Y485001D01*
X199000Y486001D01*
X198001Y485001D01*
Y488000D01*
X197001Y485001D02*
X196001D01*
X196501D01*
Y488000D01*
X197001D01*
X196001D01*
X192502Y485501D02*
X193002Y485001D01*
X194002D01*
X194502Y485501D01*
Y486001D01*
X194002Y486501D01*
X193002D01*
X192502Y487000D01*
Y487500D01*
X193002Y488000D01*
X194002D01*
X194502Y487500D01*
X190003Y485001D02*
X191003D01*
X191503Y485501D01*
Y487500D01*
X191003Y488000D01*
X190003D01*
X189503Y487500D01*
Y485501D01*
X190003Y485001D01*
X186000Y488000D02*
Y485001D01*
X185000Y486001D01*
X184001Y485001D01*
Y488000D01*
X181501Y485001D02*
X182501D01*
X183001Y485501D01*
Y487500D01*
X182501Y488000D01*
X181501D01*
X181002Y487500D01*
Y485501D01*
X181501Y485001D01*
X178003Y485501D02*
X178502Y485001D01*
X179502D01*
X180002Y485501D01*
Y486001D01*
X179502Y486501D01*
X178502D01*
X178003Y487000D01*
Y487500D01*
X178502Y488000D01*
X179502D01*
X180002Y487500D01*
X177003Y485001D02*
X176003D01*
X176503D01*
Y488000D01*
X177003D01*
X176003D01*
X422000Y473501D02*
Y477000D01*
X420251D01*
X419667Y476417D01*
Y475834D01*
X420251Y475251D01*
X422000D01*
X420251D01*
X419667Y474667D01*
Y474084D01*
X420251Y473501D01*
X422000D01*
X418501Y477000D02*
Y474667D01*
X417335Y473501D01*
X416168Y474667D01*
Y477000D01*
Y475251D01*
X418501D01*
X415002Y473501D02*
X412670D01*
X413836D01*
Y477000D01*
X432667Y474084D02*
X433251Y473501D01*
X434417D01*
X435000Y474084D01*
Y476417D01*
X434417Y477000D01*
X433251D01*
X432667Y476417D01*
Y475251D01*
X433834D01*
X431501Y477000D02*
Y473501D01*
X429169Y477000D01*
Y473501D01*
X428002D02*
Y477000D01*
X426253D01*
X425670Y476417D01*
Y474084D01*
X426253Y473501D01*
X428002D01*
X177668Y462835D02*
X178501Y462002D01*
X180167D01*
X181000Y462835D01*
Y463668D01*
X180167Y464501D01*
X178501D01*
X177668Y465334D01*
Y466167D01*
X178501Y467000D01*
X180167D01*
X181000Y466167D01*
X176002Y467000D02*
Y462002D01*
X173502D01*
X172669Y462835D01*
Y464501D01*
X173502Y465334D01*
X176002D01*
X171003Y462002D02*
X169337D01*
X170170D01*
Y467000D01*
X171003D01*
X169337D01*
X166838Y462835D02*
X166005Y462002D01*
X164339D01*
X163506Y462835D01*
Y463668D01*
X164339Y464501D01*
X165172D01*
X164339D01*
X163506Y465334D01*
Y466167D01*
X164339Y467000D01*
X166005D01*
X166838Y466167D01*
X222001Y461501D02*
X222500Y461001D01*
X223500D01*
X224000Y461501D01*
Y462001D01*
X223500Y462500D01*
X222500D01*
X222001Y463000D01*
Y463500D01*
X222500Y464000D01*
X223500D01*
X224000Y463500D01*
X221001Y461001D02*
Y464000D01*
X220001Y463000D01*
X219002Y464000D01*
Y461001D01*
X218002D02*
Y464000D01*
X216502D01*
X216003Y463500D01*
Y461501D01*
X216502Y461001D01*
X218002D01*
X215003D02*
X214003D01*
X214503D01*
Y464000D01*
X215003D01*
X214003D01*
X211004Y461001D02*
X212004D01*
X212504Y461501D01*
Y463500D01*
X212004Y464000D01*
X211004D01*
X210504Y463500D01*
Y461501D01*
X211004Y461001D01*
X222001Y472001D02*
X222500Y471501D01*
X223500D01*
X224000Y472001D01*
Y472501D01*
X223500Y473000D01*
X222500D01*
X222001Y473500D01*
Y474000D01*
X222500Y474500D01*
X223500D01*
X224000Y474000D01*
X221001Y471501D02*
Y474500D01*
X220001Y473500D01*
X219002Y474500D01*
Y471501D01*
X216003Y472001D02*
X216502Y471501D01*
X217502D01*
X218002Y472001D01*
Y474000D01*
X217502Y474500D01*
X216502D01*
X216003Y474000D01*
X215003Y471501D02*
Y474500D01*
X213004D01*
X212004Y471501D02*
Y474500D01*
Y473500D01*
X210004Y471501D01*
X211504Y473000D01*
X210004Y474500D01*
X261500Y464500D02*
Y461501D01*
X259501Y464500D01*
Y461501D01*
X258501Y464500D02*
Y461501D01*
X257001D01*
X256502Y462001D01*
Y463000D01*
X257001Y463500D01*
X258501D01*
X257501D02*
X256502Y464500D01*
X253503Y462001D02*
X254002Y461501D01*
X255002D01*
X255502Y462001D01*
Y462501D01*
X255002Y463000D01*
X254002D01*
X253503Y463500D01*
Y464000D01*
X254002Y464500D01*
X255002D01*
X255502Y464000D01*
X252503Y461501D02*
X250504D01*
X251503D01*
Y464500D01*
X257001Y472001D02*
X257501Y471501D01*
X258500D01*
X259000Y472001D01*
Y474000D01*
X258500Y474500D01*
X257501D01*
X257001Y474000D01*
Y473000D01*
X258000D01*
X256001Y474500D02*
Y471501D01*
X254002Y474500D01*
Y471501D01*
X253002D02*
Y474500D01*
X251502D01*
X251003Y474000D01*
Y472001D01*
X251502Y471501D01*
X253002D01*
X259000Y482001D02*
X258500Y481501D01*
X257501D01*
X257001Y482001D01*
Y482501D01*
X257501Y483001D01*
X258000D01*
X257501D01*
X257001Y483500D01*
Y484000D01*
X257501Y484500D01*
X258500D01*
X259000Y484000D01*
X256001Y481501D02*
Y483500D01*
X255001Y484500D01*
X254002Y483500D01*
Y481501D01*
X253002Y482001D02*
X252502Y481501D01*
X251502D01*
X251003Y482001D01*
Y482501D01*
X251502Y483001D01*
X252002D01*
X251502D01*
X251003Y483500D01*
Y484000D01*
X251502Y484500D01*
X252502D01*
X253002Y484000D01*
X365499Y268498D02*
X361500D01*
Y262500D01*
X365499D01*
X361500Y265499D02*
X363499D01*
X367498Y262500D02*
X369497D01*
X368498D01*
Y268498D01*
X367498D01*
X372496D02*
Y262500D01*
Y265499D01*
X373496Y266499D01*
X375496D01*
X376495Y265499D01*
Y262500D01*
X379494Y266499D02*
X381493D01*
X382493Y265499D01*
Y262500D01*
X379494D01*
X378495Y263500D01*
X379494Y264499D01*
X382493D01*
X384493Y262500D02*
Y266499D01*
X385492D01*
X386492Y265499D01*
Y262500D01*
Y265499D01*
X387492Y266499D01*
X388491Y265499D01*
Y262500D01*
X396489Y268498D02*
X398488D01*
X397488D01*
Y262500D01*
X396489D01*
X398488D01*
X401487D02*
X404486D01*
X405486Y263500D01*
X404486Y264499D01*
X402487D01*
X401487Y265499D01*
X402487Y266499D01*
X405486D01*
X407485Y262500D02*
X409484D01*
X408485D01*
Y268498D01*
X407485D01*
X413483Y266499D02*
X415483D01*
X416482Y265499D01*
Y262500D01*
X413483D01*
X412484Y263500D01*
X413483Y264499D01*
X416482D01*
X418482Y262500D02*
Y266499D01*
X419481D01*
X420481Y265499D01*
Y262500D01*
Y265499D01*
X421481Y266499D01*
X422480Y265499D01*
Y262500D01*
X187668Y430001D02*
Y433999D01*
X189667D01*
X190333Y433333D01*
Y432000D01*
X189667Y431334D01*
X187668D01*
X189001D02*
X190333Y430001D01*
X194332D02*
X191666D01*
X194332Y432666D01*
Y433333D01*
X193666Y433999D01*
X192333D01*
X191666Y433333D01*
X187334Y416001D02*
Y419999D01*
X189333D01*
X190000Y419333D01*
Y418000D01*
X189333Y417334D01*
X187334D01*
X188667D02*
X190000Y416001D01*
X191333D02*
X192666D01*
X191999D01*
Y419999D01*
X191333Y419333D01*
X395332Y467001D02*
X393999D01*
X394666D01*
Y470999D01*
X395332D01*
X393999D01*
X389334Y467667D02*
X390000Y467001D01*
X391333D01*
X392000Y467667D01*
Y470333D01*
X391333Y470999D01*
X390000D01*
X389334Y470333D01*
X388001Y470999D02*
X386668D01*
X387334D01*
Y467001D01*
X388001Y467667D01*
X374334Y484333D02*
X373667Y484999D01*
X372334D01*
X371668Y484333D01*
Y481667D01*
X372334Y481001D01*
X373667D01*
X374334Y481667D01*
X378332Y484999D02*
X375666D01*
Y483000D01*
X376999Y483666D01*
X377666D01*
X378332Y483000D01*
Y481667D01*
X377666Y481001D01*
X376333D01*
X375666Y481667D01*
X109166Y461333D02*
X109749Y461916D01*
Y463082D01*
X109166Y463665D01*
X106834D01*
X106251Y463082D01*
Y461916D01*
X106834Y461333D01*
X108000D01*
Y462499D01*
X106251Y460166D02*
X109749D01*
X106251Y457834D01*
X109749D01*
Y456667D02*
X106251D01*
Y454918D01*
X106834Y454335D01*
X109166D01*
X109749Y454918D01*
Y456667D01*
X135667Y247166D02*
X135084Y247749D01*
X133918D01*
X133335Y247166D01*
Y244834D01*
X133918Y244251D01*
X135084D01*
X135667Y244834D01*
Y246000D01*
X134501D01*
X136834Y244251D02*
Y247749D01*
X139166Y244251D01*
Y247749D01*
X140333D02*
Y244251D01*
X142082D01*
X142665Y244834D01*
Y247166D01*
X142082Y247749D01*
X140333D01*
X438334Y247333D02*
X437668Y247999D01*
X436335D01*
X435668Y247333D01*
Y244667D01*
X436335Y244001D01*
X437668D01*
X438334Y244667D01*
Y246000D01*
X437001D01*
X439667Y244001D02*
Y247999D01*
X442333Y244001D01*
Y247999D01*
X443666D02*
Y244001D01*
X445665D01*
X446332Y244667D01*
Y247333D01*
X445665Y247999D01*
X443666D01*
X145668Y315001D02*
Y318999D01*
X147668D01*
X148334Y318333D01*
Y317000D01*
X147668Y316334D01*
X145668D01*
X147001D02*
X148334Y315001D01*
X152333D02*
X149667D01*
X152333Y317666D01*
Y318333D01*
X151666Y318999D01*
X150333D01*
X149667Y318333D01*
X155665Y315001D02*
Y318999D01*
X153666Y317000D01*
X156332D01*
X146335Y309001D02*
Y312999D01*
X148334D01*
X149001Y312333D01*
Y311000D01*
X148334Y310334D01*
X146335D01*
X147668D02*
X149001Y309001D01*
X152999D02*
X150333D01*
X152999Y311666D01*
Y312333D01*
X152333Y312999D01*
X151000D01*
X150333Y312333D01*
X154332Y309001D02*
X155665D01*
X154999D01*
Y312999D01*
X154332Y312333D01*
X114002Y368001D02*
Y371999D01*
X116001D01*
X116667Y371333D01*
Y370000D01*
X116001Y369334D01*
X114002D01*
X115334D02*
X116667Y368001D01*
X118000D02*
X119333D01*
X118667D01*
Y371999D01*
X118000Y371333D01*
X121333D02*
X121999Y371999D01*
X123332D01*
X123998Y371333D01*
Y370666D01*
X123332Y370000D01*
X123998Y369334D01*
Y368667D01*
X123332Y368001D01*
X121999D01*
X121333Y368667D01*
Y369334D01*
X121999Y370000D01*
X121333Y370666D01*
Y371333D01*
X121999Y370000D02*
X123332D01*
X107001Y343332D02*
X110999D01*
Y341333D01*
X110333Y340666D01*
X109000D01*
X108334Y341333D01*
Y343332D01*
Y341999D02*
X107001Y340666D01*
X110999Y336668D02*
X110333Y338001D01*
X109000Y339334D01*
X107667D01*
X107001Y338667D01*
Y337334D01*
X107667Y336668D01*
X108334D01*
X109000Y337334D01*
Y339334D01*
X113831Y349788D02*
X117829D01*
Y347789D01*
X117163Y347123D01*
X115830D01*
X115164Y347789D01*
Y349788D01*
Y348456D02*
X113831Y347123D01*
X117829Y343124D02*
Y345790D01*
X115830D01*
X116497Y344457D01*
Y343790D01*
X115830Y343124D01*
X114497D01*
X113831Y343790D01*
Y345123D01*
X114497Y345790D01*
X121002Y354001D02*
Y357999D01*
X123001D01*
X123667Y357333D01*
Y356000D01*
X123001Y355334D01*
X121002D01*
X122335D02*
X123667Y354001D01*
X125000D02*
X126333D01*
X125667D01*
Y357999D01*
X125000Y357333D01*
X130332Y354001D02*
Y357999D01*
X128333Y356000D01*
X130998D01*
X198002Y265001D02*
Y268999D01*
X200001D01*
X200667Y268333D01*
Y267000D01*
X200001Y266334D01*
X198002D01*
X199335D02*
X200667Y265001D01*
X202000D02*
X203333D01*
X202667D01*
Y268999D01*
X202000Y268333D01*
X207998Y265001D02*
X205333D01*
X207998Y267666D01*
Y268333D01*
X207332Y268999D01*
X205999D01*
X205333Y268333D01*
X199668Y259001D02*
Y262999D01*
X201667D01*
X202333Y262333D01*
Y261000D01*
X201667Y260334D01*
X199668D01*
X201001D02*
X202333Y259001D01*
X203666Y259667D02*
X204333Y259001D01*
X205666D01*
X206332Y259667D01*
Y262333D01*
X205666Y262999D01*
X204333D01*
X203666Y262333D01*
Y261666D01*
X204333Y261000D01*
X206332D01*
X335999Y420109D02*
X332001D01*
Y422109D01*
X332667Y422775D01*
X334000D01*
X334666Y422109D01*
Y420109D01*
Y421442D02*
X335999Y422775D01*
Y426774D02*
Y424108D01*
X333333Y426774D01*
X332667D01*
X332001Y426107D01*
Y424774D01*
X332667Y424108D01*
X332001Y428107D02*
Y430772D01*
X332667D01*
X335333Y428107D01*
X335999D01*
X181968Y322752D02*
X178032D01*
Y324720D01*
X178688Y325376D01*
X180000D01*
X180656Y324720D01*
Y322752D01*
Y324064D02*
X181968Y325376D01*
Y329312D02*
Y326688D01*
X179344Y329312D01*
X178688D01*
X178032Y328656D01*
Y327344D01*
X178688Y326688D01*
X181968Y333248D02*
Y330624D01*
X179344Y333248D01*
X178688D01*
X178032Y332592D01*
Y331280D01*
X178688Y330624D01*
X190752Y338032D02*
Y341968D01*
X192720D01*
X193376Y341312D01*
Y340000D01*
X192720Y339344D01*
X190752D01*
X192064D02*
X193376Y338032D01*
X197312D02*
X194688D01*
X197312Y340656D01*
Y341312D01*
X196656Y341968D01*
X195344D01*
X194688Y341312D01*
X198624D02*
X199280Y341968D01*
X200592D01*
X201248Y341312D01*
Y340656D01*
X200592Y340000D01*
X199936D01*
X200592D01*
X201248Y339344D01*
Y338688D01*
X200592Y338032D01*
X199280D01*
X198624Y338688D01*
X206001Y309332D02*
X209999D01*
Y307332D01*
X209333Y306666D01*
X208000D01*
X207333Y307332D01*
Y309332D01*
Y307999D02*
X206001Y306666D01*
Y302667D02*
Y305333D01*
X208666Y302667D01*
X209333D01*
X209999Y303333D01*
Y304666D01*
X209333Y305333D01*
Y301334D02*
X209999Y300668D01*
Y299335D01*
X209333Y298668D01*
X206667D01*
X206001Y299335D01*
Y300668D01*
X206667Y301334D01*
X209333D01*
X130999Y371002D02*
X127001D01*
Y373001D01*
X127667Y373667D01*
X129000D01*
X129666Y373001D01*
Y371002D01*
Y372335D02*
X130999Y373667D01*
Y375000D02*
Y376333D01*
Y375667D01*
X127001D01*
X127667Y375000D01*
X127001Y380998D02*
Y378333D01*
X129000D01*
X128333Y379665D01*
Y380332D01*
X129000Y380998D01*
X130333D01*
X130999Y380332D01*
Y378999D01*
X130333Y378333D01*
X156001Y392998D02*
X159999D01*
Y390999D01*
X159333Y390333D01*
X158000D01*
X157334Y390999D01*
Y392998D01*
Y391666D02*
X156001Y390333D01*
Y389000D02*
Y387667D01*
Y388333D01*
X159999D01*
X159333Y389000D01*
X159999Y385667D02*
Y383002D01*
X159333D01*
X156667Y385667D01*
X156001D01*
Y357998D02*
X159999D01*
Y355999D01*
X159333Y355333D01*
X158000D01*
X157334Y355999D01*
Y357998D01*
Y356665D02*
X156001Y355333D01*
Y354000D02*
Y352667D01*
Y353333D01*
X159999D01*
X159333Y354000D01*
Y350667D02*
X159999Y350001D01*
Y348668D01*
X159333Y348002D01*
X158667D01*
X158000Y348668D01*
Y349335D01*
Y348668D01*
X157334Y348002D01*
X156667D01*
X156001Y348668D01*
Y350001D01*
X156667Y350667D01*
X229544Y272350D02*
X225545D01*
Y274349D01*
X226212Y275016D01*
X227545D01*
X228211Y274349D01*
Y272350D01*
Y273683D02*
X229544Y275016D01*
Y276348D02*
Y277681D01*
Y277015D01*
X225545D01*
X226212Y276348D01*
Y279681D02*
X225545Y280347D01*
Y281680D01*
X226212Y282347D01*
X228877D01*
X229544Y281680D01*
Y280347D01*
X228877Y279681D01*
X226212D01*
X237999Y289341D02*
X234001D01*
Y291341D01*
X234667Y292007D01*
X236000D01*
X236666Y291341D01*
Y289341D01*
Y290674D02*
X237999Y292007D01*
Y293340D02*
Y294673D01*
Y294006D01*
X234001D01*
X234667Y293340D01*
X237999Y296672D02*
Y298005D01*
Y297339D01*
X234001D01*
X234667Y296672D01*
X257001Y257332D02*
X260999D01*
Y255333D01*
X260333Y254666D01*
X259000D01*
X258334Y255333D01*
Y257332D01*
Y255999D02*
X257001Y254666D01*
X260333Y253333D02*
X260999Y252667D01*
Y251334D01*
X260333Y250668D01*
X259666D01*
X259000Y251334D01*
X258334Y250668D01*
X257667D01*
X257001Y251334D01*
Y252667D01*
X257667Y253333D01*
X258334D01*
X259000Y252667D01*
X259666Y253333D01*
X260333D01*
X259000Y252667D02*
Y251334D01*
X117999Y386668D02*
X114001D01*
Y388667D01*
X114667Y389334D01*
X116000D01*
X116666Y388667D01*
Y386668D01*
Y388001D02*
X117999Y389334D01*
X114001Y390667D02*
Y393332D01*
X114667D01*
X117333Y390667D01*
X117999D01*
X355566Y457399D02*
X354233D01*
X354899D01*
Y454066D01*
X354233Y453400D01*
X353566D01*
X352900Y454066D01*
X356899Y453400D02*
X358232D01*
X357565D01*
Y457399D01*
X356899Y456732D01*
X276999Y488667D02*
X277666Y488001D01*
X278999D01*
X279665Y488667D01*
Y489334D01*
X278999Y490000D01*
X277666D01*
X276999Y490666D01*
Y491333D01*
X277666Y491999D01*
X278999D01*
X279665Y491333D01*
X275666Y488001D02*
Y491999D01*
X274334Y490666D01*
X273001Y491999D01*
Y488001D01*
X271668Y491999D02*
X270335D01*
X271001D01*
Y488001D01*
X271668Y488667D01*
X317332Y461999D02*
Y458001D01*
X315332D01*
X314666Y458667D01*
Y460000D01*
X315332Y460666D01*
X317332D01*
X315999D02*
X314666Y461999D01*
X310667D02*
X313333D01*
X310667Y459334D01*
Y458667D01*
X311333Y458001D01*
X312666D01*
X313333Y458667D01*
X309334D02*
X308668Y458001D01*
X307335D01*
X306668Y458667D01*
Y459334D01*
X307335Y460000D01*
X306668Y460666D01*
Y461333D01*
X307335Y461999D01*
X308668D01*
X309334Y461333D01*
Y460666D01*
X308668Y460000D01*
X309334Y459334D01*
Y458667D01*
X308668Y460000D02*
X307335D01*
X308333Y491333D02*
X308999Y491999D01*
Y493332D01*
X308333Y493998D01*
X305667D01*
X305001Y493332D01*
Y491999D01*
X305667Y491333D01*
X305001Y490000D02*
Y488667D01*
Y489333D01*
X308999D01*
X308333Y490000D01*
X308999Y484002D02*
X308333Y485334D01*
X307000Y486667D01*
X305667D01*
X305001Y486001D01*
Y484668D01*
X305667Y484002D01*
X306334D01*
X307000Y484668D01*
Y486667D01*
X358333Y484834D02*
X358916Y484251D01*
X360082D01*
X360665Y484834D01*
Y487166D01*
X360082Y487749D01*
X358916D01*
X358333Y487166D01*
Y486000D01*
X359499D01*
X357166Y487749D02*
Y484251D01*
X354834Y487749D01*
Y484251D01*
X353667D02*
Y487749D01*
X351918D01*
X351335Y487166D01*
Y484834D01*
X351918Y484251D01*
X353667D01*
X345665Y484834D02*
X345082Y484251D01*
X343916D01*
X343333Y484834D01*
Y485417D01*
X343916Y486000D01*
X344499D01*
X343916D01*
X343333Y486583D01*
Y487166D01*
X343916Y487749D01*
X345082D01*
X345665Y487166D01*
X342166Y484251D02*
Y486583D01*
X341000Y487749D01*
X339834Y486583D01*
Y484251D01*
X338667Y484834D02*
X338084Y484251D01*
X336918D01*
X336335Y484834D01*
Y485417D01*
X336918Y486000D01*
X337501D01*
X336918D01*
X336335Y486583D01*
Y487166D01*
X336918Y487749D01*
X338084D01*
X338667Y487166D01*
X286002Y438999D02*
X287334D01*
X286668D01*
Y435001D01*
X286002D01*
X287334D01*
X292000Y438333D02*
X291333Y438999D01*
X290000D01*
X289334Y438333D01*
Y435667D01*
X290000Y435001D01*
X291333D01*
X292000Y435667D01*
X293333Y438333D02*
X293999Y438999D01*
X295332D01*
X295998Y438333D01*
Y437666D01*
X295332Y437000D01*
X294666D01*
X295332D01*
X295998Y436334D01*
Y435667D01*
X295332Y435001D01*
X293999D01*
X293333Y435667D01*
X162001Y396334D02*
X162667D01*
X164000Y397667D01*
X162667Y399000D01*
X162001D01*
X164000Y397667D02*
X165999D01*
Y400333D02*
Y401666D01*
Y400999D01*
X162001D01*
X162667Y400333D01*
X211002Y317999D02*
X212335D01*
X211669D01*
Y314001D01*
X211002D01*
X212335D01*
X214335D02*
Y317999D01*
X215667Y316666D01*
X217000Y317999D01*
Y314001D01*
X218333Y317999D02*
Y314667D01*
X219000Y314001D01*
X220333D01*
X220999Y314667D01*
Y317999D01*
X224998Y314001D02*
X222332D01*
X224998Y316666D01*
Y317333D01*
X224331Y317999D01*
X222998D01*
X222332Y317333D01*
X159669Y365999D02*
X161002D01*
X160335D01*
Y362001D01*
X159669D01*
X161002D01*
X163001D02*
Y365999D01*
X164334Y364666D01*
X165667Y365999D01*
Y362001D01*
X167000Y365999D02*
Y362667D01*
X167666Y362001D01*
X168999D01*
X169666Y362667D01*
Y365999D01*
X170998Y362001D02*
X172331D01*
X171665D01*
Y365999D01*
X170998Y365333D01*
X260002Y267999D02*
X261335D01*
X260669D01*
Y264001D01*
X260002D01*
X261335D01*
X263334D02*
Y267999D01*
X264667Y266666D01*
X266000Y267999D01*
Y264001D01*
X267333Y267999D02*
Y264667D01*
X268000Y264001D01*
X269333D01*
X269999Y264667D01*
Y267999D01*
X271332Y267333D02*
X271998Y267999D01*
X273331D01*
X273998Y267333D01*
Y266666D01*
X273331Y266000D01*
X272665D01*
X273331D01*
X273998Y265334D01*
Y264667D01*
X273331Y264001D01*
X271998D01*
X271332Y264667D01*
X319001Y491332D02*
X322999D01*
Y489332D01*
X322333Y488666D01*
X321000D01*
X320334Y489332D01*
Y491332D01*
Y489999D02*
X319001Y488666D01*
X322333Y487333D02*
X322999Y486666D01*
Y485334D01*
X322333Y484667D01*
X321666D01*
X321000Y485334D01*
Y486000D01*
Y485334D01*
X320334Y484667D01*
X319667D01*
X319001Y485334D01*
Y486666D01*
X319667Y487333D01*
X322333Y483334D02*
X322999Y482668D01*
Y481335D01*
X322333Y480668D01*
X319667D01*
X319001Y481335D01*
Y482668D01*
X319667Y483334D01*
X322333D01*
X280500Y400001D02*
X277501D01*
Y401501D01*
X278000Y402001D01*
X279000D01*
X279500Y401501D01*
Y400001D01*
Y401001D02*
X280500Y402001D01*
Y405000D02*
Y403000D01*
X278500Y405000D01*
X278000D01*
X277501Y404500D01*
Y403500D01*
X278000Y403000D01*
X280000Y405999D02*
X280500Y406499D01*
Y407499D01*
X280000Y407999D01*
X278000D01*
X277501Y407499D01*
Y406499D01*
X278000Y405999D01*
X278500D01*
X279000Y406499D01*
Y407999D01*
X198032Y333248D02*
X201968D01*
Y331280D01*
X201312Y330624D01*
X200000D01*
X199344Y331280D01*
Y333248D01*
Y331936D02*
X198032Y330624D01*
Y326688D02*
Y329312D01*
X200656Y326688D01*
X201312D01*
X201968Y327344D01*
Y328656D01*
X201312Y329312D01*
X201968Y322752D02*
X201312Y324064D01*
X200000Y325376D01*
X198688D01*
X198032Y324720D01*
Y323408D01*
X198688Y322752D01*
X199344D01*
X200000Y323408D01*
Y325376D01*
X335999Y406668D02*
X332001D01*
Y408668D01*
X332667Y409334D01*
X334000D01*
X334666Y408668D01*
Y406668D01*
Y408001D02*
X335999Y409334D01*
Y413333D02*
Y410667D01*
X333334Y413333D01*
X332667D01*
X332001Y412666D01*
Y411334D01*
X332667Y410667D01*
X332001Y417332D02*
Y414666D01*
X334000D01*
X333334Y415999D01*
Y416665D01*
X334000Y417332D01*
X335333D01*
X335999Y416665D01*
Y415332D01*
X335333Y414666D01*
X151001Y380998D02*
X154999D01*
Y378999D01*
X154333Y378333D01*
X153000D01*
X152333Y378999D01*
Y380998D01*
Y379665D02*
X151001Y378333D01*
Y377000D02*
Y375667D01*
Y376333D01*
X154999D01*
X154333Y377000D01*
X151667Y373667D02*
X151001Y373001D01*
Y371668D01*
X151667Y371002D01*
X154333D01*
X154999Y371668D01*
Y373001D01*
X154333Y373667D01*
X153666D01*
X153000Y373001D01*
Y371002D01*
X247001Y283998D02*
X250999D01*
Y281999D01*
X250333Y281333D01*
X249000D01*
X248334Y281999D01*
Y283998D01*
Y282665D02*
X247001Y281333D01*
Y280000D02*
Y278667D01*
Y279333D01*
X250999D01*
X250333Y280000D01*
X250999Y274002D02*
X250333Y275335D01*
X249000Y276667D01*
X247667D01*
X247001Y276001D01*
Y274668D01*
X247667Y274002D01*
X248334D01*
X249000Y274668D01*
Y276667D01*
X407999Y338668D02*
X404001D01*
Y340667D01*
X404667Y341334D01*
X406000D01*
X406666Y340667D01*
Y338668D01*
Y340001D02*
X407999Y341334D01*
Y344666D02*
X404001D01*
X406000Y342667D01*
Y345332D01*
X399332Y455999D02*
Y452001D01*
X397333D01*
X396666Y452667D01*
Y454000D01*
X397333Y454666D01*
X399332D01*
X397999D02*
X396666Y455999D01*
X395334Y452667D02*
X394667Y452001D01*
X393334D01*
X392668Y452667D01*
Y453334D01*
X393334Y454000D01*
X394001D01*
X393334D01*
X392668Y454666D01*
Y455333D01*
X393334Y455999D01*
X394667D01*
X395334Y455333D01*
X441666Y488999D02*
Y485001D01*
X439666D01*
X439000Y485667D01*
Y487000D01*
X439666Y487666D01*
X441666D01*
X437667Y488999D02*
X436334D01*
X437001D01*
Y485001D01*
X437667Y485667D01*
X142335Y409001D02*
Y412999D01*
X143668Y411666D01*
X145001Y412999D01*
Y409001D01*
X146334D02*
Y411666D01*
X147667Y412999D01*
X149000Y411666D01*
Y409001D01*
Y411000D01*
X146334D01*
X152999Y412333D02*
X152332Y412999D01*
X150999D01*
X150333Y412333D01*
Y409667D01*
X150999Y409001D01*
X152332D01*
X152999Y409667D01*
Y411000D01*
X151666D01*
X154332Y409001D02*
X155665D01*
X154998D01*
Y412999D01*
X154332Y412333D01*
X242002Y414826D02*
X243335D01*
X242668D01*
Y410827D01*
X242002D01*
X243335D01*
X248000Y414160D02*
X247333Y414826D01*
X246000D01*
X245334Y414160D01*
Y411494D01*
X246000Y410827D01*
X247333D01*
X248000Y411494D01*
X251998Y410827D02*
X249333D01*
X251998Y413493D01*
Y414160D01*
X251332Y414826D01*
X249999D01*
X249333Y414160D01*
X212334Y422333D02*
X211667Y422999D01*
X210334D01*
X209668Y422333D01*
Y419667D01*
X210334Y419001D01*
X211667D01*
X212334Y419667D01*
X213667Y422333D02*
X214333Y422999D01*
X215666D01*
X216332Y422333D01*
Y421666D01*
X215666Y421000D01*
X214999D01*
X215666D01*
X216332Y420334D01*
Y419667D01*
X215666Y419001D01*
X214333D01*
X213667Y419667D01*
X277667Y397333D02*
X277001Y397999D01*
X275668D01*
X275002Y397333D01*
Y394667D01*
X275668Y394001D01*
X277001D01*
X277667Y394667D01*
X279000Y394001D02*
X280333D01*
X279667D01*
Y397999D01*
X279000Y397333D01*
X284332Y394001D02*
Y397999D01*
X282333Y396000D01*
X284998D01*
X196667Y295333D02*
X196001Y295999D01*
X194668D01*
X194002Y295333D01*
Y292667D01*
X194668Y292001D01*
X196001D01*
X196667Y292667D01*
X198000Y292001D02*
X199333D01*
X198667D01*
Y295999D01*
X198000Y295333D01*
X203998Y295999D02*
X201333D01*
Y294000D01*
X202665Y294666D01*
X203332D01*
X203998Y294000D01*
Y292667D01*
X203332Y292001D01*
X201999D01*
X201333Y292667D01*
X146667Y344333D02*
X146001Y344999D01*
X144668D01*
X144002Y344333D01*
Y341667D01*
X144668Y341001D01*
X146001D01*
X146667Y341667D01*
X148000Y341001D02*
X149333D01*
X148667D01*
Y344999D01*
X148000Y344333D01*
X151333D02*
X151999Y344999D01*
X153332D01*
X153998Y344333D01*
Y343666D01*
X153332Y343000D01*
X152665D01*
X153332D01*
X153998Y342334D01*
Y341667D01*
X153332Y341001D01*
X151999D01*
X151333Y341667D01*
X248667Y247333D02*
X248001Y247999D01*
X246668D01*
X246002Y247333D01*
Y244667D01*
X246668Y244001D01*
X248001D01*
X248667Y244667D01*
X250000Y244001D02*
X251333D01*
X250667D01*
Y247999D01*
X250000Y247333D01*
X255998Y244001D02*
X253333D01*
X255998Y246666D01*
Y247333D01*
X255332Y247999D01*
X253999D01*
X253333Y247333D01*
X140667Y390334D02*
X140001Y389667D01*
Y388334D01*
X140667Y387668D01*
X143333D01*
X143999Y388334D01*
Y389667D01*
X143333Y390334D01*
X143999Y391667D02*
Y393000D01*
Y392333D01*
X140001D01*
X140667Y391667D01*
X143999Y394999D02*
Y396332D01*
Y395666D01*
X140001D01*
X140667Y394999D01*
X249704Y363312D02*
X249048Y363968D01*
X247736D01*
X247080Y363312D01*
Y360688D01*
X247736Y360032D01*
X249048D01*
X249704Y360688D01*
X251016Y360032D02*
X252328D01*
X251672D01*
Y363968D01*
X251016Y363312D01*
X254296D02*
X254952Y363968D01*
X256264D01*
X256920Y363312D01*
Y360688D01*
X256264Y360032D01*
X254952D01*
X254296Y360688D01*
Y363312D01*
X428266Y466532D02*
X427599Y467199D01*
X426266D01*
X425600Y466532D01*
Y463866D01*
X426266Y463200D01*
X427599D01*
X428266Y463866D01*
X429599D02*
X430265Y463200D01*
X431598D01*
X432265Y463866D01*
Y466532D01*
X431598Y467199D01*
X430265D01*
X429599Y466532D01*
Y465866D01*
X430265Y465199D01*
X432265D01*
X193667Y381680D02*
X193001Y381013D01*
Y379681D01*
X193667Y379014D01*
X196333D01*
X196999Y379681D01*
Y381013D01*
X196333Y381680D01*
X193667Y383013D02*
X193001Y383679D01*
Y385012D01*
X193667Y385679D01*
X194334D01*
X195000Y385012D01*
X195667Y385679D01*
X196333D01*
X196999Y385012D01*
Y383679D01*
X196333Y383013D01*
X195667D01*
X195000Y383679D01*
X194334Y383013D01*
X193667D01*
X195000Y383679D02*
Y385012D01*
X262667Y399334D02*
X262001Y398667D01*
Y397334D01*
X262667Y396668D01*
X265333D01*
X265999Y397334D01*
Y398667D01*
X265333Y399334D01*
X262001Y400667D02*
Y403332D01*
X262667D01*
X265333Y400667D01*
X265999D01*
X193667Y404334D02*
X193001Y403667D01*
Y402334D01*
X193667Y401668D01*
X196333D01*
X196999Y402334D01*
Y403667D01*
X196333Y404334D01*
X193001Y408332D02*
X193667Y406999D01*
X195000Y405666D01*
X196333D01*
X196999Y406333D01*
Y407666D01*
X196333Y408332D01*
X195667D01*
X195000Y407666D01*
Y405666D01*
X405667Y471000D02*
X405001Y470334D01*
Y469001D01*
X405667Y468334D01*
X408333D01*
X408999Y469001D01*
Y470334D01*
X408333Y471000D01*
X408999Y472333D02*
Y473666D01*
Y472999D01*
X405001D01*
X405667Y472333D01*
X166667Y411334D02*
X166001Y410667D01*
Y409334D01*
X166667Y408668D01*
X169333D01*
X169999Y409334D01*
Y410667D01*
X169333Y411334D01*
X169999Y414666D02*
X166001D01*
X168000Y412667D01*
Y415332D01*
X166667Y379334D02*
X166001Y378667D01*
Y377334D01*
X166667Y376668D01*
X169333D01*
X169999Y377334D01*
Y378667D01*
X169333Y379334D01*
X169999Y383332D02*
Y380666D01*
X167333Y383332D01*
X166667D01*
X166001Y382666D01*
Y381333D01*
X166667Y380666D01*
D15*
X326425Y478004D02*
X329575D01*
D16*
X230334Y491001D02*
X231667Y491668D01*
X233000Y493001D01*
Y494334D01*
X232334Y495000D01*
X231001D01*
X230334Y494334D01*
Y493667D01*
X231001Y493001D01*
X233000D01*
X240334Y491001D02*
X243000D01*
Y493001D01*
X241667Y492334D01*
X241001D01*
X240334Y493001D01*
Y494334D01*
X241001Y495000D01*
X242334D01*
X243000Y494334D01*
X230334Y455000D02*
X233000D01*
X230334Y452334D01*
Y451668D01*
X231001Y451001D01*
X232334D01*
X233000Y451668D01*
X243000Y455000D02*
X241667D01*
X242334D01*
Y451001D01*
X243000Y451668D01*
M02*
