G04*
G04 #@! TF.GenerationSoftware,Altium Limited,Altium Designer,22.10.1 (41)*
G04*
G04 Layer_Color=8388736*
%FSLAX25Y25*%
%MOIN*%
G70*
G04*
G04 #@! TF.SameCoordinates,49C2D000-8325-4097-923D-366AA4D3C581*
G04*
G04*
G04 #@! TF.FilePolarity,Negative*
G04*
G01*
G75*
%ADD17R,0.07611X0.03084*%
%ADD18R,0.06706X0.03792*%
%ADD19R,0.12729X0.08410*%
%ADD20R,0.03162X0.02965*%
%ADD21R,0.05721X0.05131*%
%ADD22R,0.02965X0.03162*%
%ADD23R,0.04147X0.03753*%
%ADD24R,0.02264X0.01378*%
%ADD25R,0.01378X0.02264*%
%ADD26R,0.05131X0.05721*%
%ADD27R,0.07493X0.04737*%
%ADD28R,0.03753X0.04147*%
%ADD29R,0.03950X0.03162*%
%ADD30R,0.14383X0.17926*%
%ADD31R,0.04540X0.02572*%
%ADD32R,0.06607X0.01981*%
%ADD33R,0.01981X0.06607*%
%ADD34R,0.07887X0.07887*%
%ADD35R,0.01981X0.03950*%
%ADD36R,0.03950X0.01981*%
%ADD37R,0.05918X0.06509*%
%ADD38R,0.05918X0.05131*%
%ADD39R,0.04343X0.04147*%
%ADD40R,0.03197X0.02985*%
%ADD41C,0.24422*%
%ADD42C,0.06706*%
%ADD43R,0.07296X0.07296*%
%ADD44C,0.07296*%
%ADD45R,0.06706X0.06706*%
%ADD46R,0.06434X0.06434*%
%ADD47C,0.06434*%
%ADD48C,0.05800*%
D17*
X396000Y476189D02*
D03*
Y488000D02*
D03*
D18*
X396453Y482094D02*
D03*
D19*
X387535D02*
D03*
D20*
X182653Y422000D02*
D03*
X186000D02*
D03*
X186327Y427000D02*
D03*
X189673D02*
D03*
X153000Y385000D02*
D03*
X149654D02*
D03*
X122000Y365000D02*
D03*
X125347D02*
D03*
X122327Y361000D02*
D03*
X125673D02*
D03*
X209653Y266000D02*
D03*
X213000D02*
D03*
X209653Y262000D02*
D03*
X213000D02*
D03*
X159027Y316500D02*
D03*
X162373D02*
D03*
X159000Y312000D02*
D03*
X162346D02*
D03*
D21*
X380346Y489000D02*
D03*
X373654D02*
D03*
X134347Y392000D02*
D03*
X127654D02*
D03*
X295346Y403000D02*
D03*
X288654D02*
D03*
X189654Y303000D02*
D03*
X196346D02*
D03*
X429000Y456000D02*
D03*
X435693D02*
D03*
X215327Y414988D02*
D03*
X222020D02*
D03*
X242000Y362000D02*
D03*
X235307D02*
D03*
X239654Y253000D02*
D03*
X246347D02*
D03*
X139654Y353000D02*
D03*
X146347D02*
D03*
D22*
X185000Y325327D02*
D03*
Y328673D02*
D03*
X236000Y286673D02*
D03*
Y283327D02*
D03*
X134000Y374000D02*
D03*
Y377346D02*
D03*
X254000Y251654D02*
D03*
Y255000D02*
D03*
X233000Y277673D02*
D03*
Y274327D02*
D03*
X153000Y354673D02*
D03*
Y351327D02*
D03*
X121000Y391673D02*
D03*
Y388327D02*
D03*
X203000Y305673D02*
D03*
Y302327D02*
D03*
X188000Y333327D02*
D03*
Y336673D02*
D03*
D23*
X109000Y354000D02*
D03*
Y359118D02*
D03*
X115787Y354063D02*
D03*
Y359181D02*
D03*
X412000Y339000D02*
D03*
Y344118D02*
D03*
X328000Y480882D02*
D03*
Y486000D02*
D03*
X327000Y426559D02*
D03*
Y421441D02*
D03*
X194000Y323441D02*
D03*
Y328559D02*
D03*
X279000Y416559D02*
D03*
Y411441D02*
D03*
X243000Y273882D02*
D03*
Y279000D02*
D03*
X327000Y409441D02*
D03*
Y414559D02*
D03*
X147000Y378118D02*
D03*
Y373000D02*
D03*
D24*
X236603Y267307D02*
D03*
Y265338D02*
D03*
Y263370D02*
D03*
Y261401D02*
D03*
X245757D02*
D03*
Y263370D02*
D03*
Y265338D02*
D03*
Y267307D02*
D03*
X145577Y366953D02*
D03*
Y364984D02*
D03*
Y363016D02*
D03*
Y361047D02*
D03*
X136423D02*
D03*
Y363016D02*
D03*
Y364984D02*
D03*
Y366953D02*
D03*
X195577Y316953D02*
D03*
Y314984D02*
D03*
Y313016D02*
D03*
Y311047D02*
D03*
X186423D02*
D03*
Y313016D02*
D03*
Y314984D02*
D03*
Y316953D02*
D03*
D25*
X239212Y260761D02*
D03*
X241180D02*
D03*
X243148D02*
D03*
Y267946D02*
D03*
X241180D02*
D03*
X239212D02*
D03*
X139032Y367593D02*
D03*
X141000D02*
D03*
X142969D02*
D03*
Y360408D02*
D03*
X141000D02*
D03*
X139032D02*
D03*
X189032Y317593D02*
D03*
X191000D02*
D03*
X192969D02*
D03*
Y310408D02*
D03*
X191000D02*
D03*
X189032D02*
D03*
D26*
X257000Y396654D02*
D03*
Y403346D02*
D03*
X202000Y385346D02*
D03*
Y378654D02*
D03*
X405000Y476654D02*
D03*
Y483347D02*
D03*
X202000Y406347D02*
D03*
Y399654D02*
D03*
D27*
X274598Y469520D02*
D03*
X299402D02*
D03*
X274598Y484480D02*
D03*
X299402D02*
D03*
D28*
X408559Y453000D02*
D03*
X403441D02*
D03*
D29*
X328000Y474854D02*
D03*
Y469146D02*
D03*
D30*
X302000Y419827D02*
D03*
D31*
X286646Y412327D02*
D03*
Y417327D02*
D03*
Y422327D02*
D03*
Y427327D02*
D03*
X317354D02*
D03*
Y422327D02*
D03*
Y417327D02*
D03*
Y412327D02*
D03*
D32*
X212815Y398654D02*
D03*
Y396685D02*
D03*
Y394717D02*
D03*
Y392748D02*
D03*
Y390780D02*
D03*
Y388811D02*
D03*
Y386843D02*
D03*
Y384874D02*
D03*
Y382906D02*
D03*
Y380937D02*
D03*
Y378969D02*
D03*
Y377000D02*
D03*
X246185D02*
D03*
Y378969D02*
D03*
Y380937D02*
D03*
Y382906D02*
D03*
Y384874D02*
D03*
Y386843D02*
D03*
Y388811D02*
D03*
Y390780D02*
D03*
Y392748D02*
D03*
Y394717D02*
D03*
Y396685D02*
D03*
Y398654D02*
D03*
D33*
X218673Y371142D02*
D03*
X220642D02*
D03*
X222610D02*
D03*
X224579D02*
D03*
X226547D02*
D03*
X228516D02*
D03*
X230484D02*
D03*
X232453D02*
D03*
X234421D02*
D03*
X236390D02*
D03*
X238358D02*
D03*
X240327D02*
D03*
Y404512D02*
D03*
X238358D02*
D03*
X236390D02*
D03*
X234421D02*
D03*
X232453D02*
D03*
X230484D02*
D03*
X228516D02*
D03*
X226547D02*
D03*
X224579D02*
D03*
X222610D02*
D03*
X220642D02*
D03*
X218673D02*
D03*
D34*
X127047Y404906D02*
D03*
D35*
X130000Y399000D02*
D03*
X128031D02*
D03*
X126063D02*
D03*
X124094D02*
D03*
Y410811D02*
D03*
X126063D02*
D03*
X128031D02*
D03*
X130000D02*
D03*
D36*
X121142Y401953D02*
D03*
Y403921D02*
D03*
Y405890D02*
D03*
Y407858D02*
D03*
X132953D02*
D03*
Y405890D02*
D03*
Y403921D02*
D03*
Y401953D02*
D03*
D37*
X181150Y409000D02*
D03*
X174850D02*
D03*
X181150Y381000D02*
D03*
X174850D02*
D03*
D38*
X182528Y391457D02*
D03*
X173472D02*
D03*
Y398543D02*
D03*
X182528D02*
D03*
D39*
X307000Y479559D02*
D03*
Y474441D02*
D03*
D40*
X300000Y463468D02*
D03*
Y458532D02*
D03*
D41*
X462500Y480000D02*
D03*
X117500Y255000D02*
D03*
Y480000D02*
D03*
X463000Y255000D02*
D03*
D42*
X117000Y459000D02*
D03*
X138000Y255000D02*
D03*
X441000D02*
D03*
X152500Y478000D02*
D03*
X428000Y485000D02*
D03*
X297000Y252000D02*
D03*
X310000D02*
D03*
X130000Y443000D02*
D03*
X156000D02*
D03*
X284000Y252000D02*
D03*
X327000Y357000D02*
D03*
X143000Y443000D02*
D03*
X327000Y369000D02*
D03*
X180000Y283000D02*
D03*
X327000Y345000D02*
D03*
X195000Y478000D02*
D03*
X181000D02*
D03*
X167000D02*
D03*
X154000Y283000D02*
D03*
X341000Y477000D02*
D03*
X167000Y283000D02*
D03*
X118000Y312000D02*
D03*
X298000Y303000D02*
D03*
X285000D02*
D03*
X311000D02*
D03*
X356000Y477000D02*
D03*
X117000Y443000D02*
D03*
X327000Y381000D02*
D03*
X118000Y299000D02*
D03*
Y325000D02*
D03*
D43*
X242000Y463000D02*
D03*
D44*
X232000D02*
D03*
X242000Y473000D02*
D03*
Y483000D02*
D03*
X232000Y473000D02*
D03*
Y483000D02*
D03*
D45*
X418000Y485000D02*
D03*
D46*
X435598Y441598D02*
D03*
D47*
X427697D02*
D03*
X419799D02*
D03*
X411898D02*
D03*
X404000D02*
D03*
X396098D02*
D03*
X388197D02*
D03*
X380299D02*
D03*
X372398D02*
D03*
X364500D02*
D03*
Y355000D02*
D03*
X372398D02*
D03*
X380299D02*
D03*
X388197D02*
D03*
X396098D02*
D03*
X404000D02*
D03*
X411898D02*
D03*
X419799D02*
D03*
X427697D02*
D03*
X435598D02*
D03*
D48*
X136905Y399307D02*
D03*
X220000Y420000D02*
D03*
X181000Y427000D02*
D03*
X237091Y429611D02*
D03*
X238913Y423780D02*
D03*
X228497Y420764D02*
D03*
X237000Y443000D02*
D03*
X235862Y437313D02*
D03*
X229160Y411983D02*
D03*
X210000Y415000D02*
D03*
X197000Y421000D02*
D03*
Y427000D02*
D03*
X403576Y490522D02*
D03*
X368000Y489000D02*
D03*
X401000Y472000D02*
D03*
X109000Y349000D02*
D03*
X120000Y352000D02*
D03*
X300000Y453000D02*
D03*
X251000Y274000D02*
D03*
X142000Y381000D02*
D03*
X330000Y434600D02*
D03*
X322000D02*
D03*
X127000Y386000D02*
D03*
X189000Y392000D02*
D03*
X181493Y302000D02*
D03*
X141000Y329000D02*
D03*
X115000Y405000D02*
D03*
X145000Y403000D02*
D03*
X327012Y404616D02*
D03*
X243000Y339000D02*
D03*
X205000Y325000D02*
D03*
X229000Y313000D02*
D03*
X175000Y360000D02*
D03*
X239767Y356565D02*
D03*
X229123Y354926D02*
D03*
X221906Y358015D02*
D03*
X185000Y356000D02*
D03*
X219000Y348000D02*
D03*
X210000Y363000D02*
D03*
X204000Y371000D02*
D03*
X184000Y340000D02*
D03*
X206000Y352000D02*
D03*
X189000Y344000D02*
D03*
X230000Y258000D02*
D03*
X253000Y320000D02*
D03*
X218136Y363000D02*
D03*
X247000Y356000D02*
D03*
X126063Y415351D02*
D03*
X222000Y396000D02*
D03*
X223261Y377724D02*
D03*
X220789Y389000D02*
D03*
X196005Y388384D02*
D03*
X253353Y385640D02*
D03*
X263951Y393503D02*
D03*
X258851Y390804D02*
D03*
X180000Y309000D02*
D03*
X277000Y384000D02*
D03*
X262195Y372752D02*
D03*
X236000Y391000D02*
D03*
X158000Y370000D02*
D03*
X153000Y359000D02*
D03*
X159000Y379000D02*
D03*
X131255Y357289D02*
D03*
X211000Y373000D02*
D03*
X194770Y334000D02*
D03*
X227807Y363000D02*
D03*
X232000Y340000D02*
D03*
X268000Y385000D02*
D03*
X297000Y396000D02*
D03*
X289000D02*
D03*
X239000Y248000D02*
D03*
X139000Y348000D02*
D03*
X189000Y298000D02*
D03*
X140123Y374000D02*
D03*
X134000Y386000D02*
D03*
X243770Y284000D02*
D03*
X210000Y257000D02*
D03*
X253599Y259827D02*
D03*
X160000Y307000D02*
D03*
X203000Y310000D02*
D03*
X118000Y397000D02*
D03*
X230000D02*
D03*
X365000Y430000D02*
D03*
X262000Y408000D02*
D03*
X169000Y404000D02*
D03*
X187000Y381000D02*
D03*
X196000Y398000D02*
D03*
Y375000D02*
D03*
X199000Y413000D02*
D03*
X408096Y458740D02*
D03*
X412000Y334000D02*
D03*
X422000Y456000D02*
D03*
X273000Y412000D02*
D03*
X268000Y484000D02*
D03*
X312000Y480000D02*
D03*
X328000Y492000D02*
D03*
M02*
