M48
;Layer_Color=9474304
;FILE_FORMAT=2:4
INCH,TZ
;TYPE=PLATED
T1F00S00C0.0280
T2F00S00C0.0354
T3F00S00C0.0362
T4F00S00C0.0394
T5F00S00C0.0433
T6F00S00C0.1969
%
T01
X21000Y25700
X23000Y25800
X23900Y24800
X25360Y25983
X25100Y27400
X24377Y28400
X20300Y31000
X18000Y30900
X18149Y30200
X18900Y29800
X16000Y30700
X14100Y32900
X13900Y34800
X13126Y35729
X12000Y35200
X10900Y34900
X15300Y35900
X14012Y37400
X14200Y38100
X13400Y38600
X12700
X11800Y39700
X11500Y40500
X12606Y41535
X13690Y39931
X14500Y40300
X16900Y40400
X18900Y39200
X19600Y38838
X19600Y39800
X19900Y41300
X19700Y42100
Y42700
X18100
X21000Y41500
X22000Y42000
X22850Y42076
X22916Y41198
X23000Y39700
X22200Y39600
X22079Y38900
X22326Y37772
X21100Y37300
X20400Y37100
X19600Y37500
X18700Y38100
X18500Y35600
X17500Y36000
X15800Y37000
X15900Y37900
X18400Y34000
X18900Y34400
X19477Y33400
X20500Y32500
X20600Y35200
X21000Y36300
X21814
X22191Y35802
X22912Y35493
X22781Y36300
X23977Y35656
X24700Y35600
X24300Y33900
X23200Y34000
X21900Y34800
X22900Y31300
X25300Y32000
X26219Y37275
X26800Y38500
X27700Y38400
X26395Y39350
X25885Y39080
X25335Y38564
X23600Y39100
X23891Y42378
X23709Y42961
X23586Y43731
X23700Y44300
X26200Y40800
X27300Y41200
X28900Y39600
X29700
X30000Y45300
X32200Y43460
X33000
X32701Y40462
X36500Y43000
X40810Y45874
X42200Y45600
X41200Y33400
X40100Y47200
X40358Y49052
X36800Y48900
X32800Y49200
X31200Y48000
X26800Y48400
T02
X41800Y48500
X42800
T03
X36450Y35500
X37240
X38030
X38820
X39610
X40400
X41190
X41980
X42770
X43560
Y44160
X42770
X41980
X41190
X40400
X39610
X38820
X38030
X37240
X36450
T04
X44100Y25500
X31000Y25200
X29700
X28400
X28500Y30300
X29800
X31100
X18000Y28300
X16700Y28300
X15400
X13800Y25500
X11800Y29900
Y31200
Y32500
X11700Y44300
X13000
X14300
X15600
X11700Y45900
X32700Y38100
Y36900
Y35700
Y34500
X34100Y47700
X35600
X19500Y47800
X18100
X16700
X15250
T05
X23200Y46300
X24200
Y47300
Y48300
X23200
Y47300
T06
X46300Y25500
X11750
X46250Y48000
X11750
M30
